<svg width="22" height="23" viewBox="0 0 22 23" fill="none" xmlns="http://www.w3.org/2000/svg">
<path fill-rule="evenodd" clip-rule="evenodd" d="M10.6879 0.642857C7.98033 0.642857 7.55281 0.642857 6.41276 0.714286C5.27272 0.785714 4.41768 0.928572 3.77641 1.21429C3.06388 1.5 2.4226 1.85714 1.85258 2.5C1.2113 3.14286 0.855035 3.71429 0.570024 4.42857C0.285012 5.14286 0.142505 5.92857 0.0712525 7.07143C-4.08774e-07 8.21429 0 8.64286 0 11.5714C0 14.5714 -4.08774e-07 14.9286 0.0712525 16.0714C0.142505 17.2143 0.285012 18.0714 0.570024 18.7143C0.855035 19.4286 1.2113 20.0714 1.85258 20.6429C2.49385 21.2857 3.06388 21.6429 3.77641 21.9286C4.48893 22.2143 5.27272 22.3571 6.41276 22.4286C7.55281 22.5 7.98033 22.5 10.9017 22.5C13.8943 22.5 14.2506 22.5 15.3906 22.4286C16.5307 22.3571 17.3857 22.2143 18.027 21.9286C18.7395 21.6429 19.3808 21.2857 19.9508 20.6429C20.5921 20 20.9484 19.4286 21.2334 18.7143C21.5184 18 21.6609 17.2143 21.7321 16.0714C21.8034 14.9286 21.8034 14.5714 21.8034 11.7857V11.2143C21.8034 8.5 21.8034 8.07143 21.7321 6.92857C21.6609 5.78572 21.5184 4.92857 21.2334 4.28571C20.9484 3.57143 20.5921 2.92857 19.9508 2.35714C19.3095 1.71429 18.7395 1.35714 18.027 1.07143C17.3145 0.785714 16.5307 0.642857 15.3906 0.571429C14.2506 0.5 13.8943 0.5 11.1155 0.5H10.6879V0.642857ZM18.1695 5.71429C18.1695 6.42857 17.5995 7 16.8869 7C16.1744 7 15.6044 6.42857 15.6044 5.71429C15.6044 5 16.1744 4.42857 16.8869 4.42857C17.5282 4.42857 18.1695 5 18.1695 5.71429ZM10.973 15.2143C8.97787 15.2143 7.33905 13.5714 7.33905 11.5714C7.33905 9.57143 8.97787 7.92857 10.973 7.92857C12.968 7.92857 14.6069 9.57143 14.6069 11.5714C14.6069 13.5714 12.968 15.2143 10.973 15.2143ZM10.973 5.92857C14.1081 5.92857 16.6019 8.42857 16.6019 11.5714C16.6019 14.7143 14.1081 17.2143 10.973 17.2143C7.83782 17.2143 5.34397 14.7143 5.34397 11.5714C5.34397 8.42857 7.90908 5.92857 10.973 5.92857ZM10.973 2.57143C13.8943 2.57143 14.2506 2.57143 15.3906 2.64286C16.4594 2.71429 17.0294 2.85714 17.457 3C17.9557 3.21429 18.312 3.42857 18.7395 3.78571C19.0958 4.14286 19.3808 4.5 19.5233 5.07143C19.6658 5.42857 19.8796 6.07143 19.8796 7.14286C19.9508 8.28571 19.9508 8.64286 19.9508 11.5714C19.9508 14.5 19.9508 14.8571 19.8796 16C19.8083 17.0714 19.6658 17.6429 19.5233 18.0714C19.3095 18.5714 19.0958 18.9286 18.7395 19.3571C18.3833 19.7143 18.027 20 17.457 20.1429C17.1007 20.2857 16.4594 20.5 15.3906 20.5C14.2506 20.5714 13.8943 20.5714 10.973 20.5714C8.05158 20.5714 7.69532 20.5714 6.55527 20.5C5.48648 20.4286 4.91645 20.2857 4.48893 20.1429C3.99016 19.9286 3.6339 19.7143 3.20638 19.3571C2.85012 19 2.56511 18.6429 2.4226 18.0714C2.28009 17.7143 2.06634 17.0714 2.06634 16C1.99508 14.8571 1.99508 14.5 1.99508 11.5714C1.99508 8.64286 1.99508 8.28571 2.06634 7.14286C2.13759 6.07143 2.28009 5.5 2.4226 5.07143C2.63636 4.57143 2.85012 4.21429 3.20638 3.78571C3.56265 3.42857 3.91891 3.14286 4.48893 3C4.8452 2.85714 5.48648 2.64286 6.55527 2.64286C7.69532 2.57143 8.05158 2.57143 10.973 2.57143Z" fill="#434343"/>
</svg>
