<svg width="25" height="25" viewBox="0 0 25 25" fill="none" xmlns="http://www.w3.org/2000/svg">
<path d="M11.8731 0.00363778C9.86683 0.0278565 5.55355 0.357544 3.14105 2.57083C1.34652 4.34895 0.719953 6.97786 0.646516 10.2286C0.585578 13.4677 0.512141 19.5505 6.37542 21.2068V23.7294C6.37542 23.7294 6.3387 24.7388 7.00589 24.9458C7.82777 25.206 8.29574 24.4294 9.07699 23.595L10.534 21.9474C14.5457 22.281 17.6184 21.5122 17.9723 21.3982C18.7864 21.138 23.3715 20.5521 24.1207 14.4685C24.8895 8.18567 23.7465 4.22708 21.6832 2.43645H21.6707C21.0481 1.86301 18.5457 0.0395753 12.9551 0.0192628C12.9551 0.0192628 12.5403 -0.00886222 11.8731 0.00285653V0.00363778ZM11.9418 1.77004C12.5114 1.76614 12.8575 1.79036 12.8575 1.79036C17.5895 1.80286 19.8481 3.22708 20.3809 3.70676C22.1184 5.19583 23.0137 8.76458 22.3582 14.0099C21.7356 19.0958 18.0168 19.4177 17.3285 19.6372C17.0356 19.731 14.3293 20.3982 10.92 20.1786C10.92 20.1786 8.38089 23.2427 7.58714 24.0318C7.46136 24.17 7.31449 24.2107 7.22074 24.1904C7.08636 24.1575 7.04574 23.9911 7.05355 23.763L7.07777 19.5763C2.10511 18.2013 2.39808 13.013 2.4512 10.3029C2.51214 7.5927 3.02073 5.37551 4.5348 3.87395C6.57308 2.03098 10.2356 1.78254 11.9403 1.77004H11.9418ZM12.3168 4.47942C12.2759 4.47901 12.2353 4.4867 12.1974 4.50205C12.1594 4.51741 12.1249 4.54012 12.0958 4.56887C12.0666 4.59763 12.0435 4.63187 12.0277 4.66962C12.0119 4.70736 12.0036 4.74787 12.0035 4.78879C12.0035 4.96379 12.1457 5.10208 12.3168 5.10208C13.0914 5.08734 13.8613 5.22611 14.582 5.51038C15.3027 5.79464 15.9601 6.21878 16.516 6.75833C17.6512 7.86067 18.2043 9.34192 18.2254 11.2786C18.2254 11.4497 18.3637 11.5919 18.5387 11.5919V11.5794C18.6212 11.5796 18.7004 11.5472 18.7591 11.4893C18.8178 11.4313 18.8512 11.3525 18.852 11.27C18.8899 10.3584 18.7421 9.44865 18.4175 8.59595C18.0929 7.74326 17.5983 6.96548 16.9637 6.30989C15.727 5.10129 14.1598 4.47864 12.3168 4.47864V4.47942ZM8.19886 5.19583C7.97773 5.16351 7.75219 5.2079 7.5598 5.32161H7.54339C7.09672 5.58343 6.69434 5.91436 6.3512 6.30208C6.06605 6.63176 5.91136 6.96536 5.87073 7.28645C5.84652 7.47786 5.86292 7.66926 5.91995 7.85208L5.94027 7.86458C6.26136 8.80833 6.68089 9.71614 7.19339 10.5708C7.85357 11.7716 8.66601 12.8821 9.61058 13.8747L9.6387 13.9154L9.68324 13.9482L9.71136 13.981L9.74417 14.0091C10.7404 14.9564 11.8536 15.7727 13.0567 16.438C14.4317 17.1865 15.266 17.5404 15.7668 17.6872V17.695C15.9137 17.7396 16.0473 17.7599 16.1817 17.7599C16.6085 17.7286 17.0125 17.5553 17.3293 17.2677C17.7153 16.9245 18.0425 16.5204 18.2981 16.0716V16.0638C18.5379 15.6122 18.4567 15.1849 18.1106 14.8958C17.4175 14.29 16.668 13.7518 15.8723 13.2888C15.3395 12.9997 14.7981 13.1747 14.5785 13.4677L14.1106 14.0575C13.8707 14.3505 13.4348 14.3099 13.4348 14.3099L13.4223 14.3177C10.1715 13.4872 9.30433 10.1958 9.30433 10.1958C9.30433 10.1958 9.2637 9.74817 9.56449 9.52004L10.1504 9.04817C10.4309 8.82004 10.6262 8.27942 10.3254 7.74583C9.86558 6.94907 9.32863 6.19938 8.7223 5.50754C8.58974 5.34444 8.40378 5.23347 8.1973 5.19426L8.19886 5.19583ZM12.8575 6.12395C12.4426 6.12395 12.4426 6.75051 12.8614 6.75051C13.3772 6.75888 13.8863 6.86882 14.3597 7.07405C14.833 7.27929 15.2613 7.57579 15.62 7.94661C15.9472 8.30755 16.1986 8.7305 16.3594 9.19039C16.5201 9.65028 16.587 10.1378 16.5559 10.624C16.5573 10.7062 16.5909 10.7847 16.6495 10.8425C16.708 10.9003 16.7869 10.9329 16.8692 10.9333L16.8817 10.9497C16.9646 10.9491 17.0439 10.9159 17.1025 10.8573C17.1611 10.7987 17.1943 10.7193 17.195 10.6365C17.2231 9.39504 16.8371 8.35364 16.0801 7.51926C15.3192 6.68489 14.2575 6.21692 12.902 6.12395H12.8575ZM13.3707 7.80833C12.9434 7.79583 12.927 8.43489 13.3504 8.44739C14.3801 8.50051 14.8801 9.02083 14.9457 10.0911C14.9472 10.1724 14.9803 10.2498 15.0382 10.3069C15.096 10.364 15.1739 10.3962 15.2551 10.3966H15.2676C15.3094 10.3948 15.3504 10.3847 15.3882 10.3669C15.4261 10.3491 15.46 10.3239 15.488 10.2929C15.516 10.2618 15.5375 10.2255 15.5513 10.186C15.5651 10.1466 15.5709 10.1047 15.5684 10.063C15.495 8.6677 14.734 7.88176 13.3832 7.80911H13.3707V7.80833Z" fill="#457094"/>
</svg>
