<svg width="25" height="25" viewBox="0 0 25 25" fill="none" xmlns="http://www.w3.org/2000/svg">
<path d="M6.67605 22.578C6.67605 22.1599 6.81508 21.707 6.6413 21.3934C6.46751 21.1146 5.98092 21.0101 5.63335 20.8359C3.79123 19.8603 2.36619 18.4666 1.6363 16.5154C1.32348 15.7489 1.21921 14.8778 1.08019 14.0416C0.941158 13.2054 0.9064 12.3691 0.871643 11.5329C0.80213 9.7211 1.01067 7.90928 1.393 6.1323C1.60154 5.12187 2.12289 4.2508 2.74852 3.48426C3.72171 2.26477 4.90345 1.25434 6.398 0.766538C7.26692 0.487797 8.1706 0.348427 9.07428 0.243899C10.2908 0.104528 11.542 0 12.7585 0C13.975 0 15.1915 0.104528 16.408 0.209056C17.2074 0.278741 18.0068 0.418112 18.8062 0.592325C20.1965 0.905909 21.3435 1.70729 22.3514 2.68288C23.3246 3.62363 24.124 4.7386 24.4021 6.09746C24.8192 8.08349 25.0625 10.0695 24.8887 12.0904C24.7844 13.3099 24.6454 14.4945 24.4369 15.714C24.1936 17.1077 23.4289 18.1879 22.4557 19.1635C21.4478 20.2087 20.3008 21.045 18.841 21.3585C17.7288 21.6024 16.5818 21.707 15.4696 21.8463C14.8787 21.916 14.2531 21.9509 13.6274 21.9509C12.9323 21.9509 12.2024 21.916 11.5073 21.916C11.3335 21.916 11.0902 22.0205 10.9512 22.1599C10.1517 22.9613 9.42185 23.7627 8.6572 24.5641C8.10109 25.1215 7.33644 25.1564 6.91935 24.5989C6.74557 24.355 6.67605 24.0066 6.6413 23.7278C6.6413 23.3097 6.67605 22.9613 6.67605 22.578ZM7.64925 21.4979C7.64925 21.8463 7.64925 22.1948 7.64925 22.5432C7.64925 22.8916 7.64925 23.24 7.64925 23.5885C7.64925 23.693 7.71876 23.8324 7.78828 23.8672C7.85779 23.902 7.99682 23.7975 8.06633 23.7278C8.13585 23.693 8.1706 23.6233 8.24012 23.5536C9.42185 22.3341 10.5688 21.1495 11.7506 19.9648C11.8896 19.8255 12.0981 19.7209 12.3067 19.7209C13.975 19.7209 15.6433 19.5816 17.3117 19.3725C18.2849 19.2331 19.1886 18.9892 19.988 18.3621C21.0307 17.5258 22.0039 16.6199 22.2472 15.2611C22.4905 13.9719 22.6295 12.6479 22.699 11.3239C22.7338 10.2437 22.5947 9.12877 22.4905 8.04865C22.3862 6.89884 22.1081 5.78388 21.274 4.84313C20.4398 3.90238 19.5014 3.03131 18.2154 2.78741C16.9641 2.54351 15.7129 2.40414 14.4269 2.33446C12.3414 2.22993 10.2213 2.29961 8.1706 2.68288C5.94616 3.06615 4.41685 4.35533 3.6522 6.44589C3.30463 7.38664 3.23512 8.43192 3.1656 9.44235C3.09609 10.7315 3.13085 12.0556 3.23512 13.3447C3.26987 14.1113 3.37414 14.9126 3.6522 15.6443C4.27782 17.3516 5.52908 18.4666 7.19741 19.1286C7.51022 19.268 7.64925 19.4073 7.64925 19.7558C7.61449 20.2784 7.64925 20.9056 7.64925 21.4979Z" fill="#434343"/>
<path d="M13.8704 14.0763C14.0095 14.0066 14.1832 13.9369 14.3223 13.8324C14.4961 13.693 14.6003 13.484 14.7741 13.3446C15.1217 12.9962 15.5388 12.8568 15.9558 13.1007C16.7205 13.6233 17.4852 14.146 18.2151 14.7383C18.4931 14.9474 18.5974 15.2609 18.4236 15.6094C18.0413 16.4804 17.4852 17.1773 16.512 17.456C16.3729 17.4909 16.2339 17.4909 16.0949 17.456C12.8625 16.3062 10.1514 14.4944 8.34408 11.4979C7.71845 10.4875 7.26661 9.37254 6.74526 8.29242C6.4672 7.76978 6.57147 7.28198 6.88428 6.79419C7.26661 6.2367 7.75321 5.81859 8.34408 5.53985C8.69165 5.36564 9.07397 5.40048 9.31727 5.71406C9.87338 6.41092 10.3947 7.14261 10.8813 7.90915C11.2289 8.46663 11.0551 8.91959 10.5685 9.3377C10.4643 9.40738 10.3947 9.47707 10.2905 9.54675C9.97765 9.79065 9.90814 10.1042 10.0472 10.4527C10.638 12.0903 11.7155 13.3098 13.3838 13.9369C13.5229 14.0066 13.6619 14.0066 13.8704 14.0763Z" fill="#434343"/>
<path d="M18.8765 10.8709C18.8765 10.9754 18.946 11.1148 18.9113 11.2193C18.8417 11.3587 18.7375 11.5677 18.5984 11.6026C18.4942 11.6374 18.2509 11.4284 18.2161 11.3239C18.1119 10.9754 18.1119 10.627 18.0771 10.2786C17.9381 8.22286 16.374 6.27167 14.3929 5.78387C13.9758 5.67935 13.5239 5.6445 13.0721 5.57482C12.9678 5.57482 12.8983 5.53998 12.794 5.53998C12.5507 5.50513 12.377 5.43545 12.377 5.15671C12.4117 4.84312 12.655 4.77344 12.8983 4.77344C15.5746 4.87797 17.8686 6.41104 18.6332 9.16361C18.7722 9.72109 18.8417 10.3134 18.9113 10.8709C18.9113 10.8361 18.9113 10.8709 18.8765 10.8709Z" fill="#434343"/>
<path d="M17.3806 10.4876C17.3458 10.5573 17.3806 10.6966 17.3111 10.7663C17.2068 10.8709 17.0678 11.0102 16.9287 11.0102C16.8245 11.0102 16.6507 10.836 16.6507 10.7315C16.5464 10.3482 16.5464 9.89526 16.4421 9.51199C16.0946 8.18797 14.9823 7.28206 13.5921 7.14269C13.453 7.14269 13.3488 7.10785 13.2097 7.073C13.0012 7.03816 12.8622 6.89879 12.8969 6.68973C12.9317 6.44584 13.1055 6.34131 13.314 6.34131C15.3647 6.48068 17.1025 7.76986 17.3458 10.0346C17.3458 10.1392 17.3806 10.3134 17.3806 10.4876Z" fill="#434343"/>
<path d="M13.8007 7.90918C14.9824 7.94402 15.8861 8.95446 15.8166 10.0694C15.8166 10.3133 15.7123 10.5224 15.469 10.4875C15.33 10.4527 15.1909 10.2785 15.0519 10.1391C15.0171 10.1043 15.0519 10.0346 15.0519 9.99974C14.8781 9.09383 14.6348 8.84993 13.6964 8.67572C13.4531 8.64088 13.2793 8.5015 13.2793 8.25761C13.3141 8.01371 13.4878 7.90918 13.7311 7.90918C13.8007 7.90918 13.8354 7.90918 13.8007 7.90918Z" fill="#434343"/>
</svg>
