<svg width="25" height="25" viewBox="0 0 25 25" fill="none" xmlns="http://www.w3.org/2000/svg">
<path d="M0.178711 25L1.9366 18.291C0.952182 16.4548 0.389657 14.4068 0.389657 12.3588C0.389657 5.50847 5.94458 0 12.6949 0C19.4452 0 25.0001 5.50847 25.0001 12.3588C25.0001 19.1384 19.5155 24.7175 12.6949 24.7175C10.6557 24.7175 8.68689 24.2232 6.85869 23.2345L0.178711 25ZM7.21026 20.6921L7.63216 20.9746C9.1791 21.8927 10.937 22.387 12.6949 22.387C18.1795 22.387 22.6797 17.8672 22.6797 12.3588C22.6797 6.85028 18.1795 2.33051 12.6949 2.33051C7.21026 2.33051 2.71007 6.85028 2.71007 12.3588C2.71007 14.1949 3.20228 15.9605 4.1867 17.5141L4.46796 17.9379L3.48354 21.6808L7.21026 20.6921Z" fill="#434343"/>
<path fill-rule="evenodd" clip-rule="evenodd" d="M17.2651 14.0534C16.7729 13.7709 16.0697 13.4178 15.5072 13.6296C15.015 13.8415 14.7337 14.5477 14.4525 14.9008C14.3119 15.1127 14.1009 15.1127 13.89 15.0421C12.2024 14.3359 10.8664 13.2059 9.88197 11.6522C9.74134 11.4404 9.74134 11.2285 9.95229 11.0166C10.2336 10.6635 10.5851 10.3104 10.6554 9.81608C10.7258 9.39235 10.5148 8.82738 10.3039 8.40365C10.0929 7.9093 9.81166 7.13247 9.24913 6.84998C8.75693 6.5675 8.12409 6.70874 7.70219 7.06185C6.99904 7.62682 6.64746 8.61552 6.64746 9.5336C6.64746 9.81608 6.71778 10.0279 6.71778 10.3104C6.85841 10.946 7.13967 11.511 7.49125 12.0053C7.70219 12.4291 7.98346 12.7822 8.26472 13.2059C9.17882 14.4771 10.3039 15.5364 11.6399 16.3839C12.2727 16.8076 13.0462 17.1607 13.7493 17.3726C14.5931 17.6551 15.2963 17.9376 16.2104 17.7963C17.1245 17.5844 18.0386 17.0195 18.4605 16.1014C18.6011 15.8189 18.6011 15.5364 18.5308 15.2539C18.5308 14.689 17.7573 14.3359 17.2651 14.0534Z" fill="#434343"/>
</svg>
