<svg width="570" height="490" viewBox="0 0 570 490" fill="none" xmlns="http://www.w3.org/2000/svg">
<path d="M169.301 406.527C171.679 387.407 165.719 368.305 159.144 350.169" stroke="black" stroke-miterlimit="10"/>
<path d="M135.988 238.791C139.614 238.791 143.741 239.973 148.254 242.303C157.134 246.884 165.666 257.504 173.61 273.87C180.653 288.373 187.003 307.1 191.975 328.025C201.653 368.744 204.712 411.449 199.579 434.291C198.073 441.012 196.903 441.352 196.687 441.352C196.47 441.352 195.148 440.894 194.347 431.837C193.411 421.347 187.655 405.244 176.751 382.612C167.371 363.144 155.888 342.338 145.748 323.982C136.567 307.345 128.638 292.978 125.221 284.832C118.974 269.934 118.687 253.516 124.525 244.909C127.275 240.855 131.127 238.799 135.973 238.799L135.988 238.791ZM135.973 238.511C119.076 238.511 116.002 263.596 124.952 284.933C135.774 310.728 190.974 397.384 194.046 431.854C194.654 438.688 195.61 441.64 196.678 441.64C197.702 441.64 198.828 438.945 199.857 434.354C210.354 387.523 186.207 261.572 148.38 242.035C143.633 239.587 139.503 238.491 135.976 238.491L135.973 238.511Z" fill="black"/>
<path d="M134.773 250.979C134.939 250.978 135.101 251.02 135.245 251.1C135.389 251.18 135.51 251.295 135.595 251.434C136.285 252.536 152.653 278.826 168.482 314.923C177.762 336.09 185.01 356.403 190.026 375.297C196.274 398.849 199.052 420.258 198.286 438.936C197.447 441.176 196.859 441.352 196.695 441.352C196.61 441.337 196.53 441.305 196.458 441.258C196.387 441.211 196.326 441.15 196.28 441.078C197.353 422.452 194.776 401 188.617 377.31C183.676 358.312 176.432 337.831 167.087 316.445C151.158 279.991 134.656 253.525 133.96 252.415C133.894 252.309 133.85 252.192 133.831 252.069C133.811 251.947 133.816 251.822 133.845 251.701C133.875 251.581 133.928 251.467 134.002 251.367C134.076 251.267 134.169 251.182 134.276 251.117C134.425 251.026 134.598 250.978 134.773 250.979ZM134.773 250.69C134.551 250.69 134.332 250.747 134.14 250.858C133.948 250.968 133.79 251.127 133.681 251.319C133.573 251.51 133.518 251.726 133.523 251.945C133.528 252.164 133.592 252.378 133.709 252.565C133.922 252.902 200.76 359.393 195.981 441.165C196.053 441.295 196.155 441.406 196.279 441.489C196.403 441.572 196.546 441.624 196.695 441.64C197.3 441.64 197.941 440.703 198.576 438.991C201.989 356.671 136.049 251.613 135.841 251.284C135.727 251.107 135.57 250.96 135.383 250.86C135.196 250.759 134.986 250.706 134.773 250.708V250.69Z" fill="black"/>
<path d="M107.037 303.845C108.796 303.858 110.551 304.022 112.281 304.335C120.52 305.777 130.029 312.1 140.544 323.149C149.868 332.953 159.725 346.274 169.046 361.7C187.18 391.715 200.57 424.96 202.345 444.426C202.784 449.227 202.255 450.368 202.009 450.637C201.987 450.665 201.96 450.688 201.928 450.704C201.896 450.72 201.861 450.728 201.825 450.729C201.532 450.729 200.362 450.227 197.633 443.745C194.197 435.617 185.484 424.222 170.994 408.909C158.531 395.738 144.053 382.027 131.278 369.932C119.698 358.975 109.701 349.497 104.89 343.86C100.304 338.483 96.7502 332.157 94.8841 326.047C92.9976 319.868 92.9771 314.309 94.8256 310.393C96.8467 306.109 101.07 303.845 107.037 303.845ZM107.037 303.557C87.2679 303.557 90.5846 327.538 104.668 344.045C119.897 361.896 186.077 417.158 197.364 443.858C199.476 448.855 200.95 451.017 201.825 451.017C202.764 451.017 203.015 448.538 202.638 444.4C198.996 404.48 147.476 310.177 112.334 304.05C110.586 303.734 108.814 303.569 107.037 303.557Z" fill="black"/>
<path d="M104.019 314.565C104.201 314.567 104.376 314.632 104.513 314.75C105.306 315.419 184.186 382.396 202.495 448.448C202.416 450.132 202.086 450.729 201.825 450.729C201.719 450.722 201.617 450.684 201.533 450.619C197.617 435.539 190.079 419.121 179.129 401.818C170.354 387.932 159.339 373.438 146.432 358.744C124.429 333.691 104.367 316.587 103.519 315.866C103.369 315.737 103.276 315.555 103.262 315.359C103.248 315.164 103.313 314.97 103.443 314.822C103.513 314.741 103.6 314.676 103.698 314.632C103.796 314.587 103.902 314.565 104.01 314.565H104.019ZM104.01 314.277C103.797 314.277 103.589 314.341 103.414 314.46C103.239 314.58 103.105 314.75 103.031 314.946C102.956 315.143 102.945 315.358 102.997 315.561C103.05 315.765 103.165 315.947 103.326 316.085C103.583 316.304 184.118 384.472 201.276 450.795C201.427 450.925 201.617 451.003 201.817 451.017C202.402 451.017 202.694 450.086 202.782 448.422C184.399 382.001 104.949 314.75 104.692 314.536C104.504 314.373 104.261 314.282 104.01 314.283V314.277Z" fill="black"/>
<path d="M461.348 182.355H4.26146C1.90791 182.355 0 184.236 0 186.556V481.69C0 484.01 1.90791 485.891 4.26146 485.891H461.348C463.702 485.891 465.61 484.01 465.61 481.69V186.556C465.61 184.236 463.702 182.355 461.348 182.355Z" fill="#FFB037"/>
<path d="M503.369 490H9.32727C8.64372 490 7.96682 489.868 7.3352 489.61C6.70357 489.353 6.12961 488.975 5.64613 488.499C5.16265 488.022 4.77911 487.457 4.51744 486.834C4.25577 486.212 4.12109 485.544 4.12109 484.87V463.441H508.576V484.87C508.576 485.544 508.441 486.212 508.179 486.834C507.918 487.457 507.534 488.022 507.051 488.499C506.567 488.975 505.993 489.353 505.362 489.61C504.73 489.868 504.053 490 503.369 490Z" fill="#FFB037"/>
<path d="M451.811 194.413H12.498V450.746H451.811V194.413Z" fill="#9A9A9A"/>
<path d="M210.5 463.441L216.759 473.259H304.84L310.655 463.441H210.5Z" fill="#FFB037"/>
<path d="M431.62 211.485H27.1484V450.648H431.62V211.485Z" fill="#F2F5FA"/>
<path d="M44.4136 223.281C44.413 223.943 44.2135 224.589 43.8403 225.139C43.4672 225.688 42.9371 226.117 42.3171 226.369C41.6971 226.622 41.015 226.688 40.3571 226.558C39.6991 226.429 39.0948 226.11 38.6206 225.642C38.1464 225.174 37.8236 224.579 37.6929 223.93C37.5622 223.281 37.6296 222.609 37.8865 221.998C38.1434 221.387 38.5782 220.865 39.1361 220.497C39.694 220.13 40.3498 219.934 41.0208 219.934C41.4666 219.934 41.908 220.02 42.3198 220.189C42.7316 220.357 43.1058 220.603 43.4209 220.914C43.7359 221.225 43.9858 221.594 44.1561 222C44.3265 222.406 44.4139 222.842 44.4136 223.281Z" fill="#9FC3FD"/>
<path d="M58.2622 223.281C58.2622 223.943 58.063 224.591 57.6897 225.141C57.3164 225.692 56.7859 226.121 56.1653 226.374C55.5446 226.628 54.8617 226.694 54.2029 226.564C53.5441 226.435 52.9391 226.116 52.4643 225.647C51.9895 225.179 51.6663 224.582 51.5356 223.933C51.4049 223.283 51.4726 222.61 51.73 221.998C51.9875 221.387 52.4232 220.864 52.982 220.496C53.5408 220.129 54.1976 219.933 54.8694 219.934C55.7695 219.934 56.6324 220.287 57.2686 220.915C57.9048 221.543 58.2622 222.394 58.2622 223.281Z" fill="#9FC3FD"/>
<path d="M72.1118 223.281C72.1118 223.943 71.9126 224.591 71.5395 225.141C71.1664 225.692 70.636 226.121 70.0156 226.374C69.3951 226.627 68.7123 226.694 68.0536 226.564C67.3949 226.435 66.7898 226.116 66.3149 225.648C65.84 225.18 65.5166 224.584 65.3856 223.934C65.2545 223.285 65.3218 222.612 65.5788 222C65.8358 221.388 66.2711 220.866 66.8295 220.498C67.3879 220.13 68.0444 219.934 68.7161 219.934C69.6167 219.934 70.4804 220.286 71.1172 220.914C71.754 221.542 72.1118 222.393 72.1118 223.281Z" fill="#9FC3FD"/>
<path d="M431.618 237.917C431.618 238.128 341.065 238.298 229.392 238.298C117.719 238.298 27.1455 238.128 27.1455 237.917C27.1455 237.707 117.678 237.536 229.392 237.536C341.106 237.536 431.618 237.707 431.618 237.917Z" fill="#9FC3FD"/>
<path d="M489.205 463.646H23.5947V465.111H489.205V463.646Z" fill="#0600A0"/>
<g opacity="0.35">
<path opacity="0.35" d="M489.205 463.646H23.5947V465.111H489.205V463.646Z" fill="black"/>
</g>
<path d="M148.775 354.113H60.3105V359.946H148.775V354.113Z" fill="#9FC3FD"/>
<path d="M263.039 273.117H174.574V278.953H263.039V273.117Z" fill="#9FC3FD"/>
<path d="M394.612 294.843C394.612 295.054 345.349 295.227 284.598 295.227C223.846 295.227 174.574 295.054 174.574 294.843C174.574 294.633 223.825 294.463 284.598 294.463C345.37 294.463 394.612 294.633 394.612 294.843Z" fill="#9FC3FD"/>
<path d="M394.612 307.582C394.612 307.792 345.349 307.965 284.598 307.965C223.846 307.965 174.574 307.792 174.574 307.582C174.574 307.371 223.825 307.201 284.598 307.201C345.37 307.201 394.612 307.374 394.612 307.582Z" fill="#9FC3FD"/>
<path d="M394.612 320.323C394.612 320.531 345.349 320.704 284.598 320.704C223.846 320.704 174.574 320.531 174.574 320.323C174.574 320.116 223.825 319.94 284.598 319.94C345.37 319.94 394.612 320.119 394.612 320.323Z" fill="#9FC3FD"/>
<path d="M394.612 333.062C394.612 333.273 345.349 333.443 284.598 333.443C223.846 333.443 174.574 333.273 174.574 333.062C174.574 332.852 223.825 332.679 284.598 332.679C345.37 332.679 394.612 332.852 394.612 333.062Z" fill="#9FC3FD"/>
<path d="M394.612 345.801C394.612 346.011 345.349 346.181 284.598 346.181C223.846 346.181 174.574 346.011 174.574 345.801C174.574 345.59 223.825 345.417 284.598 345.417C345.37 345.417 394.612 345.59 394.612 345.801Z" fill="#9FC3FD"/>
<path d="M260.468 358.539C260.468 358.75 241.237 358.92 217.522 358.92C193.808 358.92 174.574 358.75 174.574 358.539C174.574 358.329 193.799 358.159 217.522 358.159C241.246 358.159 260.468 358.329 260.468 358.539Z" fill="#9FC3FD"/>
<path d="M393.01 383.264C393.01 383.475 360.632 383.648 320.699 383.648C280.767 383.648 248.383 383.475 248.383 383.264C248.383 383.054 280.755 382.884 320.699 382.884C360.644 382.884 393.01 383.051 393.01 383.264Z" fill="#9FC3FD"/>
<path d="M393.01 396.784C393.01 396.995 360.632 397.165 320.699 397.165C280.767 397.165 248.383 396.995 248.383 396.784C248.383 396.574 280.755 396.404 320.699 396.404C360.644 396.404 393.01 396.574 393.01 396.784Z" fill="#9FC3FD"/>
<path d="M393.01 410.307C393.01 410.517 360.632 410.688 320.699 410.688C280.767 410.688 248.383 410.517 248.383 410.307C248.383 410.097 280.755 409.926 320.699 409.926C360.644 409.926 393.01 410.097 393.01 410.307Z" fill="#9FC3FD"/>
<path d="M393.01 423.83C393.01 424.04 360.632 424.211 320.699 424.211C280.767 424.211 248.383 424.04 248.383 423.83C248.383 423.62 280.755 423.449 320.699 423.449C360.644 423.449 393.01 423.631 393.01 423.83Z" fill="#9FC3FD"/>
<path d="M148.999 381.97C148.999 382.18 129.696 382.35 105.893 382.35C82.091 382.35 62.7842 382.18 62.7842 381.97C62.7842 381.759 82.0881 381.586 105.893 381.586C129.698 381.586 148.999 381.759 148.999 381.97Z" fill="#9FC3FD"/>
<path d="M148.999 392.589C148.999 392.799 129.696 392.969 105.893 392.969C82.091 392.969 62.7842 392.799 62.7842 392.589C62.7842 392.378 82.0881 392.208 105.893 392.208C129.698 392.208 148.999 392.378 148.999 392.589Z" fill="#9FC3FD"/>
<path d="M148.999 403.208C148.999 403.419 129.696 403.589 105.893 403.589C82.091 403.589 62.7842 403.419 62.7842 403.208C62.7842 402.998 82.0881 402.828 105.893 402.828C129.698 402.828 148.999 402.998 148.999 403.208Z" fill="#9FC3FD"/>
<path d="M148.999 413.828C148.999 414.038 129.696 414.208 105.893 414.208C82.091 414.208 62.7959 414.038 62.7959 413.828C62.7959 413.617 82.0998 413.447 105.905 413.447C129.71 413.447 148.999 413.617 148.999 413.828Z" fill="#9FC3FD"/>
<path d="M148.999 424.447C148.999 424.658 129.696 424.828 105.893 424.828C82.091 424.828 62.7842 424.658 62.7842 424.447C62.7842 424.237 82.0881 424.066 105.893 424.066C129.698 424.066 148.999 424.237 148.999 424.447Z" fill="#9FC3FD"/>
<path d="M148.997 254.055H60.3105V338.641H148.997V254.055Z" fill="#9FC3FD"/>
<path d="M67.1895 331.404L91.7229 287.874L111.79 315.695L123.981 300.921L142.124 331.404H67.1895Z" fill="#9FC3FD"/>
<path d="M120.336 279.409C120.336 280.653 119.962 281.869 119.261 282.904C118.559 283.939 117.563 284.745 116.397 285.221C115.23 285.697 113.947 285.822 112.709 285.579C111.471 285.336 110.334 284.737 109.442 283.857C108.549 282.978 107.941 281.857 107.695 280.636C107.449 279.416 107.575 278.151 108.058 277.001C108.541 275.851 109.359 274.869 110.409 274.178C111.458 273.486 112.692 273.117 113.954 273.117C115.647 273.118 117.269 273.781 118.466 274.961C119.663 276.14 120.335 277.74 120.336 279.409Z" fill="#9FC3FD"/>
<path d="M142.124 331.652C142.109 331.537 142.102 331.422 142.103 331.306C142.103 331.052 142.103 330.729 142.083 330.32C142.083 329.42 142.06 328.149 142.039 326.514C142.019 323.16 141.986 318.308 141.946 312.146C141.902 299.794 141.837 282.197 141.761 261.073L142.124 261.431L67.1956 261.491C67.0933 261.578 67.9882 260.707 67.6109 261.085V265.883C67.6109 267.48 67.6109 269.072 67.6109 270.657V280.075C67.6109 286.291 67.6109 292.378 67.6109 298.303C67.5963 310.148 67.5817 321.35 67.57 331.652L67.2015 331.289L121.384 331.473L136.663 331.568L140.717 331.612L141.767 331.632C141.891 331.63 142.015 331.637 142.139 331.652C142.03 331.668 141.921 331.675 141.811 331.672L140.799 331.695L136.818 331.736L121.609 331.831L67.2073 332.015H66.8417V331.652C66.8417 321.35 66.8154 310.148 66.8008 298.303C66.8008 292.378 66.8008 286.291 66.8008 280.075C66.8008 276.97 66.8008 273.831 66.8008 270.657V261.085C66.4235 261.451 67.3126 260.566 67.2307 260.658L142.159 260.716H142.522V261.073C142.443 282.292 142.381 299.964 142.335 312.377C142.297 318.501 142.261 323.333 142.241 326.661C142.223 328.267 142.209 329.515 142.2 330.409C142.2 330.804 142.182 331.116 142.18 331.358C142.169 331.457 142.15 331.555 142.124 331.652Z" fill="#9FC3FD"/>
<path d="M237.285 376.811H174.521V436.675H237.285V376.811Z" fill="#9FC3FD"/>
<path d="M179.389 431.552L196.75 400.746L210.951 420.433L219.582 409.978L232.419 431.552H179.389Z" fill="#9FC3FD"/>
<path d="M217.003 394.754C217.003 395.635 216.738 396.497 216.241 397.229C215.744 397.962 215.039 398.533 214.213 398.87C213.387 399.207 212.479 399.295 211.602 399.123C210.726 398.952 209.92 398.527 209.288 397.904C208.656 397.281 208.226 396.488 208.052 395.623C207.877 394.759 207.967 393.863 208.309 393.049C208.651 392.235 209.23 391.54 209.973 391.05C210.716 390.561 211.59 390.299 212.484 390.299C213.682 390.299 214.832 390.769 215.679 391.604C216.526 392.44 217.003 393.573 217.003 394.754Z" fill="#9FC3FD"/>
<path d="M232.419 431.704C232.419 431.704 232.419 431.618 232.404 431.459C232.39 431.301 232.404 431.053 232.404 430.761C232.404 430.124 232.387 429.228 232.372 428.068C232.372 425.695 232.334 422.261 232.308 417.902C232.276 409.157 232.229 396.706 232.176 381.756L232.431 382.01L179.404 382.05C179.333 382.114 179.965 381.497 179.696 381.762V388.535C179.696 390.778 179.696 393 179.696 395.201C179.696 399.601 179.696 403.9 179.696 408.098C179.696 416.483 179.675 424.409 179.667 431.701L179.409 431.445L217.751 431.578L228.573 431.644L231.442 431.673H232.185C232.352 431.673 232.442 431.673 232.445 431.687C232.369 431.701 232.292 431.706 232.214 431.701L231.498 431.719L228.681 431.748L217.923 431.814L179.415 431.944H179.155V431.704C179.155 424.412 179.134 416.486 179.126 408.101C179.126 403.909 179.126 399.61 179.126 395.204V388.538C179.126 387.415 179.126 386.289 179.126 385.158V381.765C178.859 382.021 179.488 381.396 179.418 381.476L232.445 381.517H232.706V381.768C232.65 396.784 232.606 409.289 232.574 418.075C232.545 422.4 232.524 425.822 232.507 428.184C232.495 429.32 232.485 430.201 232.477 430.828C232.477 431.116 232.478 431.327 232.463 431.5C232.457 431.569 232.442 431.638 232.419 431.704Z" fill="#9FC3FD"/>
<path d="M152.363 194.413L15.2357 329.599L12.498 326.9V294.339L113.858 194.413H152.363Z" fill="url(#paint0_linear)"/>
<path d="M12.498 355.31L175.616 194.505L175.525 194.413H167.046L12.498 346.772V355.31Z" fill="url(#paint1_linear)"/>
<g opacity="0.5">
<path opacity="0.5" d="M61.1758 390.337C61.1758 390.337 90.4241 435.735 130.986 465.569L61.1758 390.337Z" fill="#0600A0"/>
<path opacity="0.5" d="M32.4189 396.542C32.4189 396.542 68.4295 435.652 89.9123 427.35C89.9123 427.35 69.0612 389.161 32.4189 396.542Z" fill="#0600A0"/>
<path opacity="0.5" d="M25.5364 353.228C25.5364 353.228 37.5984 393.419 68.976 401.475C68.976 401.475 71.2515 378.625 45.0918 363.703C18.9321 348.782 25.5364 353.228 25.5364 353.228Z" fill="#0600A0"/>
<path opacity="0.5" d="M82.5175 416.97C82.5175 416.97 69.9407 394.134 86.0536 382.947C86.0536 382.947 100.385 408.398 84.8544 418.21" fill="#0600A0"/>
</g>
<path d="M311.115 246.238C311.074 266.624 311.034 287.007 310.995 307.389C310.899 359.431 310.795 411.472 310.682 463.511H240.854C243.528 418.657 246.196 373.809 248.86 328.968C249.076 325.288 249.295 321.614 249.515 317.945C251.174 289.986 252.837 262.03 254.502 234.076C254.531 233.529 254.566 232.978 254.595 232.43L254.78 229.42C254.873 227.739 254.976 226.064 255.072 224.386C255.098 223.988 255.119 223.584 255.142 223.186L266.21 223.884L270.012 224.12L278.295 224.639L279.231 224.697C279.594 224.723 279.962 224.743 280.325 224.766L281.08 224.818L286.994 225.184L289.494 225.343L293.516 229.241L299.562 235.094L300.384 235.89L302.843 238.275C305.608 240.922 308.365 243.576 311.115 246.238Z" fill="#85A9FF"/>
<path d="M523.165 182.032C531.062 177.349 538.862 173.05 546.856 168.342C547.584 167.915 547.239 168.434 548.813 166.817C550.386 165.199 564.978 149.413 565.081 149.3C568.59 145.37 569.117 144.537 569.778 141.766C570.606 138.277 569.067 137.323 566.06 138.367C565.497 138.587 564.961 138.868 564.46 139.206C557.844 143.314 551.661 148.582 544.879 152.654L544.686 152.769C543.916 153.19 543.001 153.666 542.24 154.02C541.878 154.19 541.345 154.444 541.071 154.554C534.838 157.131 526.923 160.658 520.766 161.618C517.201 162.174 516.672 159.135 514.332 158.08C514.256 158.045 514.291 157.962 514.2 157.904C514.107 157.831 514.024 157.746 513.954 157.65C513.522 157.184 513.145 156.671 512.831 156.119C510.918 152.642 510.436 148.334 508.544 144.935C507.792 143.583 506.815 142.974 505.534 142.377C504.261 141.802 502.835 141.642 501.463 141.919C500.685 142.063 500.088 142.516 500.293 143.487C502.407 153.778 504.472 164.299 506.768 174.613C505.99 177.496 505.546 180.472 504.975 183.396C509.836 185.991 514.776 188.436 519.634 191.034C520.851 188.061 521.995 185.028 523.165 182.032Z" fill="#FFCAE1"/>
<path d="M564.527 139.162C554.033 150.644 541.594 159.533 526.505 164.49C524.413 165.179 521.24 165.046 518.941 163.832C518.064 163.359 516.394 162.595 515.431 162.039C515.136 161.898 514.875 161.697 514.666 161.448C514.457 161.199 514.305 160.909 514.22 160.597C513.764 159.216 513.343 157.558 512.837 156.134C513.164 156.67 513.541 157.174 513.963 157.642C514.034 157.736 514.117 157.821 514.209 157.895C514.299 157.95 514.261 158.037 514.34 158.071C516.68 159.127 517.224 162.166 520.775 161.609C526.935 160.652 534.843 157.123 541.082 154.548C541.348 154.438 541.878 154.182 542.252 154.011C543.015 153.657 543.925 153.181 544.697 152.757L544.89 152.648C551.723 148.539 557.751 143.386 564.527 139.162Z" fill="#FDB2D0"/>
<path d="M307.391 197.172C303.557 195.676 307.772 195.985 307.391 197.172V197.172Z" fill="#4052F2"/>
<path d="M312.039 198.441C310.664 197.934 310.114 197.726 310.044 197.694C310.17 197.738 311.234 198.127 312.039 198.441Z" fill="#4052F2"/>
<path d="M371.434 280.876C371.434 280.905 371.434 280.937 371.434 280.966C371.434 280.995 371.434 281.027 371.434 281.061C371.445 280.995 371.439 280.937 371.434 280.876Z" fill="#4052F2"/>
<path d="M371.494 281.551C371.494 281.551 371.494 281.551 371.494 281.572C371.497 281.558 371.497 281.544 371.494 281.531C371.494 281.538 371.494 281.545 371.494 281.551Z" fill="#4052F2"/>
<path d="M371.494 281.549C371.497 281.538 371.497 281.527 371.494 281.516V281.549Z" fill="#4052F2"/>
<path d="M371.5 281.621C371.503 281.609 371.503 281.597 371.5 281.586C371.501 281.588 371.502 281.591 371.502 281.594C371.502 281.597 371.501 281.6 371.5 281.603C371.502 281.606 371.502 281.609 371.502 281.612C371.502 281.615 371.502 281.618 371.5 281.621Z" fill="#4052F2"/>
<path d="M371.515 281.77C371.512 281.758 371.512 281.745 371.515 281.733C371.512 281.718 371.512 281.704 371.515 281.689C371.515 281.689 371.515 281.669 371.515 281.657V281.672C371.515 281.698 371.515 281.715 371.515 281.672C371.515 281.672 371.515 281.695 371.515 281.71V281.724C371.512 281.734 371.512 281.745 371.515 281.756V281.785C371.514 281.78 371.514 281.775 371.515 281.77Z" fill="#4052F2"/>
<path d="M371.523 281.872C371.522 281.856 371.522 281.841 371.523 281.825C371.522 281.831 371.522 281.837 371.523 281.843V281.872Z" fill="#4052F2"/>
<path d="M371.536 281.95V281.965C371.538 281.958 371.538 281.951 371.536 281.944V281.926C371.534 281.934 371.534 281.942 371.536 281.95Z" fill="#4052F2"/>
<path d="M371.542 282.02C371.542 282.02 371.542 281.998 371.542 281.989C371.539 281.996 371.539 282.004 371.542 282.011V282.02Z" fill="#4052F2"/>
<path d="M371.541 282.058C371.541 282.058 371.541 282.058 371.541 282.08C371.542 282.074 371.542 282.068 371.541 282.061C371.541 282.061 371.544 282.058 371.541 282.058Z" fill="#4052F2"/>
<path d="M371.55 282.168V282.142C371.55 282.142 371.55 282.162 371.55 282.174C371.548 282.19 371.548 282.207 371.55 282.223C371.555 282.205 371.555 282.186 371.55 282.168Z" fill="#4052F2"/>
<path d="M371.556 282.154C371.553 282.143 371.553 282.131 371.556 282.119C371.554 282.131 371.554 282.143 371.556 282.154Z" fill="#4052F2"/>
<path d="M371.559 282.244C371.557 282.232 371.557 282.22 371.559 282.208C371.557 282.215 371.557 282.222 371.559 282.229V282.244Z" fill="#4052F2"/>
<path d="M371.585 282.546C371.585 282.448 371.565 282.352 371.559 282.257C371.556 282.299 371.556 282.34 371.559 282.381C371.564 282.437 371.573 282.492 371.585 282.546Z" fill="#4052F2"/>
<path d="M371.606 282.75C371.604 282.754 371.604 282.757 371.604 282.761C371.604 282.765 371.604 282.769 371.606 282.772V282.75Z" fill="#4052F2"/>
<path d="M371.605 282.779C371.607 282.8 371.607 282.82 371.605 282.84C371.605 282.863 371.605 282.883 371.605 282.904C371.614 282.869 371.611 282.828 371.605 282.779Z" fill="#4052F2"/>
<path d="M384.236 436.638V436.674C384.233 436.661 384.233 436.648 384.236 436.635V436.638Z" fill="#4052F2"/>
<path d="M385.562 287.341C385.444 287.3 385.368 287.266 385.317 287.246L385.562 287.341Z" fill="#4052F2"/>
<path d="M524.609 181.181C518.341 180.455 512.067 179.789 505.835 178.794H505.805C498.47 208.637 486.209 229.201 466.727 252.896C466.712 252.896 466.7 252.896 466.686 252.896C466.717 252.914 466.749 252.931 466.782 252.945C467.013 253.055 466.095 252.997 466.525 253.216C464.978 252.827 463.015 252.351 460.555 251.743C446.133 248.211 419.336 238.629 392.565 228.636C377.192 222.895 361.825 217.016 348.815 212.077C343.591 210.09 338.748 208.256 334.437 206.636C330.435 205.139 326.896 203.827 323.931 202.757C321.749 201.973 319.883 201.299 318.3 200.739C316.838 200.217 315.639 199.776 314.627 199.407L312.1 198.49C313.24 198.94 313.779 199.234 310.134 198.115C309.499 197.922 308.95 197.743 308.476 197.585C308.058 197.435 307.698 197.296 307.391 197.187C307.259 197.605 306.554 198.135 304.729 198.732C304.226 202.714 303.667 206.938 303.05 211.356C302.024 218.769 300.86 226.744 299.599 235.094C299.412 236.311 299.225 237.539 299.037 238.771C299.017 238.915 298.994 239.059 298.973 239.209C298.953 239.359 298.912 239.592 298.882 239.786C298.882 239.869 298.856 239.95 298.847 240.039C290.705 293.318 279.178 359.912 275.361 394.036C275.361 394.097 275.346 394.157 275.34 394.215C270.471 437.857 278.204 424.176 277.829 448.676C277.701 457.216 279.105 461.363 281.585 463.508H386.44C386.44 463.367 386.417 463.219 386.405 463.084C386.385 462.845 386.364 462.608 386.347 462.363C386.306 461.847 386.259 461.325 386.215 460.795C386.171 460.264 386.124 459.725 386.077 459.177C386.031 458.629 385.987 458.05 385.937 457.464C385.908 457.121 385.876 456.766 385.852 456.409C385.855 456.376 385.855 456.344 385.852 456.311C385.829 455.956 385.797 455.599 385.767 455.238C385.718 454.621 385.665 453.99 385.612 453.338C385.615 453.32 385.615 453.302 385.612 453.283C385.522 452.176 385.425 451.017 385.32 449.795C385.32 449.774 385.32 449.754 385.32 449.737C385.267 449.134 385.218 448.514 385.168 447.883C385.118 447.251 385.057 446.531 384.995 445.824C384.946 445.178 384.89 444.518 384.834 443.838C384.738 442.684 384.644 441.505 384.542 440.254C384.542 440.158 384.542 440.069 384.521 439.991C384.504 439.752 384.483 439.527 384.469 439.319C384.469 439.204 384.448 439.112 384.442 439.031C384.442 438.91 384.422 438.792 384.413 438.682C384.396 438.503 384.387 438.359 384.378 438.25C384.369 438.14 384.358 437.961 384.34 437.837C384.323 437.713 384.325 437.624 384.323 437.569C384.305 437.445 384.302 437.33 384.29 437.226C384.279 437.122 384.276 437.073 384.276 437.041C384.276 437.01 384.276 436.938 384.276 436.894C384.276 436.799 384.276 436.739 384.261 436.71C384.264 436.695 384.264 436.679 384.261 436.664C384.261 436.785 384.282 436.952 384.29 437.111C384.29 437.163 384.29 437.217 384.305 437.272C384.32 437.327 384.305 437.362 384.305 437.396C384.305 437.431 384.305 437.526 384.305 437.595C384.308 437.632 384.308 437.668 384.305 437.705C384.308 437.739 384.308 437.774 384.305 437.808C384.307 437.828 384.307 437.847 384.305 437.866C384.307 437.906 384.307 437.947 384.305 437.987V438.01C384.307 438.003 384.307 437.995 384.305 437.987C384.308 437.967 384.308 437.947 384.305 437.927C384.305 437.857 384.305 437.783 384.285 437.699C384.289 437.635 384.289 437.57 384.285 437.506C384.285 437.385 384.264 437.255 384.255 437.122C384.247 436.99 384.238 436.923 384.229 436.814C384.208 436.574 384.188 436.306 384.165 436.018C384.127 435.536 384.083 434.991 384.027 434.36C384.027 434.239 384.007 434.115 383.998 433.985C383.977 433.737 383.957 433.481 383.936 433.21C383.922 433.083 383.91 432.947 383.901 432.815C383.875 432.494 383.852 432.157 383.82 431.805C383.82 431.606 383.784 431.396 383.77 431.182C383.74 430.796 383.705 430.392 383.67 429.971C383.65 429.741 383.635 429.507 383.615 429.265C383.583 428.913 383.553 428.538 383.524 428.158C383.509 427.968 383.492 427.78 383.477 427.581C383.428 427.005 383.378 426.382 383.325 425.742C383.308 425.514 383.287 425.28 383.267 425.041C383.267 424.995 383.267 424.957 383.267 424.911C383.229 424.401 383.182 423.867 383.141 423.325C383.106 422.927 383.071 422.527 383.041 422.109C383.015 421.849 382.995 421.581 382.974 421.313C382.936 420.825 382.895 420.33 382.854 419.822C382.79 419.032 382.723 418.219 382.658 417.383C382.612 416.826 382.568 416.255 382.521 415.673C382.521 415.638 382.521 415.604 382.521 415.575C382.474 415.027 382.436 414.471 382.383 413.903C382.284 412.663 382.182 411.374 382.091 410.056C382.047 409.456 381.994 408.851 381.945 408.234C381.86 407.205 381.778 406.155 381.693 405.088C381.643 404.448 381.594 403.796 381.538 403.139C381.506 402.753 381.471 402.361 381.442 401.966C381.386 401.297 381.336 400.625 381.281 399.947C381.134 398.142 380.988 396.288 380.836 394.402C380.807 394.025 380.775 393.647 380.745 393.249C380.705 392.716 380.661 392.185 380.62 391.649C380.579 391.113 380.535 390.611 380.494 390.083C380.35 388.324 380.206 386.537 380.064 384.72C379.994 383.818 379.918 382.907 379.848 381.992C379.833 381.794 379.818 381.595 379.798 381.396C379.748 380.721 379.693 380.04 379.637 379.357C379.561 378.415 379.485 377.467 379.409 376.511C379.35 375.77 379.295 375.029 379.233 374.285C378.941 370.785 378.669 367.238 378.382 363.669C378.293 362.515 378.202 361.362 378.11 360.209C378.093 360.021 378.078 359.831 378.063 359.632C378.013 359.069 377.966 358.504 377.923 357.937C377.847 356.942 377.765 355.95 377.686 354.95C377.631 354.24 377.569 353.528 377.514 352.819C377.438 351.899 377.367 350.985 377.291 350.065C377.221 349.226 377.157 348.381 377.089 347.539C376.779 343.693 376.469 339.872 376.162 336.115C376.104 335.346 376.037 334.579 375.975 333.809C375.876 332.56 375.776 331.318 375.683 330.089C375.668 329.876 375.648 329.663 375.633 329.449C375.536 328.33 375.446 327.217 375.361 326.119C375.179 323.925 375.001 321.762 374.826 319.649C374.826 319.594 374.826 319.536 374.826 319.481C374.77 318.781 374.714 318.083 374.653 317.394C374.653 317.341 374.648 317.288 374.638 317.235C374.603 316.783 374.562 316.33 374.527 315.883C374.504 315.534 374.472 315.188 374.442 314.839C374.393 314.182 374.337 313.536 374.282 312.89C374.255 312.564 374.226 312.236 374.2 311.913C374.17 311.523 374.135 311.137 374.1 310.759C374.018 309.729 373.934 308.719 373.846 307.729C373.822 307.371 373.793 307.017 373.755 306.671C373.676 305.676 373.594 304.696 373.509 303.738C373.404 302.462 373.3 301.223 373.196 300.022C373.173 299.733 373.147 299.425 373.12 299.131C373.12 299.09 373.12 299.056 373.12 299.021C373.07 298.469 373.023 297.927 372.98 297.395L372.962 297.236C372.927 296.821 372.892 296.406 372.857 296.005C372.857 295.91 372.857 295.815 372.834 295.717C372.813 295.446 372.787 295.172 372.761 294.907C372.612 293.159 372.468 291.513 372.328 289.982C372.263 289.252 372.196 288.54 372.138 287.877C372.111 287.589 372.082 287.3 372.062 287.012C372.035 286.778 372.015 286.548 371.994 286.326C371.974 286.104 371.95 285.838 371.93 285.599C371.91 285.36 371.889 285.132 371.869 284.91C371.769 283.82 371.684 282.866 371.608 282.027C371.608 282.027 371.608 282.001 371.608 281.986C371.588 281.793 371.573 281.603 371.559 281.41C371.559 281.392 371.559 281.375 371.559 281.355C371.523 281 371.497 280.677 371.468 280.374C371.418 279.798 371.371 279.296 371.336 278.875C371.383 279.322 371.427 279.818 371.474 280.317C371.477 280.333 371.477 280.35 371.474 280.366C371.474 280.366 371.474 280.386 371.474 280.395C371.471 280.413 371.471 280.431 371.474 280.449C371.474 280.467 371.474 280.475 371.474 280.481C371.471 280.524 371.471 280.568 371.474 280.611C371.471 280.627 371.471 280.644 371.474 280.66C371.471 280.669 371.471 280.679 371.474 280.689C371.474 280.715 371.474 280.738 371.474 280.764C371.474 280.79 371.474 280.824 371.474 280.853C371.474 280.882 371.474 280.931 371.474 280.971C371.471 280.987 371.471 281.002 371.474 281.017C371.474 281.058 371.474 281.095 371.474 281.136C371.477 281.184 371.477 281.232 371.474 281.28V281.3C371.474 281.3 371.474 281.329 371.474 281.346C371.474 281.346 371.474 281.326 371.474 281.314C371.497 281.314 371.518 281.34 371.544 281.349L371.588 281.369C372.325 281.718 372.641 281.807 373.495 282.154L373.588 282.194C374.562 282.598 376.2 283.284 377.285 283.745C378.371 284.206 379.333 284.61 380.427 285.08C384.185 286.617 378.218 284.241 384.185 286.663C385.355 287.133 385.841 287.338 385.981 287.401C385.896 287.378 385.715 287.309 385.551 287.248L393.235 290.311C408.359 296.322 443.313 307.936 463.211 312.443C463.624 312.607 463.86 312.703 463.992 312.752H463.963C465.185 313.08 466.771 313.507 467.788 313.755C470.076 314.31 472.464 314.324 474.758 313.795C478.414 313.02 481.541 310.794 484.334 308.836C487.127 306.878 489.918 302.406 490.441 300.422C490.488 300.252 490.523 300.134 490.549 300.01C490.549 300.01 490.549 300.01 490.549 299.99C490.556 299.961 490.565 299.933 490.576 299.906C491.003 298.672 491.544 297.484 492.018 296.322C492.492 295.16 492.24 295.616 492.878 294.22C493.515 292.825 492.904 293.58 494.34 290.76C495.776 287.94 500.114 280.014 502.106 276.274C502.29 275.925 502.398 275.752 502.462 275.617C519.286 244.333 528.101 217.339 530.579 181.873C528.605 181.647 526.616 181.416 524.609 181.181ZM384.363 438.506C384.367 438.518 384.367 438.529 384.363 438.541C384.366 438.576 384.366 438.612 384.363 438.648V438.685C384.364 438.692 384.364 438.698 384.363 438.705V438.76C384.363 438.74 384.363 438.717 384.363 438.685C384.363 438.653 384.363 438.596 384.363 438.541V438.506ZM384.328 438.08C384.331 438.089 384.331 438.099 384.328 438.108V438.18C384.328 438.14 384.328 438.094 384.328 438.051C384.331 438.06 384.331 438.07 384.328 438.08ZM371.096 277.188C371.092 277.138 371.092 277.088 371.096 277.038C371.073 277.073 371.091 277.128 371.096 277.194V277.188ZM384.375 438.642V438.679C384.376 438.686 384.376 438.693 384.375 438.699C384.376 438.682 384.376 438.665 384.375 438.648V438.642Z" fill="#4052F2"/>
<path d="M308.483 197.556C307.368 203.663 300.293 218.359 296.198 220.969C291.399 224.04 290.085 222.284 287.348 224.913C283.782 228.336 272.516 222.07 272.364 221.716C267.222 209.859 271.287 229.702 270.477 231.877C269.998 233.16 264.005 219.109 263.197 216.058C262.39 213.008 260.743 209.234 259.886 205.756C259.351 203.579 258.798 201.5 258.322 199.015C257.93 196.997 257.251 193.984 256.783 191.807C257.661 191.158 258.175 190.235 259.141 189.719C259.141 189.719 259.17 189.719 259.179 189.719L260.217 188.459C260.176 188.398 260.085 188.427 260.033 188.396C261.366 185.953 262.279 182.793 262.685 180.204C263.04 177.86 263.181 175.489 263.107 173.12C263.072 170.729 262.887 168.526 262.694 166.234C262.045 158.53 261.092 150.952 261.2 143.234C262.724 143.496 265.368 144.061 266.757 144.329C271.516 145.249 302.65 151.396 300.176 155.802C297.316 160.894 294.601 165.727 294.78 171.871C294.821 173.336 294.809 174.391 295.072 175.787C295.333 177.18 295.699 178.551 296.169 179.89C296.312 180.293 296.461 180.697 296.631 181.089C297.764 183.695 299.16 186.181 300.799 188.511C301.375 189.342 302.009 190.132 302.697 190.875C304.407 192.721 306.442 194.248 308.702 195.382C308.725 195.382 308.731 195.319 308.778 195.408C309.167 196.135 308.696 196.377 308.483 197.556Z" fill="#FFCAE1"/>
<path d="M319.354 120.135C313.241 120.043 308.514 124.561 308.415 130.59C308.315 136.619 312.896 141.259 319.011 141.365C325.127 141.472 329.848 136.936 329.947 130.91C330.047 124.884 325.469 120.224 319.354 120.135Z" fill="#FDB2D0"/>
<path d="M256.95 129.817C256.868 135.166 253.422 138.528 248.508 140.197C248.481 140.207 248.452 140.214 248.424 140.218C247.61 140.319 246.797 140.538 245.937 140.434C239.795 139.687 235.358 135.82 235.341 129.515C235.341 124.016 239.012 120.648 244.013 119.097C244.765 118.903 245.545 118.833 246.321 118.889C247.172 118.866 248.021 118.979 248.836 119.224C253.706 120.954 257.031 124.466 256.95 129.817Z" fill="#FDB2D0"/>
<path d="M324.048 105.15C323.987 109.726 323.872 116.45 323.805 120.778C323.738 125.106 323.644 130.705 323.595 133.77C323.545 136.835 323.519 138.911 323.495 140.319C323.472 141.726 323.495 141.351 323.472 141.602C322.629 159.092 313.01 173.933 296.168 179.893C295.704 178.547 295.339 177.17 295.075 175.772C287.409 175.772 279.889 177.13 272.419 178.725C272.337 178.696 272.264 178.664 272.185 178.63C271.846 178.485 271.509 178.341 271.176 178.183C271.176 178.183 271.158 178.183 271.155 178.183C271.152 178.183 271.155 178.183 271.155 178.183C269.254 175.172 265.747 175.276 263.133 173.01C254.066 165.15 249.409 154.793 248.529 142.873C248.473 142.112 248.497 141.599 248.5 140.31C248.5 140.163 248.462 142.141 248.514 139.275C248.567 136.409 248.725 123.915 248.83 119.328C248.935 114.74 248.921 107.846 249.087 104.127C250.044 82.5275 265.004 64.8467 287.166 64.1836C289.047 64.142 290.926 64.3357 292.758 64.7602C299.649 66.2019 305.291 69.042 310.585 73.5862C312.774 75.4731 314.702 77.6348 316.321 80.0161C320.047 85.3762 322.27 91.2611 323.53 97.6853C323.641 98.2619 323.706 98.8213 323.77 99.4585C323.984 101.348 324.077 103.249 324.048 105.15Z" fill="#FFCAE1"/>
<path d="M329.377 93.9743C327.233 96.4021 324.074 98.53 323.071 100.606C313.893 90.7046 307.798 90.0674 289.801 92.0886C271.805 94.1099 312.825 67.8685 323.29 70.9306C333.755 73.9927 330.839 86.5814 329.377 93.9743Z" fill="#0600A0"/>
<g opacity="0.35">
<path opacity="0.35" d="M329.377 93.9743C327.233 96.4021 324.074 98.53 323.071 100.606C313.893 90.7046 307.798 90.0674 289.801 92.0886C271.805 94.1098 312.825 67.8684 323.29 70.9305C333.755 73.9927 330.839 86.5814 329.377 93.9743Z" fill="black"/>
</g>
<path d="M337.371 88.6604C334.396 100.318 329.436 111.061 326.432 122.664C325.135 127.681 324.306 132.805 323.958 137.972C323.841 136.697 323.706 135.426 323.592 134.148C323.185 129.595 322.776 125.051 322.574 120.478C322.243 113.649 322.449 106.804 323.191 100.006C323.221 99.7498 323.259 99.496 323.294 99.2394C323.364 98.7118 323.446 98.2014 323.534 97.6709C324.021 94.5957 325.008 91.6183 326.458 88.8536C327.842 86.2182 329.383 83.3464 327.064 80.7196C324.32 77.5998 319.901 78.8829 316.356 79.9556C315.979 80.068 315.634 80.192 315.306 80.3189C309.509 82.5275 304.402 85.5867 299.102 88.793C296.92 90.054 294.604 91.077 292.197 91.8436H292.179C285.16 93.7697 278.035 94.5482 270.808 94.5655C275.054 82.9167 282.782 72.0234 292.618 64.9275C302.089 58.094 310.395 55.4903 321.15 52.4858C328.898 56.2025 335.324 61.2656 337.968 69.5466C340.035 76.0428 338.974 82.3805 337.371 88.6604Z" fill="#03008D"/>
<path opacity="0.26" d="M273.691 304.456C270.985 282.848 262.433 260.773 258.692 239.096C260.278 234.397 262.764 229.757 264.82 225.112C269.5 224.783 276.449 225.037 280.582 224.567C284.715 224.097 286.016 222.903 289.611 222.298C293.15 228.61 296.882 234.985 300.497 241.302C294.685 236.836 288.262 231.787 280.807 230.755C273.901 232.793 268.216 237.015 267.104 243.73C270.672 262.437 277.745 278.414 276.829 298.854C275.914 319.294 274.832 346.974 274.911 368.986C273.314 347.833 276.396 326.078 273.691 304.471V304.456Z" fill="#342DEC"/>
<path d="M318.781 198.905C316.4 208.87 306.596 231.551 302.843 238.329C299.091 245.108 303.923 239.93 299.725 239.393C295.528 238.857 285.958 227.197 280.781 224.631C287.874 215.19 295.566 206.321 302.685 197.219C304.039 195.489 303.82 194.465 303.396 192.576C303.235 191.858 302.662 191.028 302.457 190.252C308.082 191.879 313.864 195.249 318.781 198.905Z" fill="#9A9A9A"/>
<path d="M260.222 188.45C259.874 188.871 259.526 189.289 259.181 189.71H259.143C259.459 189.292 259.752 188.857 260.02 188.407C260.087 188.401 260.175 188.398 260.222 188.45Z" fill="#9A9A9A"/>
<path d="M280.749 224.524C277.605 226.34 273.551 229.587 270.612 231.34C267.886 232.963 261.96 239.269 260.34 239.05C256.97 238.6 260.372 243.736 257.269 237.969C254.165 232.202 247.617 216.056 243.861 207.717C243.145 206.143 241.688 202.458 241.115 201.085C240.208 198.911 239.48 197.38 239.041 195.275C239.442 194.987 239.333 194.889 239.88 194.609C246.186 191.422 252.999 189.325 260.024 188.41C259.758 188.861 259.465 189.297 259.146 189.713H259.181C259.181 189.713 259.155 189.739 259.152 189.751C258.497 191.316 258.877 192.709 259.837 194.113C261.006 195.843 263.115 198.856 264.034 200.217C264.952 201.578 263.583 199.551 264.49 200.88C265.397 202.21 262.972 198.663 265.514 202.368C268.055 206.073 277.037 219.017 280.749 224.524Z" fill="#9A9A9A"/>
<path d="M317.687 197.201C316.853 196.587 315.747 196.319 314.908 198.62C304.379 227.537 288.058 263.766 280.541 292.421C272.322 323.757 272.823 367.965 273.899 398.454C281.974 374.966 293.361 336.828 304.317 318.452C315.274 300.076 317.979 296.394 327.616 280.343C326.154 279.478 328.786 280.461 326.411 277.961C324.036 275.461 317.163 268.1 314.148 264.94C319.79 261.933 332.223 263.905 336.695 259.395C341.167 254.886 335.99 213.181 334.215 205.589C332.79 199.491 321.524 200.018 317.687 197.201Z" fill="#342DEC"/>
<path d="M371.54 282.041V282.085C371.54 282.085 371.407 282.053 371.419 282.009C371.431 281.966 371.528 282.027 371.54 282.041Z" fill="#342DEC"/>
<path d="M321.109 52.4801C310.421 55.4903 302.077 58.0911 292.609 64.9246C282.779 72.0206 275.06 82.9139 270.801 94.5626C266.769 94.6279 262.736 94.4508 258.725 94.0321C260.772 104.53 263.697 140.742 248.523 142.902C248.47 142.902 248.429 142.827 248.38 142.991C248.403 140.768 248.4 142.893 248.432 139.658C248.465 136.423 248.725 128.647 248.693 124.12C248.675 121.525 247.069 119.149 244.013 119.077C244.013 119.077 244.013 119.051 243.963 119.051C240.746 111.188 236.786 103.192 237.482 94.6001C238.067 87.2937 243.601 82.7437 246.338 76.3485C247.508 73.5805 247.315 70.4981 248.947 67.8541C252.834 61.5511 258.453 58.5899 265.861 58.0248C270.064 57.7047 273.954 58.4227 278.175 58.2295C285.651 57.8892 292.015 55.9228 298.971 52.9212C306.286 49.7582 313.489 50.0898 321.109 52.4801Z" fill="#0600A0"/>
<path d="M321.109 52.4801C310.421 55.4903 302.077 58.0911 292.609 64.9246C282.779 72.0206 275.06 82.9139 270.801 94.5626C266.769 94.6279 262.736 94.4508 258.725 94.0321C260.772 104.53 263.697 140.742 248.523 142.902C248.47 142.902 248.429 142.827 248.38 142.991C248.403 140.768 248.4 142.893 248.432 139.658C248.465 136.423 248.725 128.647 248.693 124.12C248.675 121.525 247.069 119.149 244.013 119.077C244.013 119.077 244.013 119.051 243.963 119.051C240.746 111.188 236.786 103.192 237.482 94.6001C238.067 87.2937 243.601 82.7437 246.338 76.3485C247.508 73.5805 247.315 70.4981 248.947 67.8541C252.834 61.5511 258.453 58.5899 265.861 58.0248C270.064 57.7047 273.954 58.4227 278.175 58.2295C285.651 57.8892 292.015 55.9228 298.971 52.9212C306.286 49.7582 313.489 50.0898 321.109 52.4801Z" fill="#0600A0"/>
<path d="M248.693 124.169C248.725 129.515 248.468 134.837 248.432 140.206C247.605 140.301 246.797 140.526 245.938 140.419C239.795 139.664 235.364 135.829 235.338 129.497C235.318 123.987 239.035 120.671 244.004 119.06C247.081 119.472 248.672 121.095 248.693 124.169Z" fill="#FDB2D0"/>
<path d="M180.19 298.695L170.494 311.252L175.531 296.864C177.13 297.353 178.688 297.965 180.19 298.695Z" fill="#4052F2"/>
<path opacity="0.5" d="M151.62 464.234L153.799 464.321C153.053 464.342 152.309 464.408 151.57 464.517C151.585 464.425 151.605 464.329 151.62 464.234Z" fill="#0600A0"/>
<path opacity="0.5" d="M158.412 464.537C158.623 464.549 158.833 464.571 159.041 464.603C158.836 464.575 158.623 464.575 158.412 464.537Z" fill="#0600A0"/>
<path opacity="0.5" d="M204.393 351.962C201.401 381.122 182.603 434.011 169.391 464.007H151.661C152.603 458.678 153.521 453.485 154.419 448.353C155.972 439.466 157.484 430.764 159.032 421.91C159.032 421.835 159.052 421.765 159.067 421.691C160.877 411.293 162.732 400.674 164.753 389.279C164.753 389.236 164.767 389.195 164.779 389.149C165.101 387.341 165.422 385.502 165.756 383.633C165.782 383.509 165.803 383.379 165.826 383.25C165.902 382.808 165.984 382.367 166.063 381.92C166.11 381.649 166.16 381.381 166.209 381.11C166.426 379.882 166.648 378.632 166.876 377.362C167.002 376.65 167.134 375.92 167.259 375.219C167.372 374.576 167.488 373.926 167.607 373.27C167.824 372.054 168.044 370.821 168.268 369.574C168.438 368.614 168.611 367.651 168.786 366.691C169.88 360.529 171.024 354.102 172.17 347.707C172.205 347.528 172.234 347.343 172.27 347.164C172.325 346.876 172.381 346.559 172.43 346.256C172.465 346.06 172.501 345.861 172.533 345.68C172.582 345.391 172.632 345.103 172.688 344.815C172.819 344.088 172.945 343.373 173.077 342.646C173.173 342.09 173.267 341.539 173.369 340.991C173.536 340.048 173.706 339.108 173.866 338.166C173.899 338.016 173.922 337.877 173.948 337.722C174.01 337.37 174.068 337.021 174.136 336.672C174.487 334.715 174.835 332.761 175.18 330.81C175.349 329.856 175.516 328.896 175.689 327.927C175.861 326.958 176.019 326.038 176.186 325.11C176.332 324.305 176.478 323.498 176.619 322.693C176.715 322.117 176.818 321.557 176.911 320.995C177.057 320.179 177.204 319.381 177.341 318.585C177.379 318.36 177.42 318.141 177.461 317.924C177.511 317.616 177.566 317.313 177.616 317.005C177.683 316.621 177.754 316.243 177.818 315.866C177.97 314.986 178.128 314.136 178.277 313.271C178.368 312.757 178.458 312.256 178.546 311.754C178.611 311.382 178.675 311.01 178.742 310.641C179.423 306.77 180.087 302.978 180.734 299.266L180.769 299.295C185.033 303.214 186.034 299.431 190.257 305.192C190.342 305.31 190.433 305.428 190.523 305.558C201.62 321.168 207.028 326.237 204.393 351.962Z" fill="#0600A0"/>
<path d="M285.558 181.429H285.35C280.914 181.261 276.54 180.346 272.416 178.725C272.37 178.725 272.206 178.791 272.182 178.768C272.159 178.745 272.182 178.679 272.182 178.627C273.206 163.962 267.166 150.269 266.116 135.78C265.101 121.793 266.409 107.987 270.752 94.6087C266.737 94.6164 262.724 94.4239 258.728 94.032C260.776 104.53 263.7 140.742 248.526 142.899C249.404 154.822 254.084 165.04 263.121 173.073C263.107 175.599 263.121 177.56 262.688 180.189C262.256 182.819 261.378 185.919 260.033 188.39C260.082 188.421 260.191 188.39 260.214 188.462C259.986 188.75 259.366 189.477 259.225 189.656C259.085 189.834 259.161 189.716 259.158 189.728C258.547 191.429 258.787 192.559 259.848 194.133C261.156 196.074 262.823 198.386 264.148 200.405C266.426 197.369 267.748 193.958 269.436 190.601C271.124 187.245 272.996 185.561 277.19 185.08C283.402 184.368 290.351 182.958 296.151 179.864C292.711 180.866 289.145 181.393 285.558 181.429Z" fill="#FDB2D0"/>
<path d="M247.9 212.699C247.947 212.921 248.002 213.158 248.061 213.383C247.306 213.556 246.394 213.907 245.604 213.749C245.589 213.749 245.645 213.818 245.578 213.732C245.51 213.645 245.502 213.553 245.75 213.282C246.315 212.671 247.037 211.647 247.602 210.912C247.681 211.503 247.774 212.102 247.9 212.699Z" fill="#4052F2"/>
<path d="M181.424 295.671C181.433 295.61 181.454 295.555 181.454 295.501C181.459 295.476 181.464 295.452 181.47 295.427C181.475 295.403 181.48 295.378 181.486 295.354C181.483 295.369 181.481 295.384 181.478 295.4C181.483 295.385 181.488 295.369 181.494 295.354C181.48 295.446 181.459 295.555 181.433 295.671C181.436 295.647 181.442 295.625 181.447 295.602C181.455 295.568 181.462 295.534 181.462 295.501H181.46C181.45 295.555 181.438 295.612 181.424 295.671Z" fill="#4052F2"/>
<path d="M69.0727 444.778C69.0639 444.82 69.0551 444.862 69.0463 444.903C68.7435 446.387 68.7709 447.919 69.1273 449.393C69.4939 450.908 70.1989 452.323 71.1912 453.535C72.1834 454.747 73.4377 455.726 74.8625 456.399C76.2873 457.072 77.8466 457.424 79.4266 457.427L79.0289 457.447C77.5154 457.525 76.004 457.258 74.6121 456.667C73.2202 456.076 71.9852 455.177 71.0032 454.039C70.0212 452.901 69.3185 451.555 68.9497 450.106C68.5809 448.657 68.5559 447.143 68.8768 445.683C68.9324 445.426 68.9901 445.168 69.0463 444.903C69.0548 444.861 69.0636 444.819 69.0727 444.778Z" fill="#4052F2"/>
<path d="M93.1997 456.856C91.4331 456.908 89.6723 456.968 87.9174 457.038C90.4191 456.926 92.9189 456.806 95.4167 456.677L95.3728 456.793C94.6826 456.81 93.9865 456.83 93.2962 456.856H93.1997Z" fill="#4052F2"/>
<path d="M89.3711 376.745C91.4619 378.091 93.2645 379.829 94.6767 381.86C95.8834 383.598 96.7231 385.557 97.1456 387.621C97.5682 389.685 97.5651 391.812 97.1365 393.875C96.8375 395.46 96.2199 396.969 95.3202 398.315C91.8221 403.525 84.5129 404.892 77.7566 405.235C79.7981 395.893 82.214 384.864 84.5539 374.15C86.2211 374.899 87.831 375.766 89.3711 376.745Z" fill="#4052F2"/>
<path d="M100.149 444.564C100.205 444.406 100.26 444.267 100.322 444.117H100.313C100.646 443.258 100.994 442.373 101.375 441.43C101.129 442.082 100.831 442.831 100.477 443.737C100.368 444.025 100.257 444.302 100.149 444.564Z" fill="#4052F2"/>
<path opacity="0.5" d="M270.511 404.393C270.471 404.76 270.541 405.296 270.178 404.661C264.036 380.756 254.922 339.933 245.071 320.361C235.22 300.789 232.623 296.567 223.942 279.435C225.533 278.621 222.714 279.461 225.376 277.053C228.037 274.645 235.536 267.538 239.122 264.516C231.936 260.909 222.451 262.368 215.873 256.939C212.775 254.384 217.487 236.53 217.499 231.565C217.499 230.631 218.303 225.772 218.376 224.412C221.053 223.258 223.664 222.439 226.317 221.419C224.785 219.276 223.992 216.941 223.369 214.395C223.293 214.078 223.217 213.651 223.147 213.316C223.77 208.579 224.381 203.847 225.092 199.122C229.95 197.821 234.908 196.76 239.818 195.789C240.034 195.723 240.255 195.679 240.479 195.656C242.138 195.639 243.287 195.962 243.91 197.772C244.615 199.828 245.276 202.536 245.958 204.736C245.958 204.756 245.972 204.802 245.981 204.836C246.273 205.975 246.513 206.887 246.82 208.083C247.443 210.514 248.119 213.149 248.762 215.617C248.85 215.586 248.976 215.421 249.055 215.413C249.134 215.404 249.096 215.539 249.116 215.588C249.137 215.637 249.116 215.609 249.14 215.638C253.115 229.616 256.926 241.876 260.933 256.818C260.933 256.818 260.397 250.947 261.17 258.522C261.942 266.096 269.567 284.299 271.793 296.472C277.157 325.81 273.831 374.326 270.511 404.393Z" fill="#0600A0"/>
<path d="M272.506 395.784C272.465 396.138 272.55 396.669 272.19 396.049C266.227 372.916 257.405 333.446 247.914 314.513C238.423 295.581 235.855 291.447 227.481 274.905C229.011 274.112 226.288 274.931 228.859 272.598C231.43 270.265 238.695 263.406 242.155 260.468C235.203 256.991 226.028 258.375 219.66 253.144C216.657 250.676 221.225 233.373 221.231 228.595C221.231 227.877 221.781 224.466 221.939 222.935C222.182 220.582 222.693 217.076 222.995 214.553C223.039 214.17 223.112 213.602 223.15 213.334C223.793 208.657 224.375 203.614 225.109 199.205C225.221 198.539 224.969 198.848 225.229 198.655C229.649 195.368 237.514 195.082 242.834 193.972C243.041 193.909 243.253 193.868 243.469 193.848C245.054 193.848 246.183 194.136 246.782 195.898C247.458 197.885 248.102 200.511 248.774 202.628C248.774 202.651 248.774 202.697 248.798 202.729C249.075 203.819 249.315 204.747 249.611 205.869C250.055 207.599 250.523 209.438 250.982 211.214C251.137 211.814 251.33 212.544 251.491 213.158C251.564 213.138 251.714 212.959 251.766 212.965C251.819 212.97 251.804 213.083 251.828 213.132C251.851 213.181 251.842 213.149 251.848 213.178C255.697 226.698 259.386 238.551 263.255 253.011C263.255 253.011 262.74 247.343 263.486 254.664C264.232 261.984 271.617 279.619 273.764 291.377C278.941 319.767 275.724 366.699 272.506 395.784Z" fill="#342DEC"/>
<path d="M251.758 212.947L251.465 213.164C250.568 209.686 249.671 206.208 248.774 202.729C249.777 206.135 250.771 209.541 251.758 212.947Z" fill="#342DEC"/>
<path d="M225.572 198.94C217.622 201.267 232.299 196.953 219.889 200.581C207.479 204.208 179.234 212.221 163.197 216.987C160.389 217.798 157.801 219.217 155.622 221.142C153.443 223.066 151.728 225.446 150.603 228.108C146.429 236.115 142.381 244.013 138.257 251.974C151.445 227.941 198.971 222.78 223.369 214.401C223.279 214.04 223.235 213.668 223.127 213.316C224.06 208.478 223.779 203.992 225.572 198.94Z" fill="#4052F2"/>
<path d="M264.902 201.466C259.74 202.795 254.694 204.349 249.602 205.848C249.333 204.813 249.061 203.767 248.795 202.732C248.795 202.7 248.777 202.651 248.772 202.628C248.099 200.503 247.458 197.885 246.78 195.898C246.177 194.145 245.06 193.834 243.463 193.848C243.246 193.872 243.032 193.915 242.822 193.975C241.881 194.139 240.901 194.364 239.953 194.552C246.253 191.409 253.043 189.331 260.041 188.404C259.774 188.855 259.481 189.29 259.163 189.707H259.199C259.199 189.707 259.175 189.733 259.169 189.745C258.497 191.285 258.918 192.738 259.848 194.102C260.994 195.783 263.203 198.949 264.042 200.2C264.881 201.451 264.317 200.609 264.902 201.466Z" fill="#9A9A9A"/>
<path opacity="0.2" d="M264.408 200.774C260.011 204.385 255.433 207.776 250.691 210.935L241.062 200.961C240.331 199.136 239.404 197.213 239.047 195.272C239.439 194.949 239.339 194.877 239.883 194.595C246.19 191.41 253.004 189.316 260.03 188.404C259.763 188.855 259.47 189.29 259.152 189.707C259.152 189.707 259.187 189.707 259.184 189.707C259.176 189.721 259.168 189.735 259.158 189.748C258.471 191.267 258.921 192.764 259.831 194.099C260.951 195.742 263.241 199.029 264.004 200.174C264.768 201.319 263.943 200.082 264.408 200.774Z" fill="#342DEC"/>
<path d="M250.96 211.203C241.451 215.591 231.729 219.4 221.901 223.025C222.249 220.219 222.621 217.318 222.978 214.55C223.03 214.132 223.092 213.61 223.13 213.339C223.779 208.648 224.355 203.62 225.092 199.211C225.203 198.545 224.952 198.853 225.209 198.66C229.632 195.37 237.511 195.088 242.817 193.978C243.023 193.915 243.236 193.873 243.452 193.854C245.037 193.854 246.166 194.142 246.765 195.904C247.441 197.89 248.084 200.517 248.757 202.634C248.757 202.657 248.757 202.703 248.781 202.734C249.058 203.821 249.301 204.753 249.594 205.874C250.032 207.576 250.512 209.458 250.96 211.203Z" fill="#0600A0"/>
<path opacity="0.5" d="M226.294 221.419C223.656 222.38 221.017 223.349 218.377 224.325C218.669 221.926 219 219.423 219.301 217.053C219.357 216.624 219.424 216.079 219.462 215.802C220.111 210.949 220.761 205.753 221.474 201.189C221.583 200.506 221.474 200.814 221.574 200.63C222.173 199.545 224.11 199.476 225.084 199.113C224.376 203.85 223.762 208.573 223.139 213.313C223.209 213.648 223.285 214.072 223.361 214.392C223.981 216.941 224.774 219.27 226.294 221.419Z" fill="#0600A0"/>
<path opacity="0.5" d="M225.107 199.076C225.192 199.047 225.282 199.015 225.373 198.992C225.344 199 225.315 199.012 225.288 199.027L225.218 199.047C225.218 199.047 225.201 199.047 225.198 199.047C225.178 199.051 225.16 199.058 225.142 199.067H225.107C225.072 199.081 225.072 199.081 225.037 199.096C225.005 199.096 225.01 199.11 225.037 199.096H225.081L224.891 199.153C224.788 199.188 224.677 199.214 224.566 199.243L224.232 199.324L224.572 199.214C224.596 199.209 224.619 199.202 224.642 199.194C224.677 199.184 224.711 199.173 224.744 199.159C224.744 199.159 224.744 199.159 224.779 199.159L224.926 199.113C224.984 199.11 225.046 199.096 225.107 199.076Z" fill="#0600A0"/>
<path opacity="0.5" d="M225.57 198.926L225.429 198.979L225.57 198.926Z" fill="#0600A0"/>
<path opacity="0.5" d="M190.026 306.832C186.473 329.936 178.459 368.472 164.747 389.296C169.178 364.545 176.622 322.618 180.249 302.265C183.875 281.911 178.836 310.136 181.258 296.616C180.553 298.923 180.638 297.914 180.164 298.681C179.714 299.426 179.159 300.106 178.517 300.699C180.009 300.022 186.508 278.719 191.038 285.602C192.98 288.537 191.723 295.789 190.026 306.832Z" fill="#0600A0"/>
<path opacity="0.5" d="M384.218 436.581V436.606C384.216 436.595 384.216 436.585 384.218 436.574V436.581Z" fill="#0600A0"/>
<g opacity="0.5">
<path d="M384.572 438.792V438.751C384.574 438.767 384.574 438.783 384.573 438.798C384.573 438.802 384.573 438.805 384.572 438.809C384.572 438.805 384.573 438.802 384.573 438.798C384.573 438.796 384.572 438.794 384.572 438.792Z" fill="#0600A0"/>
<path d="M384.481 437.196C384.479 437.166 384.478 437.145 384.478 437.131C384.478 437.102 384.478 437.027 384.463 436.981V436.949V436.796C384.464 436.795 384.464 436.794 384.464 436.793C384.464 436.779 384.463 436.766 384.463 436.753C384.466 436.766 384.466 436.78 384.464 436.793C384.468 436.908 384.485 437.058 384.496 437.2C384.496 437.249 384.496 437.31 384.51 437.364C384.522 437.409 384.515 437.44 384.511 437.469C384.511 437.476 384.51 437.482 384.51 437.488V437.604C384.516 437.668 384.516 437.733 384.51 437.797C384.513 437.76 384.513 437.724 384.51 437.687V437.604C384.51 437.483 384.49 437.356 384.481 437.215C384.481 437.208 384.481 437.202 384.481 437.196Z" fill="#0600A0"/>
</g>
<path opacity="0.5" d="M466.528 253.36C462.98 259.47 458.865 266.699 460.328 273.884L466.528 253.36Z" fill="#0600A0"/>
<path opacity="0.5" d="M269.523 409.713C269.497 412.181 268.552 416.195 265.464 416.166C262.375 416.137 261.512 412.104 261.539 409.638C261.565 407.173 262.51 403.157 265.601 403.185C268.693 403.214 269.55 407.245 269.523 409.713Z" fill="#0600A0"/>
<path opacity="0.5" d="M269.336 427.408C269.31 429.873 268.365 433.89 265.273 433.861C262.182 433.832 261.325 429.798 261.351 427.33C261.377 424.862 262.322 420.849 265.414 420.88C268.505 420.912 269.362 424.94 269.336 427.408Z" fill="#0600A0"/>
<path d="M237.09 463.511H32.7086C32.4161 463.398 32.147 463.283 31.8692 463.162C28.8946 461.899 26.2009 460.224 24.2061 457.802C23.9137 457.43 23.6212 457.049 23.3521 456.648C20.5969 452.516 20.5091 447.439 21.6761 442.624C22.262 440.278 23.0973 438 24.1681 435.828C24.4079 435.329 24.6624 434.841 24.9168 434.371C27.2737 430.015 30.5356 426.197 34.4898 423.167C34.5075 423.146 34.5282 423.129 34.5513 423.115C36.6701 421.498 38.9885 420.153 41.4509 419.113C48.2599 416.247 55.8645 416.189 63.3872 416.492C67.1485 416.642 70.8923 416.884 74.5015 416.904C76.1248 416.904 77.944 416.904 79.8218 416.82C78.997 420.569 78.2512 423.986 77.6165 426.854C74.6215 440.424 76.1687 433.486 74.3992 441.56C74.3202 441.917 74.2441 442.266 74.1681 442.601C73.6943 444.757 73.3141 446.482 72.9748 448.03C72.9426 448.183 72.9104 448.318 72.8782 448.477C72.8782 448.477 72.8782 448.477 72.8782 448.497C72.614 449.717 72.6294 450.981 72.9234 452.195C73.2174 453.408 73.7826 454.542 74.5777 455.513C75.3728 456.485 76.3778 457.268 77.5193 457.808C78.6608 458.347 79.9101 458.629 81.176 458.632H81.2755C83.4554 458.52 85.6295 458.424 87.7978 458.344H87.9791C89.9817 458.251 91.9852 458.155 93.9897 458.055C94.1827 457.554 94.3728 457.066 94.5571 456.614C94.6653 456.325 94.7735 456.054 94.8788 455.786C94.9081 455.708 94.9344 455.636 94.9666 455.561C95.0397 455.371 95.1128 455.181 95.1889 454.985C95.2649 454.788 95.3234 454.633 95.3907 454.463C95.6627 453.768 95.9347 453.087 96.2038 452.389C96.2769 452.208 96.3441 452.029 96.4143 451.845C96.5313 451.556 96.6454 451.268 96.7566 450.98C96.8297 450.792 96.9057 450.593 96.9906 450.383C97.0403 450.267 97.0842 450.143 97.128 450.025C97.2099 449.82 97.2918 449.619 97.3708 449.408C97.4497 449.198 97.5492 448.953 97.6369 448.719C97.6837 448.604 97.7276 448.488 97.7744 448.367C97.8212 448.246 97.8651 448.128 97.9119 448.01C98.181 447.321 98.4588 446.6 98.7571 445.856L98.842 445.64C98.9473 445.351 99.0613 445.086 99.1695 444.806C99.2047 444.708 99.2456 444.607 99.2866 444.518C99.4065 444.201 99.5322 443.884 99.658 443.564C99.6902 443.486 99.7223 443.405 99.7516 443.321C100.217 442.122 100.676 440.92 101.819 438.002L101.945 437.681C102.369 436.603 102.878 435.294 103.513 433.685C107.561 423.377 115.616 402.493 120.579 390.02C123.144 383.452 126.635 377.273 130.951 371.667C136.166 364.764 144.905 353.542 150.512 346.294C153.59 346.306 156.656 346.668 159.649 347.372C162.456 348.03 165.146 349.1 167.631 350.544C176.511 355.777 180.263 365.393 176.859 376.799C175.73 380.571 174.771 384.585 174.712 388.529C174.674 391.164 175.449 393.918 177.096 395.936C178.202 397.319 179.747 398.297 181.483 398.713C186.812 399.999 189.088 395.475 193.492 393.961C197.254 392.678 201.15 392.946 204.929 394.039C208.568 395.099 211.829 397.152 214.335 399.961C218.807 404.976 220.503 412.072 217.02 418.574C215.865 420.631 214.479 422.552 212.887 424.303C212.094 425.214 211.278 426.108 210.462 427.002C208.342 429.331 203.112 434.103 205.762 437.575C206.64 438.728 208.046 439.377 209.43 439.882C210.249 440.17 211.082 440.435 211.919 440.663C215.788 441.736 219.816 442.249 223.726 443.258C228.114 444.397 232.545 446.357 235.323 449.852C235.546 450.126 235.762 450.414 235.958 450.717C238.552 454.572 238.365 459.165 237.09 463.511Z" fill="#F2F5FA"/>
<path d="M120.941 458.73C120.941 458.73 129.657 441.061 137.122 420.508C141.357 408.851 148.017 379.536 149.625 368.723" stroke="#C3D1FF" stroke-width="6" stroke-linecap="round" stroke-linejoin="round"/>
<path d="M197.701 414.923C194.379 424.568 146.976 430.427 130.234 438.42" stroke="#C3D1FF" stroke-width="6" stroke-linecap="round" stroke-linejoin="round"/>
<path d="M219.111 455.146C219.111 455.146 192.202 448.514 159.321 430.061" stroke="#C3D1FF" stroke-width="6" stroke-linecap="round" stroke-linejoin="round"/>
<path d="M98.3359 382.007C98.3359 382.007 140.263 400.057 138.076 417.844" stroke="#C3D1FF" stroke-width="6" stroke-linecap="round" stroke-linejoin="round"/>
<path d="M386.502 464.159C386.482 463.946 386.461 463.727 386.44 463.511C386.461 463.727 386.482 463.946 386.502 464.159Z" fill="#F2F5FA"/>
<path d="M386.766 467.17C386.745 466.951 386.725 466.731 386.71 466.512C386.731 466.737 386.748 466.959 386.769 467.19C386.795 467.478 386.822 467.749 386.842 467.997C386.816 467.746 386.789 467.458 386.766 467.17Z" fill="#F2F5FA"/>
<path d="M386.841 468.011C386.87 468.329 386.894 468.614 386.914 468.876C386.891 468.611 386.867 468.323 386.841 468.011Z" fill="#F2F5FA"/>
<path d="M151.662 463.998C151.662 464.073 151.639 464.148 151.621 464.226H151.255L151.299 464.007L151.662 463.998Z" fill="#4052F2"/>
<path d="M151.62 464.234L153.799 464.321C153.053 464.342 152.309 464.408 151.57 464.517C151.585 464.425 151.605 464.329 151.62 464.234Z" fill="#4052F2"/>
<path d="M158.105 464.514C157.403 464.468 156.184 464.413 153.806 464.321C155.242 464.294 156.678 464.359 158.105 464.514Z" fill="#4052F2"/>
<path d="M158.412 464.537C158.623 464.549 158.833 464.571 159.041 464.603C158.836 464.575 158.623 464.575 158.412 464.537Z" fill="#4052F2"/>
<path d="M386.689 463.998V464.033C386.686 464.022 386.686 464.009 386.689 463.998Z" fill="#4052F2"/>
<path d="M350.831 462.13C347.23 454.659 343.709 447.153 340.661 439.458C332.296 418.34 327.646 394.44 335.499 373.141" stroke="#85A9FF" stroke-width="3" stroke-linecap="round" stroke-linejoin="round"/>
<path d="M335.803 360.581C336.438 359.695 337.315 358.796 338.415 358.822C339.515 358.848 340.392 359.86 340.623 360.924C340.854 361.988 340.6 363.092 340.345 364.15C339.822 366.327 336.912 380.75 333.22 374.85C330.851 371.067 333.525 363.761 335.803 360.581Z" fill="#85A9FF"/>
<path d="M317.952 394.305C317.028 393.742 316.042 392.967 315.838 391.998C315.633 391.029 316.358 390.236 317.265 390.026C318.172 389.815 319.207 390.026 320.207 390.256C322.255 390.712 335.767 393.235 331.254 396.545C328.371 398.661 321.269 396.314 317.952 394.305Z" fill="#85A9FF"/>
<path d="M344.42 443.829C343.51 443.598 342.495 443.206 342.08 442.448C341.665 441.689 342.053 440.862 342.747 440.458C343.44 440.055 344.355 439.98 345.242 439.91C347.058 439.769 358.874 438.469 355.999 442.333C354.151 444.815 347.675 444.659 344.42 443.829Z" fill="#85A9FF"/>
<path d="M328.304 439.247C327.426 439.126 326.444 438.864 325.964 438.203C325.484 437.543 325.771 436.724 326.373 436.277C326.976 435.83 327.821 435.666 328.64 435.51C330.319 435.19 341.194 432.742 338.927 436.664C337.479 439.155 331.433 439.683 328.304 439.247Z" fill="#85A9FF"/>
<path d="M316.497 379.516C315.268 378.161 314.265 376.096 315.327 374.614C315.988 373.689 317.269 373.357 318.407 373.513C319.544 373.668 320.58 374.225 321.586 374.773C325.277 376.791 329.035 378.827 331.946 381.834C335.596 385.605 327.43 384.968 325.552 384.585C322.063 383.889 318.891 382.113 316.497 379.516Z" fill="#85A9FF"/>
<path d="M318.324 417.288C316.823 416.624 315.244 415.31 315.554 413.718C315.75 412.726 316.668 411.988 317.651 411.717C318.634 411.446 319.681 411.515 320.702 411.596C324.445 411.899 328.257 412.219 331.737 413.614C336.098 415.367 329.222 417.786 327.555 418.15C324.463 418.836 321.23 418.534 318.324 417.288Z" fill="#85A9FF"/>
<path d="M340.74 397.828C342.425 397.796 344.127 397.77 345.713 398.073C347.298 398.376 348.772 399.045 349.515 400.14C349.625 400.276 349.685 400.445 349.685 400.619C349.652 400.971 349.228 401.253 348.831 401.461C346.128 402.874 342.802 403.28 339.843 402.903C337.038 402.508 334.349 401.541 331.945 400.062C327.877 397.638 339.366 397.854 340.74 397.828Z" fill="#85A9FF"/>
<path d="M341.018 387.774C342.706 387.774 344.417 387.774 346.016 388.157C347.616 388.541 349.123 389.311 349.909 390.542C350.025 390.698 350.09 390.885 350.097 391.078C350.076 391.47 349.661 391.776 349.269 391.998C346.607 393.509 343.285 393.889 340.298 393.402C337.312 392.915 334.633 391.635 332.281 390.066C328.096 387.281 339.637 387.774 341.018 387.774Z" fill="#85A9FF"/>
<path d="M344.662 430.147C345.849 430.199 347.051 430.257 348.186 430.609C349.321 430.96 350.406 431.644 351 432.676C351.087 432.809 351.137 432.962 351.146 433.12C351.146 433.437 350.854 433.674 350.593 433.844C348.768 434.997 346.443 435.208 344.328 434.709C342.214 434.21 340.289 433.091 338.587 431.742C335.557 429.354 343.688 430.104 344.662 430.147Z" fill="#85A9FF"/>
<path d="M343.203 419.857C344.681 419.97 346.144 420.223 347.573 420.612C348.933 421.036 350.146 421.751 350.655 422.734C350.735 422.856 350.766 423.004 350.74 423.147C350.664 423.435 350.249 423.617 349.863 423.743C347.274 424.608 344.27 424.565 341.7 423.925C339.305 423.302 337.063 422.21 335.107 420.713C331.831 418.268 341.98 419.727 343.203 419.857Z" fill="#85A9FF"/>
<path d="M331.749 403.891C330.56 402.997 329.202 402.344 327.755 401.971C326.308 401.598 324.8 401.512 323.319 401.717C322.301 401.864 321.272 402.173 320.514 402.871C319.757 403.569 319.394 404.728 319.859 405.633C320.494 406.87 322.199 407.029 323.609 406.913C325.689 406.742 327.742 406.331 329.725 405.688C330.31 405.495 330.936 405.261 331.322 404.774C331.708 404.287 331.725 403.473 331.208 403.13" fill="#85A9FF"/>
<path d="M335.683 426.514C334.494 425.62 333.136 424.967 331.689 424.593C330.242 424.219 328.734 424.132 327.253 424.337C326.235 424.484 325.206 424.793 324.451 425.491C323.697 426.189 323.331 427.348 323.793 428.25C324.431 429.49 326.133 429.649 327.543 429.533C329.623 429.36 331.675 428.949 333.659 428.308C334.244 428.115 334.872 427.878 335.256 427.391C335.639 426.904 335.662 426.093 335.144 425.747" fill="#85A9FF"/>
<path d="M347.967 408.456C348.795 408.629 349.748 408.955 349.982 409.759C350.225 410.607 349.476 411.432 348.684 411.841C346.636 412.911 344.135 412.519 341.848 412.101C339.348 411.642 336.838 411.218 334.343 410.725C331.126 410.085 332.618 408.995 334.981 408.488C339.258 407.567 343.685 407.557 347.967 408.456Z" fill="#85A9FF"/>
<path d="M431.536 463.502C432.085 463.502 434.168 461.922 434.305 461.094C434.934 457.058 433.065 452.894 430.021 450.138C426.976 447.381 422.89 445.925 418.783 445.441C415.674 445.074 412.448 445.213 409.643 443.489C408.975 443.1 408.396 442.579 407.943 441.958C407.49 441.337 407.172 440.63 407.011 439.882C406.268 435.926 410.521 433.339 413.334 430.554C418.345 425.569 419.184 417.037 415.238 411.198C411.293 405.359 402.98 402.836 396.385 405.472C392.583 406.991 388.813 410.05 384.841 408.023C383.341 407.222 382.209 405.886 381.676 404.289C380.298 400.382 381.562 396.559 382.457 392.776C383.595 387.978 384.153 382.912 382.887 378.143C381.62 373.374 378.269 368.939 373.527 367.359C366.87 365.136 360.035 368.98 355.271 373.383C347.417 380.637 345.104 390.32 343.054 400.305C338.853 420.776 329.553 437.48 320.02 455.838C318.795 458.199 317.999 461.665 320.313 463.029C321.141 463.516 322.153 463.551 323.118 463.574C349.342 464.151 375.581 463.704 401.796 463.704C411.717 463.646 421.63 463.579 431.536 463.502Z" fill="#9A9A9A"/>
<path d="M335.645 459.48C335.645 459.48 342.995 444.579 349.289 427.25C352.86 417.42 358.476 392.701 359.833 383.584" stroke="#C3D1FF" stroke-width="6" stroke-linecap="round" stroke-linejoin="round"/>
<path d="M400.368 422.538C397.566 430.675 357.599 435.611 343.48 442.353" stroke="#C3D1FF" stroke-width="6" stroke-linecap="round" stroke-linejoin="round"/>
<path d="M418.423 456.458C418.423 456.458 395.741 450.861 368.008 435.3" stroke="#C3D1FF" stroke-width="6" stroke-linecap="round" stroke-linejoin="round"/>
<path d="M165.949 317.16C158.95 326.223 148.046 340.227 141.538 348.84C135.981 356.195 132.07 363.008 128.599 371.739C122.404 387.309 112.351 413.366 107.3 426.235C106.507 428.253 105.873 429.879 105.343 431.226C105.762 430.113 106.171 429.008 106.56 427.93C106.124 424.507 105.121 413.94 104.96 411.659C103.951 397.277 104.054 384.818 105.803 371.549C107.678 357.141 111.155 342.981 116.171 329.322C116.953 329.035 117.719 328.708 118.467 328.345C118.733 328.209 119.011 328.077 119.286 327.953C125.417 325.043 131.81 322.705 138.382 320.969C146.393 318.818 154.623 317.556 162.919 317.206C163.945 317.16 164.96 317.143 165.949 317.16Z" fill="#4052F2"/>
<path d="M93.296 456.85V463.511H70.4033L75.1474 442.638L94.8081 451.086L93.296 456.85Z" fill="#FFCAE1"/>
<path d="M104.96 411.651C105.121 413.931 106.13 424.499 106.56 427.921C106.171 429 105.762 430.104 105.344 431.217C105.288 431.35 105.238 431.48 105.189 431.615C103.761 435.257 103.185 436.759 102.606 438.247C102.571 438.353 102.53 438.451 102.492 438.552C102.334 438.947 102.179 439.345 102.027 439.74C101.977 439.867 101.927 439.991 101.881 440.118C101.746 440.464 101.588 440.813 101.471 441.156L101.366 441.424C100.994 442.353 100.646 443.252 100.313 444.112C100.251 444.261 100.196 444.4 100.14 444.558L99.9706 444.997C99.8595 445.285 99.7483 445.573 99.6372 445.862C99.5261 446.15 99.4354 446.378 99.3447 446.632C99.2891 446.782 99.2336 446.934 99.1722 447.079C99.0669 447.344 98.9703 447.592 98.8797 447.825C98.7393 448.197 98.5872 448.561 98.4527 448.918C98.3649 449.146 98.2801 449.371 98.1894 449.599C97.8501 450.464 97.5138 451.329 97.1774 452.194C97.0897 452.407 97.0107 452.626 96.923 452.842C96.8352 453.059 96.7387 453.315 96.648 453.555C96.6071 453.65 96.572 453.739 96.5369 453.843C96.4053 454.183 96.2678 454.523 96.1333 454.878C95.9051 455.455 95.6692 456.059 95.4255 456.692C92.9277 456.824 90.4279 456.946 87.9262 457.058C87.8501 457.058 87.7741 457.058 87.698 457.058C84.9936 457.167 82.2812 457.291 79.5611 457.43C79.5193 457.433 79.4773 457.433 79.4354 457.43C77.8554 457.426 76.296 457.075 74.8712 456.402C73.4464 455.729 72.1921 454.75 71.1999 453.538C70.2077 452.326 69.5026 450.911 69.1361 449.395C68.7696 447.88 68.7509 446.304 69.0815 444.78C69.0815 444.78 69.0815 444.766 69.0815 444.757C69.1224 444.573 69.1605 444.388 69.2014 444.201C69.6255 442.266 70.0993 440.115 70.6901 437.428C70.7837 437.01 70.8803 436.563 70.9826 436.125C73.1996 426.062 71.2751 434.703 75.0043 417.772C75.7969 414.194 76.7299 409.935 77.7565 405.253C84.5129 404.909 91.822 403.543 95.3201 398.333C96.2199 396.987 96.8374 395.477 97.1365 393.892C97.5667 391.827 97.5707 389.698 97.1481 387.632C96.7254 385.566 95.8849 383.605 94.6767 381.866C93.2645 379.835 91.4619 378.097 89.371 376.751C87.831 375.772 86.221 374.905 84.5539 374.156C86.6012 364.825 88.6018 355.734 90.2836 348.205C91.1874 344.169 91.9888 341.53 94.1619 337.324C95.1232 335.459 96.0874 333.587 97.0546 331.707C103.539 331.419 110.076 331.568 116.18 329.291C111.156 342.956 107.672 357.124 105.791 371.54C104.054 384.81 103.951 397.269 104.96 411.651Z" fill="#4052F2"/>
<path opacity="0.5" d="M104.96 411.651C105.121 413.931 106.13 424.499 106.56 427.921C106.171 429 105.762 430.104 105.344 431.217C105.288 431.35 105.238 431.48 105.189 431.615C103.761 435.257 103.185 436.759 102.606 438.247C102.571 438.353 102.53 438.451 102.492 438.552C102.334 438.947 102.179 439.345 102.027 439.74C101.977 439.867 101.927 439.991 101.881 440.118C101.746 440.464 101.588 440.813 101.471 441.156L101.366 441.424C100.994 442.353 100.646 443.252 100.313 444.112C100.251 444.261 100.196 444.4 100.14 444.558L99.9706 444.997C99.8595 445.285 99.7483 445.573 99.6372 445.862C99.5261 446.15 99.4354 446.378 99.3447 446.632C99.2891 446.782 99.2336 446.934 99.1722 447.079C99.0669 447.344 98.9703 447.592 98.8797 447.825C98.7393 448.197 98.5872 448.561 98.4527 448.918C98.3649 449.146 98.2801 449.371 98.1894 449.599C97.8501 450.464 97.5138 451.329 97.1774 452.194C97.0897 452.407 97.0107 452.626 96.923 452.842C96.8352 453.059 96.7387 453.315 96.648 453.555C96.6071 453.65 96.572 453.739 96.5369 453.843C96.4053 454.183 96.2678 454.523 96.1333 454.878C95.9051 455.455 95.6692 456.059 95.4255 456.692C92.9277 456.824 90.4279 456.946 87.9262 457.058C87.8501 457.058 87.7741 457.058 87.698 457.058C84.9936 457.167 82.2812 457.291 79.5611 457.43C79.5193 457.433 79.4773 457.433 79.4354 457.43C77.8554 457.426 76.296 457.075 74.8712 456.402C73.4464 455.729 72.1921 454.75 71.1999 453.538C70.2077 452.326 69.5026 450.911 69.1361 449.395C68.7696 447.88 68.7509 446.304 69.0815 444.78C69.0815 444.78 69.0815 444.766 69.0815 444.757C69.1224 444.573 69.1605 444.388 69.2014 444.201C69.6255 442.266 70.0993 440.115 70.6901 437.428C70.7837 437.01 70.8803 436.563 70.9826 436.125C73.1996 426.062 71.2751 434.703 75.0043 417.772C75.7969 414.194 76.7299 409.935 77.7565 405.253C84.5129 404.909 91.822 403.543 95.3201 398.333C96.2199 396.987 96.8374 395.477 97.1365 393.892C97.5667 391.827 97.5707 389.698 97.1481 387.632C96.7254 385.566 95.8849 383.605 94.6767 381.866C93.2645 379.835 91.4619 378.097 89.371 376.751C87.831 375.772 86.221 374.905 84.5539 374.156C86.6012 364.825 88.6018 355.734 90.2836 348.205C91.1874 344.169 91.9888 341.53 94.1619 337.324C95.1232 335.459 96.0874 333.587 97.0546 331.707C103.539 331.419 110.076 331.568 116.18 329.291C111.156 342.956 107.672 357.124 105.791 371.54C104.054 384.81 103.951 397.269 104.96 411.651Z" fill="#0600A0"/>
<path d="M413.261 0.0958906L413.182 0.170861L413.159 0.196819L413.139 0.231417C413.126 0.250986 413.107 0.266009 413.085 0.274305C413.063 0.282601 413.038 0.283732 413.016 0.277543H412.989C412.943 0.263126 412.934 0.251598 412.922 0.228531L412.902 0.182405C412.902 0.182405 412.902 0.182402 412.875 0.251603C412.849 0.320803 412.875 0.289082 412.84 0.283316H412.793H412.761L412.691 0.26313C412.651 0.243822 412.613 0.221662 412.577 0.196819C412.577 0.196819 412.577 0.196811 412.557 0.153561C412.536 0.110311 412.557 0.110309 412.615 0.133376L412.668 0.16222H412.712L412.732 0.142034H412.712H412.659C412.622 0.128939 412.59 0.105979 412.565 0.0757226C412.565 0.0757226 412.565 0.061289 412.603 0.0584056C412.619 0.0612918 412.635 0.0612918 412.65 0.0584056C412.656 0.0498792 412.664 0.0429897 412.673 0.0384312C412.682 0.0338727 412.692 0.0318179 412.703 0.0324653C412.738 0.0337583 412.772 0.0436627 412.802 0.0612918H412.867V0.0987768C412.871 0.124444 412.881 0.148925 412.896 0.170861L412.881 0.139148C412.855 0.098781 412.849 0.087256 412.852 0.0757226H412.887C412.887 0.0555392 412.928 0.0757128 412.984 0.101663H413.004H413.042L413.083 0.121849L413.115 0.139148H413.142H413.177L413.261 0.0958906Z" fill="#9FC3FD"/>
<path opacity="0.15" d="M412.551 0.121213C412.551 0.0779623 412.551 0.0779601 412.609 0.101027L412.662 0.129853H412.706L412.726 0.109685H412.706H412.653C412.616 0.0965906 412.584 0.0736126 412.559 0.0433564C412.559 0.0433564 412.559 0.0289403 412.597 0.026057C412.613 0.0289432 412.629 0.0289432 412.644 0.026057C412.65 0.0175305 412.658 0.0106411 412.667 0.00608258C412.676 0.00152408 412.687 -0.000530698 412.697 0.00011666C412.732 0.00140966 412.766 0.011314 412.796 0.0289431H412.861V0.0664281C412.866 0.0920956 412.876 0.116576 412.89 0.138512L412.875 0.106799C412.849 0.0664324 412.843 0.0548898 412.846 0.0433564H412.881C412.881 0.0231729 412.922 0.0433641 412.978 0.0693143H412.998H413.036L413.077 0.0894999L413.109 0.106799H413.136H413.171V0.138512L413.092 0.213482L413.068 0.239422L413.048 0.274021C413.035 0.29359 413.016 0.30863 412.994 0.316926C412.972 0.325223 412.948 0.326353 412.925 0.320165H412.899C412.852 0.305748 412.843 0.294219 412.831 0.271153L412.811 0.225009C412.811 0.225009 412.811 0.225006 412.785 0.294207C412.758 0.363407 412.785 0.331704 412.75 0.325937H412.703H412.671L412.6 0.305751C412.561 0.286444 412.523 0.264266 412.486 0.239422C412.486 0.239422 412.562 0.161579 412.551 0.121213Z" fill="#9A9A9A"/>
<defs>
<linearGradient id="paint0_linear" x1="75.1596" y1="334.308" x2="86.5571" y2="189.243" gradientUnits="userSpaceOnUse">
<stop stop-color="white" stop-opacity="0"/>
<stop offset="1" stop-color="white"/>
</linearGradient>
<linearGradient id="paint1_linear" x1="230177" y1="269864" x2="321149" y2="269864" gradientUnits="userSpaceOnUse">
<stop stop-color="white" stop-opacity="0"/>
<stop offset="1" stop-color="white"/>
</linearGradient>
</defs>
</svg>
