<svg width="652" height="534" viewBox="0 0 652 534" fill="none" xmlns="http://www.w3.org/2000/svg">
<path d="M143.376 288.189C135.336 298.676 142.755 303.011 146.468 300.541C150.181 298.072 145.23 289.419 145.23 289.419L143.376 288.189Z" stroke="#F8DA7D" stroke-width="4" stroke-linecap="round" stroke-linejoin="round"/>
<path d="M628.695 497.916H652L636.697 404.852L635.637 398.407H540.621L539.561 404.852L524.258 497.916H547.643L553.176 464.269H623.171L628.695 497.916ZM555.988 447.089L557.989 434.918H618.335L620.337 447.089H555.988Z" fill="#4052F2"/>
<path d="M636.705 404.852H539.561L540.62 398.411H635.646L636.705 404.852Z" fill="#0600A0"/>
<path d="M28.0449 0.673676L28.1213 0.721332L27.3604 1.85584C27.5769 1.4586 27.8029 1.06455 28.0449 0.673676Z" fill="#9FC3FD"/>
<path d="M637.295 244.086L629.226 370.614L629.118 372.25C629.072 372.982 628.761 373.672 628.244 374.191C627.726 374.711 627.038 375.025 626.306 375.075L618.635 375.603L616.566 375.746L600.458 245.405V245.38L599.993 241.63L599.675 244.099L589.78 318.986L582.561 373.645C582.454 374.449 582.184 375.222 581.767 375.917C581.35 376.612 580.795 377.215 580.136 377.688C579.477 378.161 578.728 378.494 577.935 378.667C577.143 378.84 576.323 378.85 575.527 378.695L566.994 377.014L565.816 216.487V214.761V214.402C565.845 214.551 565.867 214.697 565.893 214.856C570.102 220.324 576.19 224.04 582.981 225.286L599.274 228.299L616.077 231.404L627.174 233.453C630.928 234.149 633.967 233.682 636.382 232.277C636.758 234.509 637.017 236.759 637.158 239.018C637.266 240.696 637.308 242.393 637.295 244.086Z" fill="#451ABF"/>
<path d="M599.662 244.086C595.79 272.624 592.067 301.187 588.055 329.702C586.736 339.093 585.415 348.484 584.091 357.874C584.67 335.67 584.543 312.907 587.629 290.887C588.921 281.671 590.827 272.548 591.892 263.3C592.451 258.747 592.708 254.162 592.662 249.575C592.567 244.029 591.441 239.088 587.868 234.696C585.322 231.585 581.772 228.779 578.434 226.545C575.008 224.25 570.057 221.867 566.026 223.888L565.65 214.672C565.685 215.521 567.973 217.316 568.577 217.888C572.119 221.222 576.434 223.624 581.135 224.879C587.034 226.433 593.257 227.187 599.255 228.292L599.662 244.086Z" fill="#0600A0"/>
<path d="M630.699 347.463C627.345 344.905 627.034 340.472 626.451 335.962C625.945 332.107 625.627 328.192 625.281 324.306C624.706 317.876 624.222 311.436 623.83 304.987C623.405 298.31 623.059 291.629 622.789 284.944C622.573 279.65 622.42 274.349 622.29 269.055C622.128 262.477 622.694 254.755 619.468 248.771C616.092 242.507 606.423 238.029 599.5 237.55L598.911 228.156L605.962 228.105C610.838 229.007 615.659 230.182 620.403 231.626V232.201C620.403 235.265 620.403 238.338 620.403 241.401C620.445 238.338 620.487 235.28 620.527 232.227C620.527 231.909 620.527 231.61 620.527 231.305C624.711 232.649 629.118 233.981 633.34 233.453C634.389 233.325 635.419 233.07 636.407 232.694C636.545 232.651 636.681 232.6 636.814 232.541C636.843 233.812 636.871 235.061 636.89 236.323C636.967 241.172 636.951 246.023 636.843 250.874L630.699 347.463Z" fill="#0600A0"/>
<path d="M206.126 463.77C206.444 460.869 206.317 463.541 206.317 463.541L194.526 469.052L175.178 420.529L137.864 326.959L137.377 325.733L112.669 384.339L108.231 394.864C107.122 397.509 105.638 399.98 103.824 402.202L98.9624 408.173L38.4701 482.535L18.4004 473.577L81.0276 343.036C83.6919 337.488 85.3477 331.51 85.9178 325.383L86.5541 318.392L86.9104 314.505L87.1459 311.941L90.7729 272.897L169.614 256.642L172.083 267.949C161.685 269.046 150.619 273.825 150.619 273.825L89.8503 312.614C92.154 312.927 94.4938 312.854 96.7735 312.398L145.946 303.316L153.992 301.832C160.966 300.552 167.407 297.248 172.512 292.333C172.543 292.308 172.572 292.28 172.598 292.25C172.916 291.952 173.234 291.64 173.527 291.326C174.497 290.32 175.407 289.259 176.254 288.148C176.321 288.071 176.378 287.989 176.438 287.913L176.515 288.269L176.537 288.377L179.305 301.009L195.849 376.642L200.74 398.976L214.039 459.775L206.126 463.77Z" fill="#FFB037"/>
<path d="M213.428 458.813L217.965 481.703L206.709 485.964L195.821 461.87L213.428 458.813Z" fill="#FFCAE1"/>
<path d="M205.216 460.23L206.68 459.976C205.859 464.491 203.517 481.023 212.582 483.733L206.709 485.958L197.835 466.322L205.216 460.23Z" fill="#FDB2D0"/>
<path d="M279.781 222L271.487 222.585L233.81 209.432L229.391 207.89L198.656 197.165L192.223 194.918L187.275 193.186L199.76 166.918L229.512 187.396L233.689 190.272L254.634 204.69L260.831 208.958V208.965L279.781 222Z" fill="#FFBDDD"/>
<path d="M212.582 483.746L206.709 485.971L197.835 466.335L205.216 460.243L206.903 458.851C206.903 458.851 206.81 459.267 206.68 459.988C205.859 464.498 203.517 481.029 212.582 483.746Z" fill="#FDB2D0"/>
<path d="M629.137 369.759L628.72 374.92L627.81 386.36L620.228 386.217L619.022 378.177L618.615 375.466L618.049 371.685L629.137 369.759Z" fill="#F2AE87"/>
<path d="M628.72 374.92L628.526 377.176L619.022 378.177L618.615 375.466L628.72 374.92Z" fill="#F19C63"/>
<path d="M567.264 374.754L566.882 389.446L574.324 390.898L578.52 374.786L567.264 374.754Z" fill="#F2AE87"/>
<path d="M567.207 377.039L567.114 380.541L576.382 382.988L577.582 378.425L567.207 377.039Z" fill="#F19C63"/>
<path d="M36.6761 477.87L20.1349 499.705L9.44141 494.179L20.1349 469.999L36.6761 477.87Z" fill="#FFCAE1"/>
<path d="M36.6735 477.87L34.1027 481.258C30.9989 481.769 27.8473 481.93 24.7074 481.738C18.5 481.35 16.117 489.911 16.7533 497.97L9.43555 494.179L19.6168 471.162L20.129 469.999L35.9481 477.524L36.6735 477.87Z" fill="#FFCAE1"/>
<path d="M214.067 459.772L194.714 469.522L175.178 420.529L137.864 326.959L137.377 325.733L112.669 384.339L108.231 394.864C107.122 397.509 105.638 399.98 103.824 402.202L98.9625 408.173L38.4701 482.535L18.4004 473.577L81.0276 343.036C83.6919 337.488 85.3477 331.51 85.9178 325.383L86.5541 318.392L86.9104 314.505L87.1459 311.941L90.7729 272.897L169.614 256.642L172.083 267.949C161.685 269.046 150.619 273.825 150.619 273.825L89.8503 312.614C92.154 312.927 94.4938 312.854 96.7735 312.398L145.946 303.316L153.992 301.832C160.966 300.552 167.407 297.248 172.512 292.333C172.543 292.308 172.572 292.28 172.598 292.25C172.916 291.952 173.234 291.64 173.527 291.326C174.497 290.32 175.407 289.259 176.254 288.148C176.321 288.071 176.378 287.989 176.438 287.913L176.515 288.269L176.537 288.377L179.305 301.009L195.849 376.642L200.74 398.976L214.067 459.772Z" fill="#FFB037"/>
<path d="M172.1 267.968C161.702 269.065 150.636 273.844 150.636 273.844L121.792 292.276L89.8799 312.649C92.1837 312.962 94.5234 312.889 96.8031 312.433C96.8477 312.433 106.348 310.673 117.566 308.594C103.103 358.585 72.1455 419.302 28.5254 452.504L81.0223 343.065C83.6866 337.516 85.3424 331.539 85.9124 325.412L86.5488 318.42L86.9051 314.534L87.1405 311.969L90.7676 272.926L126.195 265.617L169.608 256.665L172.1 267.968Z" fill="#FFB037"/>
<path d="M137.378 325.748C137.378 325.748 148.832 302.124 148.832 286.374" stroke="#DD600F" stroke-width="3" stroke-linecap="round" stroke-linejoin="round"/>
<path d="M198.297 466.776L197.609 464.997" stroke="#DD600F" stroke-width="3" stroke-linecap="round" stroke-linejoin="round"/>
<path d="M196.241 461.457L142.131 321.598" stroke="#DD600F" stroke-width="3" stroke-linecap="round" stroke-linejoin="round" stroke-dasharray="11.94 11.94"/>
<path d="M141.448 319.825L140.757 318.048" stroke="#DD600F" stroke-width="3" stroke-linecap="round" stroke-linejoin="round"/>
<g opacity="0.1">
<path opacity="0.1" d="M137.864 326.953L175.178 420.522V420.529L137.864 326.953Z" fill="black"/>
</g>
<g opacity="0.2">
<path opacity="0.2" d="M157.575 311.095C150.576 323.835 156.217 336.328 159.926 348.988C162.201 356.733 164.428 364.487 166.544 372.269C170.27 385.982 174.737 400.419 175.453 414.707C175.548 416.633 175.625 418.635 175.182 420.522L137.868 326.953C138.931 322.084 141.454 312.182 145.978 303.335C152.049 291.485 161.718 281.535 176.286 288.151L176.547 288.272L176.639 288.313C176.618 288.337 176.594 288.359 176.569 288.38C175.57 289.359 174.559 290.347 173.56 291.345C173.241 291.662 172.923 291.961 172.631 292.269C172.604 292.299 172.576 292.327 172.545 292.352C166.881 298.034 161.428 304.088 157.575 311.095Z" fill="black"/>
</g>
<path d="M9.94667 492.358L22.6732 498.396L23.0582 498.666L51.082 526.86C51.854 527.638 52.3735 528.63 52.5727 529.707C52.7719 530.784 52.6416 531.896 52.1987 532.898C52.1237 533.068 52.0149 533.22 51.879 533.347C51.7432 533.473 51.583 533.57 51.4083 533.632C51.2336 533.695 51.048 533.721 50.8628 533.71C50.6777 533.698 50.4968 533.649 50.3311 533.566L4.1052 510.253C2.47483 509.435 1.20242 508.047 0.530103 506.353C-0.142214 504.659 -0.167495 502.777 0.459068 501.066C1.75717 497.535 4.21973 493.636 8.86172 492.247C9.22452 492.147 9.61185 492.186 9.94667 492.358Z" fill="#0600A0"/>
<path d="M205.678 484.382L218.684 478.948L219.142 478.843L258.868 476.822C259.966 476.766 261.054 477.042 261.992 477.614C262.93 478.186 263.673 479.027 264.124 480.028C264.2 480.197 264.241 480.38 264.245 480.565C264.248 480.75 264.213 480.934 264.143 481.106C264.073 481.277 263.968 481.433 263.836 481.563C263.704 481.693 263.546 481.794 263.373 481.862L215.137 500.678C213.438 501.344 211.554 501.363 209.842 500.732C208.131 500.101 206.711 498.864 205.853 497.255C204.087 493.931 202.827 489.501 204.898 485.119C205.059 484.786 205.337 484.524 205.678 484.382Z" fill="#0600A0"/>
<path d="M635.242 226.205L565.793 212.794L565.618 189.249L624.714 170.379L635.242 226.205Z" fill="#186581"/>
<path d="M575.852 386.881L566.975 386.528L566.682 386.567L542.791 394.092C542.131 394.298 541.549 394.7 541.121 395.243C540.693 395.786 540.44 396.446 540.395 397.136C540.388 397.253 540.404 397.37 540.443 397.48C540.481 397.59 540.542 397.691 540.621 397.777C540.701 397.863 540.796 397.932 540.903 397.979C541.01 398.027 541.125 398.053 541.242 398.055L573.85 398.576C574.999 398.595 576.115 398.193 576.987 397.445C577.859 396.697 578.425 395.655 578.578 394.518C578.896 392.169 578.658 389.277 576.475 387.142C576.306 386.982 576.084 386.889 575.852 386.881Z" fill="#BD6615"/>
<path d="M628.541 382.814L619.735 383.967L619.455 384.056L597.183 395.519C596.568 395.835 596.062 396.33 595.733 396.939C595.404 397.547 595.266 398.241 595.338 398.929C595.35 399.045 595.385 399.157 595.442 399.259C595.499 399.361 595.576 399.45 595.669 399.521C595.762 399.592 595.868 399.644 595.981 399.672C596.094 399.701 596.212 399.706 596.327 399.688L628.554 394.677C629.69 394.502 630.721 393.917 631.453 393.032C632.184 392.147 632.565 391.025 632.522 389.878C632.429 387.51 631.713 384.698 629.2 382.966C629.006 382.837 628.772 382.782 628.541 382.814Z" fill="#BD6615"/>
<path d="M104.009 311.089C103.993 311.136 103.898 311.82 103.726 312.973" stroke="#DD600F" stroke-width="3" stroke-linecap="round" stroke-linejoin="round"/>
<path d="M103.141 316.765C101.935 324.271 99.5644 337.36 96.5227 344.361C91.8012 355.23 36.3295 452.708 25.3115 472.042" stroke="#DD600F" stroke-width="3" stroke-linecap="round" stroke-linejoin="round" stroke-dasharray="12.07 12.07"/>
<path d="M24.3605 473.71L23.4053 475.366" stroke="#DD600F" stroke-width="3" stroke-linecap="round" stroke-linejoin="round"/>
<path d="M565.777 212.794V214.383C565.624 213.382 565.596 212.772 565.596 212.772L565.777 212.794Z" fill="#186581"/>
<path d="M635.376 225.486C634.877 225.927 634.334 226.316 633.757 226.649C631.46 227.984 628.571 228.426 625.001 227.765C624.915 227.746 583.004 220.001 583.004 220.001C576.554 218.816 570.773 215.284 566.777 210.09C566.751 210.063 566.727 210.033 566.707 210.001C563.153 205.36 561.233 199.677 561.245 193.835L561.286 161.535V155.815L560.408 155.564L538.976 152.408L557.077 141.797L561.286 140.573V136.893L551.334 140.049L536.762 144.667L536.272 144.752L530.227 145.849L520.478 147.612L518.824 147.911L512.359 149.087L508.808 149.723L496.67 151.918L489.712 153.19L496.915 149.173L501.71 146.5L508.073 142.954L522.957 134.659L560.319 113.841C561.656 113.091 563.053 112.454 564.496 111.934L573.475 108.696C575.458 107.984 577.541 107.586 579.647 107.517C582.603 107.088 585.565 106.605 588.53 106.157C590.404 105.877 592.275 105.614 594.149 105.382C608.829 103.58 624.778 116.847 628.332 130.442C631.807 143.739 651.495 211.402 635.376 225.486Z" fill="#F2AE87"/>
<path d="M638.074 231.041C637.549 231.506 636.977 231.916 636.369 232.265C633.951 233.673 630.915 234.137 627.142 233.444C627.05 233.418 582.949 225.273 582.949 225.273C576.159 224.026 570.073 220.309 565.867 214.84C565.836 214.815 565.81 214.784 565.791 214.748C562.097 209.916 560.086 204.01 560.064 197.931V197.74L560.089 178.355V163.772V157.763L559.163 157.496L536.618 154.181L555.663 143.014L557.054 142.452L560.114 141.212L560.089 137.856L555.396 139.347L549.615 141.18L542.183 123.302L559.087 113.603C560.492 112.815 561.96 112.146 563.477 111.604L572.927 108.194C575.014 107.448 577.205 107.031 579.421 106.958C582.529 106.507 585.647 106.004 588.768 105.525C590.734 105.235 592.707 104.949 594.68 104.711C610.127 102.804 626.9 116.787 630.632 131.088C631.797 135.537 634.689 145.769 637.539 158.141C640.743 172.031 643.903 188.613 644.52 202.701C645.112 215.479 643.578 226.23 638.074 231.041Z" fill="#FFB037"/>
<path d="M183.604 214.427L183.671 266.201C183.671 267.155 183.633 268.076 183.569 268.998C182.961 276.963 179.734 284.503 174.389 290.445C169.044 296.388 161.882 300.397 154.018 301.851L96.806 312.417C94.5266 312.876 92.1864 312.949 89.8828 312.633C88.9577 312.495 88.0479 312.27 87.1657 311.96C57.4206 301.435 87.2452 199.05 92.2563 179.871C95.4888 167.55 101.566 158.776 113.465 153.463C118.088 151.4 128.686 144.314 133.805 145.038L134.085 145.08L158.584 148.652C166.105 148.896 173.27 152.017 179.945 155.236C181.854 156.161 199.264 166.403 199.035 167.137L190.982 192.459L183.601 188.645V193.657" fill="#F9F9E8"/>
<path d="M183.604 214.427L183.671 266.201C183.671 267.155 183.633 268.076 183.569 268.998C182.961 276.963 179.734 284.503 174.389 290.445C169.044 296.388 161.882 300.397 154.018 301.851L96.806 312.417C94.5266 312.876 92.1864 312.949 89.8828 312.633C88.9577 312.495 88.0479 312.27 87.1657 311.96C57.4206 301.435 87.2452 199.05 92.2563 179.871C95.4888 167.55 101.566 158.776 113.465 153.463C118.088 151.4 128.686 144.314 133.805 145.038L134.085 145.08L158.584 148.652C166.105 148.896 173.27 152.017 179.945 155.236C181.854 156.161 201.262 166.359 201.033 167.093L191.619 194.683L183.388 192.923L183.598 193.666L183.604 214.427Z" fill="#434343"/>
<path d="M80.3058 273.682L88.963 284.798H79.0713L80.3058 273.682Z" stroke="#F8DA7D" stroke-width="3" stroke-linecap="round" stroke-linejoin="round"/>
<path d="M145.195 157.696C142.255 170.023 102.291 202.31 122.287 232.246C129.783 243.476 127.772 273.367 117.582 308.572C106.351 310.65 96.8629 312.385 96.8184 312.411C94.5387 312.866 92.1989 312.939 89.8952 312.627C88.9704 312.487 88.0608 312.262 87.1781 311.953C57.433 301.428 87.2544 199.046 92.2687 179.868C95.5012 167.544 101.578 158.77 113.477 153.457C118.097 151.397 128.701 144.304 133.818 145.032L134.094 145.073L145.131 146.681C145.85 150.24 146.064 154.051 145.195 157.696Z" fill="#F9F9E8"/>
<path d="M166.267 103.008C165.94 101.768 165.534 100.497 165.048 99.1943C163.739 95.6429 161.944 92.2893 159.716 89.2285L135.834 87.112L128.574 108.865L126.547 108.617L125.399 108.474L122.818 112.605C122.94 113.39 123.239 114.136 123.693 114.788C123.811 114.97 123.943 115.142 124.088 115.303L130.022 121.926C130.731 124.738 134.724 128.342 138.66 131.304C141.205 133.21 143.706 134.876 145.297 135.88C146.366 136.559 147.578 136.985 148.838 137.125L154.485 137.761C154.839 137.673 155.189 137.567 155.532 137.443C158.736 136.312 168.153 131.723 167.737 116.762C167.737 116.762 167.759 116.561 167.778 116.18V116.158C167.95 111.723 167.44 107.288 166.267 103.008Z" fill="#FFCAE1"/>
<path d="M155.574 141.006C155.217 141.131 154.854 141.237 154.486 141.323L148.838 140.688C147.577 140.547 146.365 140.121 145.294 139.442C144.413 138.886 143.242 138.123 141.937 137.218C141.025 135.201 139.975 133.249 138.794 131.377C141.285 133.255 143.735 134.872 145.294 135.848C146.364 136.529 147.577 136.955 148.838 137.094L154.486 137.729C154.84 137.643 155.19 137.537 155.532 137.411L155.574 141.006Z" fill="#FDB2D0"/>
<path d="M149.649 157.127C148.224 156.37 146.897 155.441 145.697 154.362C146.155 148.064 143.976 141.682 141.937 137.227C143.241 138.12 144.412 138.883 145.293 139.452C146.364 140.131 147.577 140.557 148.837 140.697L154.485 141.333C154.853 141.247 155.216 141.141 155.573 141.015L155.665 147.844L158.398 148.642L158.739 150.199C158.991 151.37 158.904 152.588 158.489 153.711C158.074 154.835 157.347 155.817 156.394 156.544C155.441 157.27 154.301 157.711 153.106 157.814C151.912 157.917 150.713 157.679 149.649 157.127Z" fill="#FFCAE1"/>
<path d="M173.54 86.9054C173.438 89.6289 173.092 92.5176 171.857 94.9836C170.584 97.5259 168.039 98.7303 165.351 99.1466C164.333 99.2989 163.302 99.3521 162.274 99.3055C157.988 99.1402 153.299 98.2314 149.512 96.188C146.276 94.3759 143.153 92.3702 140.158 90.1818C139.782 89.9149 139.338 89.7576 138.877 89.7274C138.416 89.6971 137.956 89.7951 137.548 90.0105C137.139 90.2258 136.799 90.5501 136.564 90.9473C136.329 91.3444 136.208 91.7989 136.216 92.2601C136.299 97.904 135.345 106.449 129.118 108.68C128.943 108.744 128.762 108.801 128.574 108.855L127.661 108.286C127.291 108.055 126.876 107.906 126.443 107.848C126.01 107.79 125.57 107.825 125.152 107.95C124.734 108.075 124.348 108.288 124.018 108.573C123.689 108.859 123.424 109.212 123.242 109.608C122.923 110.294 122.759 111.042 122.761 111.798C122.76 112.063 122.779 112.327 122.819 112.589L122.714 112.761C122.714 112.761 120.486 99.0449 121.527 87.862C121.829 84.5099 123.408 81.4018 125.939 79.1798C128.47 76.9578 131.758 75.7918 135.125 75.9227C141.733 76.1864 150.715 77.0222 158.23 77.3622C166.184 77.7245 172.522 77.5275 172.617 75.5C173.365 79.2535 173.674 83.0808 173.54 86.9054Z" fill="#0600A0"/>
<path d="M122.994 89.756C123.027 88.5432 123.215 87.3396 123.554 86.1745C123.621 85.879 123.755 85.6025 123.85 85.3165L124.006 84.8907C124.06 84.7477 124.133 84.6142 124.197 84.4775C124.33 84.2042 124.454 83.9278 124.594 83.6576L125.065 82.879C126.378 80.8193 128.241 79.168 130.445 78.1122C131.541 77.5805 132.708 77.2101 133.91 77.0127L134.359 76.9332C134.508 76.9142 134.677 76.9046 134.814 76.8919L135.724 76.8188L137.541 76.768C139.965 76.714 142.389 76.7013 144.814 76.6917C149.663 76.6695 154.515 76.6917 159.36 76.5392C161.781 76.4597 164.203 76.3581 166.611 76.107C167.816 75.9908 169.012 75.8008 170.194 75.5381C170.781 75.4082 171.354 75.2175 171.902 74.9693C172.173 74.8492 172.422 74.686 172.64 74.4863C172.747 74.3913 172.833 74.2754 172.893 74.1459C172.954 74.0164 172.986 73.8759 172.99 73.7331V73.2374L173.124 73.714C173.808 76.2006 174.297 78.7369 174.584 81.2996C174.727 82.5708 174.826 83.8674 174.867 85.1544C174.919 86.4435 174.883 87.7345 174.759 89.0187C174.639 90.3055 174.36 91.5725 173.929 92.7909C173.505 94.0218 172.743 95.1087 171.73 95.9274C170.711 96.7261 169.541 97.3128 168.291 97.653C167.047 98.0013 165.764 98.1924 164.473 98.2218C165.766 98.186 167.049 97.9863 168.291 97.6276C169.534 97.2821 170.694 96.6898 171.702 95.8861C172.699 95.0663 173.447 93.9843 173.862 92.7623C174.289 91.5499 174.562 90.2892 174.677 89.0092C174.797 87.729 174.83 86.4422 174.775 85.1576C174.731 83.8864 174.629 82.5899 174.482 81.3124C174.19 78.7564 173.697 76.2274 173.006 73.749L173.13 73.73C173.128 73.8903 173.093 74.0485 173.027 74.1945C172.961 74.3405 172.865 74.4712 172.745 74.5784C172.517 74.7876 172.257 74.9602 171.975 75.0901C171.418 75.342 170.836 75.5358 170.238 75.6685C169.053 75.9367 167.852 76.1309 166.643 76.25C164.228 76.5042 161.804 76.6218 159.379 76.6949C154.53 76.8315 149.678 76.8029 144.83 76.8125C142.405 76.8125 139.981 76.8125 137.56 76.8729L135.743 76.9174L134.839 76.9905C134.69 76.9905 134.521 77.0095 134.388 77.0286L133.942 77.108C132.748 77.3005 131.588 77.6655 130.5 78.1917C128.305 79.24 126.444 80.8744 125.123 82.914L124.649 83.6862C124.509 83.9532 124.381 84.2297 124.248 84.4998C124.184 84.6364 124.108 84.7667 124.054 84.9097L123.895 85.3356C123.796 85.6184 123.665 85.8949 123.592 86.1904C123.243 87.3489 123.042 88.547 122.994 89.756Z" fill="#18186D"/>
<path d="M122.043 106.92C121.714 106.211 121.432 105.481 121.196 104.736C120.948 103.996 120.738 103.243 120.544 102.487C120.163 100.97 119.873 99.4327 119.676 97.8818C119.558 97.1064 119.497 96.3278 119.415 95.5492C119.332 94.7706 119.291 93.9921 119.268 93.2103C119.246 92.4285 119.208 91.6468 119.221 90.865C119.199 90.0825 119.223 89.2994 119.294 88.5198C119.618 85.3605 121.09 82.4293 123.43 80.2795C124.585 79.2126 125.924 78.3621 127.381 77.769C128.837 77.176 130.388 76.8529 131.96 76.8156C128.815 76.9509 125.822 78.2049 123.521 80.3513C121.22 82.4976 119.764 85.3948 119.415 88.5198C119.338 89.2948 119.31 90.0738 119.329 90.8523C119.329 91.6341 119.329 92.4127 119.37 93.1944C119.411 93.9762 119.459 94.7516 119.504 95.5302C119.548 96.3088 119.644 97.0841 119.755 97.8564C119.95 99.4051 120.228 100.942 120.589 102.461C120.776 103.217 120.977 103.974 121.225 104.717C121.451 105.468 121.724 106.204 122.043 106.92Z" fill="#18186D"/>
<path d="M629.388 236.31L629.35 238.217" stroke="#100C4D" stroke-width="2" stroke-linecap="round" stroke-linejoin="round"/>
<path d="M629.27 241.999L626.684 368.694" stroke="#100C4D" stroke-width="2" stroke-linecap="round" stroke-linejoin="round" stroke-dasharray="11.9 11.9"/>
<path d="M626.645 370.585L626.604 372.492" stroke="#100C4D" stroke-width="2" stroke-linecap="round" stroke-linejoin="round"/>
<path d="M599.185 77.966L596.239 75.6239L595.867 75.8114L596.242 75.6239L599.185 77.966C599.147 77.764 599.092 77.5653 599.023 77.3718C598.829 76.8221 598.517 76.3211 598.11 75.9036C597.875 75.6617 597.591 75.4725 597.278 75.3486C596.964 75.2248 596.628 75.1691 596.291 75.1853C595.954 75.2016 595.624 75.2893 595.324 75.4428C595.024 75.5962 594.76 75.8118 594.549 76.0752L594.031 76.7108L594.718 76.3675L594.031 76.7108L583.143 62.7281L566.281 70.4027C565.446 73.2055 565.003 76.1099 564.964 79.0338C564.948 80.1079 564.986 81.1407 565.062 82.129C565.312 85.5541 566.084 88.921 567.35 92.1139C567.464 92.3872 567.537 92.5302 567.537 92.5302C571.005 103.303 578.781 104.412 581.568 104.45C581.635 104.45 581.693 104.45 581.75 104.45C581.906 104.45 582.068 104.45 582.208 104.45L582.488 104.431C582.529 104.431 582.567 104.431 582.609 104.415L586.538 102.509C586.92 102.324 587.282 102.101 587.62 101.845C588.186 101.315 588.717 100.751 589.211 100.154C589.984 99.1593 590.996 97.8055 592.014 96.3024C592.157 96.0895 592.306 95.8734 592.45 95.6668C592.908 94.974 593.36 94.2654 593.789 93.5408C595.31 90.9794 596.493 88.364 596.334 86.6194L598.95 80.2636C599.011 80.1073 599.061 79.947 599.099 79.7838C599.268 79.1926 599.297 78.5704 599.185 77.966Z" fill="#FFCAE1"/>
<path d="M593.366 98.1964L592.468 95.6541C592.325 95.8766 592.176 96.0927 592.032 96.2897C591.931 96.4327 591.838 96.5757 591.743 96.7187C591.708 96.7632 591.679 96.8045 591.651 96.849C591.333 97.2939 591.043 97.7166 590.741 98.1202C590.604 98.314 590.467 98.4983 590.333 98.6795C589.939 99.2229 589.557 99.7155 589.229 100.138L588.813 100.675C588.208 101.444 587.437 102.065 586.557 102.493L582.628 104.4H582.605C582.573 104.404 582.539 104.404 582.507 104.4L582.227 104.419C582.077 104.419 581.924 104.419 581.769 104.419L582.65 107.018C582.944 107.025 583.239 107.013 583.531 106.98L587.473 105.054C588.354 104.629 589.126 104.007 589.729 103.237C590.604 102.134 591.956 100.376 593.27 98.3776C593.308 98.3204 593.35 98.2632 593.385 98.2028L593.366 98.1964Z" fill="#FDB2D0"/>
<path d="M589.229 100.151C590.111 99.0132 591.307 97.4083 592.468 95.6478C591.474 97.208 590.392 98.7114 589.229 100.151Z" fill="#F19C63"/>
<path d="M593.271 98.4348C590.9 104.282 583.408 109.271 583.408 109.271L582.663 107.075C582.957 107.082 583.252 107.07 583.544 107.037L587.486 105.111C588.368 104.686 589.139 104.064 589.742 103.294C590.595 102.191 591.96 100.418 593.271 98.4348Z" fill="#EE834D"/>
<path d="M582.809 114.591C582.778 114.933 582.817 115.278 582.924 115.605C583.999 119.002 588.769 119.803 591.123 117.295C592.857 115.449 594.712 112.249 596.214 106.659C596.236 106.58 596.255 106.488 596.277 106.414L593.388 98.26C593.353 98.3203 593.312 98.3776 593.274 98.4348C590.903 104.282 582.294 105.801 582.294 105.801L584.359 112.077C584.435 112.306 583.5 113.059 583.353 113.26C583.057 113.647 582.869 114.107 582.809 114.591Z" fill="#FFCAE1"/>
<path d="M588.848 52.5748C591.005 53.4773 592.818 55.0726 594.276 56.8872C595.733 58.7017 596.744 60.8786 597.438 63.0999C597.782 64.2154 598.074 65.3467 598.326 66.4812C598.577 67.6157 598.768 68.7692 598.991 69.9069C599.19 71.0494 599.493 72.1715 599.894 73.2596C600.097 73.8011 600.356 74.3198 600.667 74.8072C600.993 75.2883 601.406 75.7034 601.886 76.0307C601.39 75.7191 600.958 75.3157 600.613 74.8422C600.282 74.3593 600.002 73.8426 599.78 73.3009C599.354 72.2137 599.027 71.0906 598.803 69.9451C598.552 68.8074 598.383 67.6538 598.106 66.532C597.829 65.4102 597.549 64.2757 597.206 63.1698C596.576 60.9388 595.531 58.8463 594.126 57.0016C593.42 56.0825 592.623 55.2371 591.746 54.4783C590.876 53.7087 589.9 53.0677 588.848 52.5748Z" fill="#422224"/>
<g opacity="0.05">
<path opacity="0.05" d="M123.949 281.779C123.643 283.459 123.312 285.164 122.955 286.893C123.31 285.166 123.641 283.461 123.949 281.779Z" fill="black"/>
</g>
<g opacity="0.05">
<path opacity="0.05" d="M125.905 268.674C125.787 269.707 125.663 270.755 125.517 271.82C125.657 270.756 125.786 269.708 125.905 268.674Z" fill="black"/>
</g>
<g opacity="0.2">
<path opacity="0.2" d="M117.566 308.578C103.103 358.57 72.1455 419.286 28.5254 452.488L81.0223 343.049C83.6866 337.5 85.3424 331.523 85.9124 325.396L86.5488 318.404L86.9051 314.518L87.1405 311.953C88.0233 312.262 88.9329 312.487 89.8577 312.627C92.1614 312.939 94.5012 312.866 96.7809 312.411C96.8477 312.404 106.351 310.657 117.566 308.578Z" fill="black"/>
</g>
<path d="M145.697 154.362C143.636 152.554 141.345 149.983 138.847 146.332C138.78 146.249 138.717 146.147 138.656 146.062V131.284C138.704 131.319 138.745 131.358 138.793 131.386C139.974 133.259 141.025 135.21 141.936 137.227C143.976 141.682 146.155 148.064 145.697 154.362Z" fill="#F2AE87"/>
<path d="M145.697 154.362C143.636 152.554 141.345 149.983 138.847 146.332C138.78 146.249 138.717 146.147 138.656 146.062V131.284C138.704 131.319 138.745 131.358 138.793 131.386C139.974 133.259 141.025 135.21 141.936 137.227C143.976 141.682 146.155 148.064 145.697 154.362Z" fill="#FDB2D0"/>
<path d="M145.195 157.696C143.041 166.721 133.77 175.057 128.768 182.604C123.086 191.184 116.125 201.09 117.085 211.818C117.614 217.716 119.678 223.348 121.419 229.011C126.939 246.959 127.2 263.309 123.964 281.62C123.964 281.674 123.942 281.728 123.935 281.773C123.63 283.453 123.299 285.157 122.943 286.886C122.576 288.653 122.188 290.442 121.778 292.254C121.632 292.912 121.479 293.573 121.32 294.237C121.167 294.901 121.002 295.568 120.843 296.239C120.684 296.909 120.525 297.583 120.343 298.257C120.238 298.67 120.133 299.08 120.025 299.496C119.917 299.912 119.803 300.376 119.685 300.818C119.367 302.003 119.049 303.201 118.73 304.403C118.606 304.838 118.489 305.28 118.368 305.718C118.105 306.665 117.834 307.619 117.556 308.578C106.325 310.657 96.8375 312.392 96.793 312.417C94.5132 312.873 92.1735 312.946 89.8697 312.633C88.945 312.494 88.0354 312.268 87.1527 311.96C57.4076 301.434 87.229 199.053 92.2433 179.874C95.4758 167.55 101.553 158.776 113.452 153.463C118.072 151.404 128.676 144.311 133.792 145.038L134.069 145.08L145.106 146.688C145.851 150.241 146.064 154.051 145.195 157.696Z" fill="#564E42"/>
<path d="M35.1972 481.07L34.0995 481.264C30.9966 481.774 27.8462 481.935 24.7074 481.744C18.5 481.356 16.117 489.914 16.7533 497.97L9.43555 494.179L18.5127 473.644L35.1972 481.07Z" fill="#FDB2D0"/>
<path d="M49.8736 533.356L4.09951 510.269C2.46954 509.45 1.1973 508.063 0.524526 506.369C-0.148254 504.675 -0.174695 502.793 0.450189 501.082C1.74829 497.554 4.21085 493.655 8.85603 492.263C9.21405 492.162 9.59686 492.196 9.93142 492.358L16.6733 495.558C16.6733 500.519 17.8664 505.642 20.0108 508.74C24.4778 515.182 49.0368 525.376 49.8736 533.356Z" fill="#100C4D"/>
<path d="M49.8736 533.356L4.09951 510.269C2.46954 509.45 1.1973 508.063 0.524526 506.369C-0.148254 504.675 -0.174695 502.793 0.450189 501.082C1.74829 497.554 4.21085 493.655 8.85603 492.263C9.21405 492.162 9.59686 492.196 9.93142 492.358L16.6733 495.558C16.6733 500.519 17.8664 505.642 20.0108 508.74C24.4778 515.182 49.0368 525.376 49.8736 533.356Z" fill="#100C4D"/>
<path d="M257.924 483.988L215.137 500.675C213.44 501.342 211.556 501.363 209.844 500.733C208.132 500.103 206.712 498.866 205.853 497.258C204.091 493.931 202.824 489.498 204.899 485.119C205.062 484.786 205.342 484.525 205.685 484.385L210.171 482.507C211.685 483.676 213.69 484.286 216.318 484.096C230.355 483.006 257.307 477.966 257.924 483.988Z" fill="#100C4D"/>
<path d="M260.854 209.028L233.81 209.432L229.391 207.89L198.656 197.165C199.038 195.236 200.355 193.081 203.82 191.845C213.718 188.315 217.959 193.259 233.689 190.256L254.631 204.674L260.832 208.942C260.848 209.006 260.854 209.028 260.854 209.028Z" fill="#FFCAE1"/>
<path d="M638.077 231.044C637.548 231.507 636.975 231.916 636.365 232.265C633.95 233.676 630.918 234.137 627.157 233.444L616.047 231.391C616.228 217.942 616.817 207.299 617.705 201.729C621.819 175.899 600.661 172.378 585.379 153.005C570.098 133.633 601.835 111.327 592.433 107.803C591.374 107.406 590.635 106.532 590.136 105.315C591.65 105.092 593.166 104.887 594.682 104.698C610.136 102.792 626.909 116.755 630.635 131.075C631.799 135.524 634.698 145.757 637.549 158.125C640.752 172.015 643.912 188.598 644.523 202.685C645.111 215.476 643.578 226.23 638.077 231.044Z" fill="#FFB037"/>
<path d="M593.362 98.1964C593.336 98.2778 593.304 98.3574 593.267 98.4348C592.481 99.6265 591.676 100.742 590.97 101.683C590.499 102.318 590.076 102.855 589.729 103.297C589.69 103.351 589.648 103.402 589.602 103.449C589.567 103.256 589.532 103.062 589.5 102.855C589.359 101.956 589.273 101.048 589.242 100.138C589.56 99.7155 589.942 99.2292 590.33 98.689C590.47 98.511 590.607 98.3236 590.741 98.1297C591.04 97.7261 591.342 97.3035 591.651 96.8586L591.746 96.7314C591.842 96.5884 591.927 96.4486 592.029 96.3024C592.176 96.0895 592.322 95.8734 592.468 95.6669L593.362 98.1964Z" fill="#F19C63"/>
<path d="M596.271 106.414C596.255 106.491 596.23 106.576 596.207 106.659C594.715 112.249 592.857 115.449 591.117 117.295C591.088 117.33 591.058 117.361 591.025 117.391C594.003 112.529 595.714 109.033 592.44 107.803C590.9 107.228 590.035 105.645 589.596 103.449C589.561 103.256 589.526 103.062 589.494 102.855C590.013 102.501 590.504 102.109 590.964 101.683C591.961 100.783 592.746 99.6741 593.261 98.4348C593.303 98.3776 593.344 98.3172 593.379 98.26L596.271 106.414Z" fill="#FDB2D0"/>
<path d="M613.895 149.513C613.895 149.513 614.124 150.148 614.531 151.312" stroke="#F9F9E8" stroke-miterlimit="10" stroke-linecap="round"/>
<path d="M615.729 154.988C620.273 169.066 631.173 206.953 624.791 229.141" stroke="#F9F9E8" stroke-miterlimit="10" stroke-linecap="round" stroke-dasharray="12.19 12.19"/>
<path d="M624.218 230.987C624.006 231.597 623.78 232.192 623.54 232.77" stroke="#F9F9E8" stroke-miterlimit="10" stroke-linecap="round"/>
<path d="M596.271 106.414C596.255 106.491 596.23 106.577 596.207 106.659C594.715 112.249 592.857 115.449 591.117 117.295C591.088 117.33 591.058 117.361 591.024 117.391C594.002 112.529 595.714 109.033 592.44 107.803C590.9 107.228 590.035 105.645 589.596 103.449C589.561 103.256 589.526 103.062 589.494 102.855C589.353 101.956 589.267 101.048 589.236 100.138C589.554 99.7155 589.936 99.2292 590.324 98.689C590.464 98.511 590.601 98.3236 590.735 98.1297C591.034 97.7261 591.336 97.3035 591.645 96.8586L591.74 96.7314C591.836 96.5884 591.922 96.4486 592.023 96.3024C592.17 96.0895 592.316 95.8734 592.463 95.6669L593.357 98.2092C593.33 98.2905 593.298 98.3701 593.261 98.4475C593.302 98.3903 593.344 98.3299 593.379 98.2727L596.271 106.414Z" fill="#FDB2D0"/>
<path d="M599.112 79.7806C599.075 79.9422 599.025 80.1006 598.963 80.2541L596.347 86.6099C596.513 88.3545 595.326 90.9667 593.802 93.5313C593.376 94.2526 592.921 94.9645 592.463 95.6573C592.316 95.8797 592.17 96.0958 592.024 96.2929C591.012 97.7896 590 99.1529 589.236 100.132C588.708 87.7157 594.792 65.9314 581.585 74.731C574.703 79.323 569.154 80.0158 564.977 79.18V79.0465C565.017 76.1228 565.461 73.2185 566.294 70.4154L583.156 62.7376L594.041 76.7203L594.559 76.0847C594.77 75.8215 595.034 75.6062 595.334 75.4531C595.635 75.2999 595.964 75.2124 596.301 75.1965C596.638 75.1806 596.975 75.2365 597.288 75.3606C597.602 75.4847 597.885 75.6742 598.12 75.9163C598.672 76.4832 599.045 77.199 599.195 77.9756C599.307 78.5755 599.279 79.1934 599.112 79.7806Z" fill="#F2AE87"/>
<path d="M599.112 79.7806C599.075 79.9422 599.025 80.1006 598.963 80.2541L596.347 86.6099C596.513 88.3545 595.326 90.9667 593.802 93.5313C593.376 94.2526 592.921 94.9645 592.463 95.6573C592.316 95.8797 592.17 96.0958 592.024 96.2929C591.012 97.7896 590 99.1529 589.236 100.132C588.708 87.7157 594.792 65.9314 581.585 74.731C574.703 79.323 569.154 80.0158 564.977 79.18V79.0465C565.017 76.1228 565.461 73.2185 566.294 70.4154L583.156 62.7376L594.041 76.7203L594.559 76.0847C594.77 75.8215 595.034 75.6062 595.334 75.4531C595.635 75.2999 595.964 75.2124 596.301 75.1965C596.638 75.1806 596.975 75.2365 597.288 75.3606C597.602 75.4847 597.885 75.6742 598.12 75.9163C598.672 76.4832 599.045 77.199 599.195 77.9756C599.307 78.5755 599.279 79.1934 599.112 79.7806Z" fill="#FDB2D0"/>
<g opacity="0.17">
<path opacity="0.17" d="M638.077 231.044C637.548 231.507 636.975 231.916 636.365 232.265C633.95 233.676 630.918 234.137 627.158 233.444L616.047 231.391C616.14 224.631 616.14 217.799 616.814 211.075C617.536 203.889 618.946 196.596 617.215 189.436C615.739 183.325 612.077 177.917 607.651 173.445C600.391 166.108 591.861 161.22 585.38 153.005C570.108 133.62 601.835 111.327 592.433 107.803C591.374 107.406 590.636 106.532 590.136 105.315C591.651 105.092 593.166 104.887 594.683 104.698C610.136 102.792 626.909 116.755 630.635 131.075C631.8 135.524 634.698 145.757 637.549 158.125C640.753 172.015 643.912 188.598 644.523 202.685C645.111 215.476 643.578 226.23 638.077 231.044Z" fill="black"/>
</g>
<path d="M579.484 378.059L599.048 238.176C599.048 238.176 595.972 229.319 595.972 228.143" stroke="#100C4D" stroke-width="1.5" stroke-linecap="round" stroke-linejoin="round" stroke-dasharray="12 12"/>
<path d="M563.656 53.1723C559.023 55.3682 555.45 58.8384 555.065 64.6793C554.518 73.3009 561.46 82.4405 570.375 76.8284C572.965 75.1981 575.291 72.945 577.305 70.6506C578.291 69.5288 583.398 64.1264 583.137 62.7472C583.137 62.7472 585.876 77.2256 594.024 76.7299L594.543 76.0943C594.753 75.8309 595.017 75.6153 595.318 75.4619C595.618 75.3084 595.947 75.2207 596.284 75.2045C596.621 75.1882 596.958 75.2438 597.271 75.3677C597.585 75.4915 597.869 75.6808 598.103 75.9227C598.511 76.3402 598.822 76.8412 599.016 77.3909C599.086 77.5844 599.14 77.7831 599.179 77.9851L599.3 78.0805C599.007 77.8485 599.204 75.3252 599.179 74.9503C599.048 72.9545 598.883 70.9239 598.596 68.9441C597.865 63.888 596.14 58.3585 592.427 54.7103C585.822 48.2243 578.282 48.8472 569.704 51.0717C567.627 51.5829 565.602 52.2861 563.656 53.1723Z" fill="#422224"/>
<path d="M599.309 78.0614L599.191 77.966C599.042 77.1895 598.668 76.4737 598.116 75.9068C597.881 75.6647 597.598 75.4752 597.284 75.3511C596.971 75.227 596.635 75.1711 596.298 75.187C595.961 75.2029 595.631 75.2904 595.331 75.4436C595.03 75.5967 594.766 75.8121 594.556 76.0752L594.037 76.7108C586.14 77.1938 583.325 63.602 583.153 62.7694C583.318 64.209 578.294 69.5192 577.318 70.6347C575.304 72.9323 572.981 75.179 570.388 76.8125C561.479 82.4246 554.531 73.285 555.078 64.6666C555.368 60.1159 557.601 57.0048 560.764 54.8152C561.681 54.1871 562.647 53.6334 563.653 53.1595C565.598 52.2699 567.622 51.5615 569.698 51.0431C578.288 48.8185 585.819 48.183 592.424 54.6817C596.137 58.3331 597.861 63.8563 598.596 68.9154C598.714 69.7544 598.813 70.5997 598.895 71.4578C599.013 72.6209 599.099 73.7839 599.175 74.9343C599.217 75.3061 599.023 77.8326 599.309 78.0614Z" fill="#342DEC"/>
<path d="M592.596 58.7462C591.896 57.3558 591.018 56.0622 589.984 54.8978C588.958 53.7265 587.79 52.6877 586.507 51.8057C583.929 50.0369 580.909 49.0181 577.786 48.863C576.233 48.7861 574.676 48.8703 573.141 49.1141C571.601 49.341 570.083 49.6917 568.6 50.1628C565.626 51.0879 562.86 52.5804 560.455 54.5578C558.037 56.528 556.169 59.0882 555.031 61.9909C553.941 64.9143 553.66 68.0768 554.216 71.1463C554.45 72.6818 554.925 74.1706 555.626 75.5572C555.995 76.2392 556.454 76.8687 556.991 77.429C557.534 77.981 558.173 78.43 558.877 78.7541C560.312 79.3734 561.895 79.5665 563.437 79.3103C564.98 79.0856 566.476 78.6066 567.862 77.893C566.48 78.6182 564.986 79.11 563.443 79.3484C561.892 79.6191 560.296 79.437 558.846 78.8241C558.135 78.4964 557.488 78.0444 556.937 77.4894C556.395 76.9225 555.93 76.288 555.553 75.6017C554.843 74.2034 554.36 72.7018 554.121 71.1527C553.555 68.065 553.83 64.8822 554.916 61.9368C556.057 59.0092 557.935 56.4258 560.37 54.437C562.796 52.4544 565.583 50.9597 568.578 50.0357C570.069 49.5673 571.594 49.2198 573.141 48.9965C574.684 48.7568 576.248 48.6769 577.808 48.7582C580.948 48.9223 583.981 49.9555 586.567 51.7422C587.848 52.6363 589.011 53.688 590.029 54.8724C591.048 56.0478 591.911 57.3498 592.596 58.7462Z" fill="#422224"/>
<path d="M623.531 133.029C624.059 149.605 606.957 151.807 606.957 151.807L587.072 155.014L581.59 155.894L574.32 134.319L583.76 130.236L608.151 119.685C608.151 119.685 623.002 116.447 623.531 133.029Z" fill="#FFB037"/>
<path d="M530.665 185.979L496.536 187.339L474.974 188.197L256.078 196.911L253.055 197.032L248.108 197.225L225.903 198.106L220.946 198.306C219.62 198.359 218.343 198.82 217.289 199.624C216.234 200.429 215.454 201.539 215.054 202.803C214.794 203.6 214.697 204.442 214.768 205.278C215.118 209.683 215.604 214.088 216.228 218.495C216.336 219.296 216.457 220.084 216.581 220.901C217.022 223.867 217.528 226.827 218.099 229.783C218.258 230.628 218.417 231.473 218.595 232.325C221.17 244.982 224.664 257.435 229.05 269.586L504.016 302.251C505.348 302.408 506.697 302.148 507.875 301.506C509.052 300.863 510.001 299.871 510.589 298.667C526.965 265.099 537.429 228.702 537.388 192.945V192.414C537.387 191.546 537.21 190.686 536.868 189.888C536.526 189.089 536.026 188.368 535.398 187.767C534.77 187.166 534.028 186.698 533.214 186.391C532.401 186.084 531.534 185.943 530.665 185.979Z" fill="#FFB037"/>
<path d="M529.956 184.708L496.285 183.062L474.574 181.997L222.27 169.632C221.361 169.589 220.471 169.354 219.659 168.942C218.847 168.53 218.132 167.951 217.561 167.243C216.99 166.535 216.575 165.714 216.345 164.834C216.115 163.954 216.074 163.035 216.225 162.138C229.225 87.7761 300.297 31.1527 375.682 31.1527C440.906 31.1527 501.229 71.677 525.801 132.057C531.703 146.652 535.377 162.05 536.701 177.736C536.779 178.651 536.659 179.572 536.351 180.437C536.042 181.302 535.552 182.091 534.914 182.751C534.275 183.412 533.502 183.928 532.647 184.265C531.792 184.603 530.874 184.754 529.956 184.708Z" fill="#FFB037"/>
<path d="M249.578 294.059L497.309 304.228C498.406 304.273 499.473 304.597 500.409 305.169C501.346 305.741 502.12 306.542 502.66 307.497C503.2 308.451 503.487 309.528 503.493 310.624C503.5 311.72 503.227 312.8 502.699 313.761C487.966 340.292 469.887 364.825 448.904 386.761C448.303 387.384 447.582 387.879 446.784 388.216C445.986 388.554 445.128 388.727 444.262 388.724H307.111C306.245 388.727 305.386 388.554 304.588 388.216C303.79 387.879 303.068 387.384 302.466 386.761C278.778 362.03 258.913 333.912 243.523 303.332C243.031 302.33 242.808 301.217 242.876 300.103C242.944 298.988 243.301 297.911 243.911 296.976C244.522 296.041 245.365 295.28 246.359 294.769C247.352 294.258 248.461 294.013 249.578 294.059Z" fill="#FFB037"/>
<path d="M516.631 195.382V195.865C516.666 228.337 507.863 261.387 494.08 291.872C493.062 294.097 490.847 295.422 488.55 295.13L257.16 265.461C253.461 254.395 250.522 243.091 248.363 231.626C248.216 230.851 248.073 230.082 247.946 229.319C247.469 226.63 247.044 223.94 246.673 221.247C246.575 220.519 246.466 219.792 246.381 219.064C245.857 215.066 245.447 211.066 245.152 207.064C245.09 206.307 245.171 205.545 245.391 204.817C245.753 203.555 246.53 202.45 247.596 201.681C248.403 201.106 249.358 200.775 250.348 200.727L254.519 200.546L273.208 199.749L277.37 199.571L279.915 199.46L464.131 191.547L481.878 190.784L503.443 189.856L510.997 189.538C514.067 189.402 516.631 192.061 516.631 195.382Z" fill="url(#paint0_linear)"/>
<path d="M502.251 178.594C502.005 178.616 501.757 178.622 501.51 178.613L480.323 177.561L473.518 177.243L455.468 176.337L245.707 165.898C244.944 165.856 244.199 165.653 243.52 165.302C242.841 164.952 242.245 164.462 241.77 163.864C241.294 163.267 240.951 162.576 240.763 161.836C240.574 161.097 240.545 160.326 240.676 159.574C251.494 96.8522 310.574 49.1014 373.249 49.1014C427.483 49.1014 477.625 83.2858 498.051 134.202C502.962 146.527 506.018 159.511 507.119 172.73C507.247 174.152 506.807 175.566 505.895 176.665C504.983 177.763 503.673 178.457 502.251 178.594Z" fill="url(#paint1_linear)"/>
<path d="M483.473 313.307L271.719 303.675C267.535 303.484 264.675 308.327 266.549 312.468C279.855 341.886 297.455 368.983 316.93 391.416C317.419 391.994 318.026 392.459 318.712 392.78C319.397 393.1 320.144 393.27 320.901 393.275H438.131C438.887 393.27 439.633 393.101 440.318 392.781C441.003 392.46 441.61 391.996 442.099 391.419C459.018 371.923 475.124 348.254 488.083 322.339C490.055 318.376 487.564 313.491 483.473 313.307Z" fill="url(#paint2_linear)"/>
<path opacity="0.79" d="M364.578 391.607L367.375 158.986C367.384 158.233 367.243 157.485 366.961 156.787C366.678 156.089 366.26 155.453 365.73 154.917C365.2 154.381 364.569 153.956 363.873 153.665C363.177 153.375 362.431 153.225 361.677 153.225V153.225C360.928 153.225 360.187 153.372 359.495 153.658C358.804 153.944 358.176 154.364 357.646 154.893C357.117 155.422 356.698 156.049 356.411 156.74C356.125 157.431 355.978 158.172 355.979 158.919V158.986C355.977 159.734 356.124 160.475 356.409 161.167C356.695 161.859 357.115 162.487 357.644 163.017C358.173 163.546 358.802 163.966 359.494 164.253C360.186 164.54 360.928 164.687 361.677 164.687H396.866C397.616 164.687 398.359 164.538 399.052 164.25C399.745 163.962 400.374 163.54 400.903 163.009C401.432 162.477 401.851 161.847 402.136 161.153C402.42 160.459 402.565 159.717 402.561 158.967V158.9C402.561 158.153 402.414 157.412 402.128 156.721C401.842 156.03 401.422 155.403 400.893 154.874C400.364 154.345 399.735 153.925 399.044 153.639C398.352 153.353 397.611 153.206 396.862 153.206H396.077C395.328 153.206 394.587 153.353 393.895 153.639C393.204 153.925 392.575 154.345 392.046 154.874C391.517 155.403 391.097 156.03 390.811 156.721C390.525 157.412 390.378 158.153 390.378 158.9V398.039" stroke="#434343" stroke-width="8" stroke-linecap="round" stroke-linejoin="round"/>
<path d="M402.083 488.275C402.21 488.275 402.331 488.224 402.421 488.135C402.51 488.046 402.561 487.924 402.561 487.798C402.561 487.672 402.51 487.55 402.421 487.461C402.331 487.372 402.21 487.321 402.083 487.321C401.956 487.321 401.835 487.372 401.745 487.461C401.656 487.55 401.605 487.672 401.605 487.798C401.605 487.924 401.656 488.046 401.745 488.135C401.835 488.224 401.956 488.275 402.083 488.275Z" fill="#96ACAD"/>
<path d="M451.831 383.732H304.671C301.143 383.732 298.282 386.589 298.282 390.113V406.104C298.282 409.628 301.143 412.485 304.671 412.485H451.831C455.359 412.485 458.22 409.628 458.22 406.104V390.113C458.22 386.589 455.359 383.732 451.831 383.732Z" fill="#85A9FF"/>
<path d="M452.149 412.489H304.989C301.461 412.489 298.601 415.346 298.601 418.87V434.861C298.601 438.385 301.461 441.242 304.989 441.242H452.149C455.678 441.242 458.538 438.385 458.538 434.861V418.87C458.538 415.346 455.678 412.489 452.149 412.489Z" fill="#4052F2"/>
<path d="M458.856 455.622C458.858 457.826 458.35 460.001 457.374 461.978C456.675 463.387 455.753 464.675 454.644 465.791C454.5 465.934 454.354 466.071 454.205 466.198C451.556 468.651 448.077 470.013 444.466 470.011H313.319C311.41 470.04 309.515 469.689 307.744 468.979C305.973 468.269 304.36 467.214 303.001 465.877C301.641 464.539 300.561 462.944 299.824 461.185C299.088 459.427 298.708 457.539 298.708 455.633C298.708 453.727 299.088 451.839 299.824 450.081C300.561 448.322 301.641 446.728 303.001 445.39C304.36 444.052 305.973 442.997 307.744 442.287C309.515 441.577 311.41 441.226 313.319 441.255H444.466C448.281 441.256 451.94 442.769 454.638 445.463C457.336 448.157 458.854 451.811 458.856 455.622Z" fill="#18186D"/>
<path d="M458.856 455.622C458.857 457.826 458.35 460.001 457.373 461.978C456.355 463.411 455.302 464.822 454.192 466.195C436.604 488.36 409.06 500.78 378.542 500.78C348.104 500.78 321.327 488.424 303.729 466.354C302.533 464.85 301.378 463.319 300.274 461.743C299.241 459.549 298.779 457.131 298.932 454.712C299.085 452.293 299.848 449.952 301.149 447.906C302.451 445.861 304.249 444.177 306.376 443.011C308.504 441.845 310.892 441.236 313.319 441.239H444.465C446.356 441.239 448.228 441.612 449.974 442.335C451.721 443.058 453.307 444.117 454.644 445.453C455.98 446.789 457.04 448.374 457.762 450.119C458.485 451.864 458.857 453.734 458.856 455.622Z" fill="#342DEC"/>
<path d="M509.313 149.643C509.487 149.562 509.677 149.519 509.869 149.519C510.061 149.519 510.25 149.562 510.424 149.643L510.643 149.742L515.416 151.915L521.585 154.734C522.934 155.35 524.443 155.529 525.899 155.246L528.416 154.756L531.324 154.191L533.796 161.182L532.768 161.449L528.489 162.568L528.292 162.618L518.68 167.63C517.714 168.133 516.651 168.425 515.563 168.484C514.475 168.543 513.386 168.369 512.371 167.973L503.564 164.538C502.822 164.25 502.16 163.788 501.632 163.192C501.105 162.596 500.728 161.883 500.532 161.112L500.376 160.496L499.848 158.433L499.428 156.771C499.375 156.564 499.373 156.348 499.421 156.14C499.47 155.931 499.567 155.738 499.706 155.576C499.845 155.413 500.021 155.286 500.219 155.206C500.417 155.125 500.631 155.093 500.844 155.112L502.645 155.268C502.645 155.268 513.341 157.81 515.152 156.345L509.107 151.849C508.929 151.716 508.789 151.54 508.699 151.338C508.609 151.136 508.573 150.914 508.593 150.694C508.613 150.473 508.69 150.262 508.816 150.08C508.941 149.897 509.112 149.75 509.31 149.653L509.313 149.643Z" fill="#FFCAE1"/>
<path d="M281.477 217.545L280.84 220.125L280.02 223.322L279.781 224.276C279.477 225.473 278.892 226.58 278.073 227.506C277.255 228.432 276.227 229.149 275.075 229.598L265.212 233.441L261.394 234.928C259.818 235.544 258.127 235.815 256.437 235.723C254.747 235.632 253.096 235.179 251.595 234.397L236.676 226.614L236.358 226.535L234.98 226.176L229.715 224.8L228.124 224.38L229.002 221.889L231.939 213.601L231.964 213.528L233.969 213.919L234.767 214.075L236.476 214.392L240.383 215.152C242.644 215.595 244.988 215.319 247.083 214.361L256.657 209.985L264.045 206.61L264.391 206.457C264.842 206.253 265.352 206.222 265.824 206.37C266.296 206.518 266.696 206.835 266.949 207.26C267.201 207.685 267.287 208.188 267.191 208.673C267.095 209.157 266.823 209.589 266.428 209.886L257.07 216.877C259.88 219.172 276.478 215.209 276.478 215.209L279.278 214.964C279.609 214.934 279.943 214.984 280.251 215.109C280.559 215.234 280.832 215.432 281.048 215.685C281.263 215.938 281.415 216.239 281.489 216.563C281.564 216.886 281.56 217.223 281.477 217.545Z" fill="#FFCAE1"/>
<path d="M236.091 226.001C235.725 226.058 235.359 226.125 234.987 226.179C212.308 229.783 183.762 226.278 159.999 221.155C159.706 221.095 159.42 221.028 159.133 220.961C149.793 218.941 140.572 216.403 131.514 213.36C129.119 212.557 126.817 211.735 124.606 210.894C116.509 207.83 111.091 204.856 107.559 201.859C106.114 200.147 104.922 198.238 104.018 196.19C102.783 193.345 102.103 190.292 102.014 187.193C102.014 187.126 102.014 187.059 102.014 186.986C102.548 184.028 103.605 180.948 104.616 177.72C105.267 175.427 105.784 173.099 106.166 170.747C106.188 170.63 106.213 170.503 106.233 170.382C106.551 170.017 106.885 169.68 107.225 169.359C113.907 163.105 123.992 165.307 123.992 165.307L146.938 175.228C155.175 180.599 164.04 186.033 173.346 191.025C173.845 191.292 174.342 191.566 174.841 191.829C192.722 201.328 212.066 210.328 231.929 213.604C232.607 213.725 233.278 213.824 233.959 213.922C234.223 213.963 234.484 214.002 234.748 214.036V214.078L235.944 224.883L236.091 226.001Z" fill="#FFCAE1"/>
<path d="M529.218 154.785L608.148 119.685C608.148 119.685 623 116.447 623.528 133.032C624.056 149.618 606.958 151.817 606.958 151.817L528.598 162.202" fill="#FFCAE1"/>
<path d="M581.587 155.891L606.957 151.81C606.957 151.81 624.056 149.608 623.527 133.026C622.999 116.444 608.147 119.679 608.147 119.679L574.32 134.297L581.587 155.891Z" fill="#FFB037"/>
<g opacity="0.1">
<path opacity="0.1" d="M623.531 133.029C624.059 149.605 606.958 151.807 606.958 151.807L587.072 155.014C586.497 154.378 585.94 153.698 585.392 153.005C579.417 145.432 580.62 137.408 583.76 130.236L608.151 119.685C608.151 119.685 623.003 116.447 623.531 133.029Z" fill="black"/>
</g>
<g opacity="0.66">
<path opacity="0.66" d="M493.434 178.594C493.188 178.616 492.94 178.622 492.693 178.613L471.506 177.561C469.127 162.081 464.825 147.711 458.605 134.659C445.36 106.872 427.893 94.5387 427.721 94.4243C425.415 92.8005 423.84 90.3361 423.337 87.5629C422.833 84.7897 423.442 81.93 425.031 79.6009C426.62 77.2718 429.062 75.66 431.83 75.1134C434.598 74.5668 437.47 75.1291 439.827 76.6791C440.715 77.2733 461.497 91.6151 477.335 124.007C485.41 140.535 490.819 158.859 493.434 178.594Z" fill="#434343"/>
<path opacity="0.66" d="M485.92 278.052C485.191 280.777 483.418 283.107 480.983 284.537C478.549 285.967 475.648 286.383 472.909 285.694C470.171 285.006 467.813 283.269 466.346 280.858C464.879 278.447 464.421 275.557 465.07 272.811C472.452 243.502 475.102 215.87 473.069 190.781L494.631 189.853C496.737 217.008 493.81 246.676 485.92 278.052Z" fill="#434343"/>
</g>
<path d="M158.23 77.3622C155.794 79.2052 153.038 80.5822 150.101 81.4236C144.454 83.1142 138.8 82.2816 133.938 86.2952C127.238 91.8375 126.652 100.914 129.118 108.68C128.943 108.744 128.762 108.801 128.574 108.855L127.661 108.286C127.291 108.055 126.876 107.906 126.443 107.848C126.01 107.79 125.57 107.825 125.152 107.95C124.734 108.075 124.348 108.288 124.018 108.573C123.689 108.859 123.424 109.212 123.242 109.608C122.923 110.294 122.759 111.042 122.761 111.798C122.76 112.063 122.779 112.327 122.819 112.589L122.714 112.761C122.714 112.761 120.486 99.0449 121.527 87.862C121.829 84.51 123.408 81.4018 125.939 79.1798C128.47 76.9578 131.758 75.7918 135.125 75.9227C141.733 76.1865 150.718 77.0222 158.23 77.3622Z" fill="#01017F"/>
<path d="M122.819 112.589C122.942 113.373 123.241 114.12 123.694 114.772C123.814 114.951 123.946 115.122 124.088 115.284L130.025 121.903C130.732 124.722 134.728 128.32 138.657 131.284L138.734 131.345C138.735 131.325 138.735 131.305 138.734 131.284C137.661 124.338 130.261 111.067 128.94 108.744L128.578 108.855L127.665 108.286C127.294 108.055 126.879 107.906 126.447 107.848C126.014 107.79 125.574 107.825 125.156 107.95C124.738 108.075 124.351 108.288 124.022 108.573C123.692 108.859 123.428 109.212 123.245 109.608C122.925 110.294 122.76 111.041 122.762 111.798C122.763 112.063 122.783 112.327 122.822 112.589" fill="#FDB2D0"/>
<path d="M138.323 170.347C135.043 174.637 131.343 178.73 128.778 182.61C123.564 190.476 117.28 199.453 117.006 209.171L116.86 209.095C116.491 208.907 116.109 208.707 115.727 208.478C115.533 208.374 115.333 208.262 115.132 208.138C112.266 206.494 109.704 204.37 107.557 201.859C106.114 200.148 104.923 198.24 104.019 196.193C100.344 187.809 101.305 175.053 108.114 168.408C112.317 164.306 118.553 163.168 124.149 164.404C127.84 165.227 131.301 166.855 134.693 168.536C135.908 169.127 137.118 169.731 138.323 170.347Z" fill="#434343"/>
<path opacity="0.1" d="M138.323 170.347C135.043 174.637 131.343 178.73 128.778 182.61C123.564 190.476 117.28 199.453 117.006 209.171L116.86 209.095C116.491 208.907 116.109 208.707 115.727 208.478C115.533 208.374 115.333 208.262 115.132 208.138C112.266 206.494 109.704 204.37 107.557 201.859C106.114 200.148 104.923 198.24 104.019 196.193C100.344 187.809 101.305 175.053 108.114 168.408C112.317 164.306 118.553 163.168 124.149 164.404C127.84 165.227 131.301 166.855 134.693 168.536C135.908 169.127 137.118 169.731 138.323 170.347Z" fill="#FFB037"/>
<path d="M175.039 191.448L174.851 191.833L173.26 195.049L163.645 213.966L159.56 222.01H159.531L130.919 213.722L129.474 213.306L123.821 211.796C122.362 211.425 120.934 210.945 119.548 210.36C119.46 210.327 119.374 210.288 119.29 210.245C119.102 210.169 118.908 210.083 118.708 209.994C118.161 209.746 117.591 209.483 116.996 209.177C117.107 204.992 118.342 200.944 120.124 197.063C122.475 191.931 125.784 187.094 128.752 182.623C131.326 178.743 135.026 174.65 138.297 170.36C150.893 176.792 162.92 184.171 175.039 191.448Z" fill="#434343"/>
<path opacity="0.04" d="M124.487 189.157C124.092 189.792 123.7 190.428 123.318 191.089C123.642 190.407 124.033 189.76 124.487 189.157Z" fill="#FFB037"/>
<path d="M160 221.155C170.185 223.37 180.476 225.067 190.833 226.239C199.004 227.184 207.224 227.65 215.449 227.635C219.372 227.612 223.295 227.453 227.202 227.11C230.769 226.792 234.676 225.455 237.959 227.228L247.387 232.312C249.913 233.679 252.509 235.068 255.341 235.49C258.704 235.977 262.156 235.033 265.143 233.418C265.121 232.023 264.189 230.758 263.005 230.028C261.822 229.297 260.406 229.02 259.015 228.89C256.209 228.632 253.359 228.918 250.575 228.483C247.527 228.003 244.692 226.681 241.812 225.585C238.645 224.393 235.401 223.415 232.102 222.658C223.83 220.713 215.329 219.881 206.919 218.673C198.37 217.446 189.869 216.267 181.253 215.47C175.386 214.923 169.513 214.408 163.637 213.963L160 221.155Z" fill="#FDB2D0"/>
<path opacity="0.04" d="M114.11 203.279C114.45 203.472 114.784 203.654 115.113 203.824C114.785 203.655 114.451 203.477 114.11 203.279Z" fill="#FFB037"/>
<path opacity="0.04" d="M163.572 214.075C163.349 214.504 160.62 219.881 159.541 222.003L130.929 213.715L129.484 213.299L123.83 211.79C122.372 211.419 120.944 210.939 119.558 210.353C119.469 210.32 119.383 210.282 119.3 210.239C119.112 210.163 118.918 210.077 118.718 209.988C118.17 209.74 117.601 209.476 117.006 209.171C117.117 204.986 118.352 200.937 120.133 197.057C120.869 195.665 121.644 194.288 122.456 192.926C117.712 203.076 132.733 209.769 141.167 211.71C146.62 213.004 152.382 213.185 157.877 213.617C158.424 213.661 163.171 214.519 163.572 214.075Z" fill="#FFB037"/>
<path d="M598.911 71.4546C591.928 68.8805 585.393 56.1467 585.393 56.1467C585.393 56.1467 581.867 63.7736 567.763 62.6042C561.378 62.0767 560.169 58.5365 560.764 54.8247C561.681 54.1966 562.647 53.6429 563.653 53.1691C565.598 52.2795 567.622 51.571 569.698 51.0526C578.288 48.8281 585.819 48.1925 592.424 54.6913C596.137 58.3426 597.861 63.8658 598.596 68.925C598.73 69.7639 598.829 70.622 598.911 71.4546Z" fill="#0600A0"/>
<defs>
<linearGradient id="paint0_linear" x1="272.168" y1="295.956" x2="509.344" y2="179.131" gradientUnits="userSpaceOnUse">
<stop stop-color="white" stop-opacity="0"/>
<stop offset="1" stop-color="#F8D660" stop-opacity="0.6"/>
</linearGradient>
<linearGradient id="paint1_linear" x1="522162" y1="182758" x2="634456" y2="69060.8" gradientUnits="userSpaceOnUse">
<stop stop-color="white" stop-opacity="0"/>
<stop offset="1" stop-color="#F8D660" stop-opacity="0.6"/>
</linearGradient>
<linearGradient id="paint2_linear" x1="465033" y1="177756" x2="526680" y2="102344" gradientUnits="userSpaceOnUse">
<stop stop-color="white" stop-opacity="0"/>
<stop offset="1" stop-color="#F8D660" stop-opacity="0.6"/>
</linearGradient>
</defs>
</svg>
