<svg width="516" height="686" viewBox="0 0 516 686" fill="none" xmlns="http://www.w3.org/2000/svg">
<path d="M469.273 366.678C465.156 332.701 472.669 294.135 484.639 270.298" stroke="#4055EC" stroke-width="2" stroke-linecap="round" stroke-linejoin="round"/>
<path d="M386.94 487.032C378.834 462.972 381.817 436.909 385.881 411.933" stroke="#4055EC" stroke-width="2" stroke-linecap="round" stroke-linejoin="round"/>
<path d="M32.9994 393.783H143.023C143.825 393.783 144.475 394.404 144.475 395.17V648.481C144.475 649.247 143.825 649.868 143.023 649.868H32.9994C32.1976 649.868 31.5476 649.247 31.5476 648.481V395.17C31.5476 394.404 32.1976 393.783 32.9994 393.783Z" fill="#D3E0F1"/>
<path d="M60.9331 685.611L326.537 684.533C358.481 684.406 384.29 661.627 384.126 633.646L381.313 50.4575C381.175 22.4664 355.149 -0.141014 323.193 0.000662267L57.5898 1.07335C25.6504 1.2049 -0.132141 23.9844 0.000305176 51.9603L2.79794 635.154C2.94629 663.145 28.9726 685.742 60.9331 685.611Z" fill="#4052F2"/>
<path d="M17.6341 56.8373L20.384 626.071C20.4847 645.683 38.7063 661.49 61.0925 661.409L106.342 661.227L128.919 661.136L326.156 660.331C330.323 660.322 334.468 659.742 338.464 658.611C354.799 653.986 366.573 640.532 366.488 624.71L365.317 381.913L365.216 362.053L365.047 327.297L364.628 240.009L363.738 55.4711C363.637 35.8692 345.41 20.0522 323.024 20.1331L277.955 20.3153L259.845 20.3912C252.957 20.3912 247.367 25.5674 247.393 31.8871L247.441 40.074C247.467 46.3938 241.893 51.5447 234.984 51.57L167.592 51.8483L134.615 51.9748C127.727 51.9748 122.078 46.9149 122.052 40.58L122.015 32.3982C121.978 26.0734 116.361 20.9781 109.452 21.0034L57.9611 21.2109C53.6782 21.2197 49.42 21.8318 45.3241 23.0273C37.0551 25.3761 29.7935 30.1967 24.6069 36.78C21.4322 40.8327 19.2585 45.5187 18.2487 50.4872C17.8268 52.5796 17.621 54.7065 17.6341 56.8373Z" fill="white"/>
<path d="M62.3006 408.528H324.582V423.94H62.3006V408.528Z" fill="#9FC3FD"/>
<path d="M71.679 103.682C71.679 104.243 127.663 104.694 196.724 104.694C265.785 104.694 321.769 104.248 321.769 103.682C321.769 103.115 265.8 102.67 196.724 102.67C127.647 102.67 71.679 103.125 71.679 103.682Z" fill="#9FC3FD"/>
<path d="M71.679 497.248C71.679 497.809 127.663 498.26 196.724 498.26C265.785 498.26 321.769 497.809 321.769 497.248C321.769 496.686 265.8 496.236 196.724 496.236C127.647 496.236 71.679 496.696 71.679 497.248Z" fill="#455A64"/>
<g opacity="0.44">
<path opacity="0.44" d="M58.7769 135.671H321.721V359.104H58.7769V135.671Z" fill="#9FC3FD"/>
<path opacity="0.44" d="M301.332 339.977L228.594 225.002L169.097 298.492L132.951 259.465L79.1655 339.977H301.332Z" fill="#4055EC"/>
<path opacity="0.44" d="M143.738 202.668C143.738 211.847 152.216 219.285 162.665 219.285C173.113 219.285 181.591 211.847 181.591 202.668C181.591 193.489 173.113 186.046 162.665 186.046C152.216 186.046 143.738 193.464 143.738 202.668Z" fill="#4055EC"/>
</g>
<path d="M79.1655 340.599C79.205 340.296 79.2245 339.99 79.2238 339.684C79.2238 339.016 79.261 338.166 79.2874 337.078C79.2874 334.705 79.3563 331.345 79.4093 327.024C79.4729 318.164 79.5683 305.347 79.6901 289.075C79.8226 256.439 80.0133 209.964 80.22 154.169L79.1603 155.11L301.305 155.267C301.607 155.495 298.958 153.198 300.076 154.199V179.499C300.076 187.874 300.076 196.168 300.076 204.378C300.076 220.797 300.076 236.872 300.108 252.523C300.15 283.813 300.193 313.398 300.225 340.615L301.316 339.658L140.686 340.164L95.3789 340.412L83.3567 340.529L80.2464 340.579C79.8799 340.575 79.5136 340.594 79.1497 340.635C79.4706 340.68 79.7949 340.699 80.1192 340.69L83.1183 340.746L94.9233 340.857L139.961 341.105L301.295 341.611H302.392V340.65C302.423 313.433 302.466 283.848 302.508 252.558C302.508 236.908 302.508 220.833 302.54 204.413C302.54 196.2 302.54 187.907 302.54 179.534V154.235C303.658 155.196 301.019 152.854 301.263 153.102L79.1179 153.258H78.0582V154.205C78.286 210.247 78.4767 256.92 78.588 289.712C78.7046 305.904 78.8053 318.635 78.8688 327.444C78.9165 331.689 78.9642 334.983 78.9907 337.316C78.9907 338.358 79.033 339.178 79.0542 339.845C79.0633 340.1 79.1005 340.353 79.1655 340.599Z" fill="white"/>
<path d="M45.329 23.0433L364.5 327.839L365.03 327.333L364.612 240.045L167.581 51.844L134.604 51.9705C127.715 51.9705 122.067 46.9106 122.041 40.5757L122.004 32.3939C121.967 26.0691 116.35 20.9738 109.441 20.9991L57.95 21.2066C53.6714 21.2235 49.4187 21.8424 45.329 23.0433Z" fill="url(#paint0_linear)"/>
<path d="M18.2544 50.4826L365.307 381.903L365.217 362.053L24.6073 36.7805C21.4352 40.8322 19.2634 45.5163 18.2544 50.4826Z" fill="url(#paint1_linear)"/>
<path d="M87.8384 531.432L74.306 661.491H110.384L147.616 539.912L87.8384 531.432Z" fill="#FFCAE1"/>
<path d="M334.188 499.56C336.588 489.744 343.449 481.274 348.928 472.864C349.089 472.611 349.328 472.411 349.613 472.292C349.897 472.174 350.213 472.142 350.518 472.202C351.195 471.519 352.008 470.974 352.91 470.598C353.812 470.221 354.784 470.022 355.768 470.011C363.038 470.011 368.363 479.078 372.406 483.672C381.943 494.5 392.217 504.691 402.125 515.18C402.226 514.765 402.337 514.345 402.432 513.935C404.223 506.305 406.09 498.695 408.033 491.105C410.74 480.545 413.114 469.555 416.511 459.021C412.693 454.327 409.51 449.193 407.037 443.74C404.483 438.017 401.547 429.446 406.613 424.184C411.238 419.382 417.639 422.767 420.076 427.786C421.258 430.225 421.899 432.882 422.53 435.508C422.941 435.462 423.355 435.444 423.769 435.452C425.99 435.518 428.072 436.56 429.826 437.779C431.619 439.045 433.285 440.468 434.801 442.03C436.344 443.594 437.629 445.373 438.611 447.307C438.664 447.399 438.696 447.5 438.705 447.604C438.714 447.708 438.699 447.813 438.663 447.911C438.626 448.01 438.568 448.1 438.492 448.175C438.417 448.251 438.325 448.31 438.224 448.349C441.933 468.806 442.092 490.078 441.609 510.788C441.371 521.054 441.027 531.397 438.907 541.491C437.154 549.835 434.414 559.403 428.353 565.915C415.583 579.642 394.866 571.223 381.842 562.687C373.774 557.305 366.173 551.312 359.112 544.765C352.674 538.88 346.183 532.621 341.097 525.603C335.586 517.958 331.909 508.901 334.188 499.56Z" fill="#FFCAE1"/>
<path d="M458.931 273.136C462.989 265.956 469.098 261.2 478.222 263.234C482.207 264.12 485.582 266.634 488.454 269.422C501.875 282.451 507.857 301.805 511.852 319.302C517.458 343.843 517.537 369.258 511.137 393.682C508.488 403.731 501.202 422.711 486.875 414.817C477.338 409.58 471.541 397.953 467.117 388.804C454.464 362.63 449.632 333.536 451.221 304.841C451.666 297.115 453.41 282.892 458.931 273.136ZM457.871 305.965C456.313 332.089 460.197 358.526 470.778 382.262C474.487 390.56 480.082 404.298 488.147 409.003C500.285 416.087 506.644 398.767 508.959 389.604C514.586 367.341 513.977 341.029 509.378 318.72C506.103 302.848 499.591 284.162 488.258 272.398C485.836 269.868 482.959 267.611 479.59 266.832C471.833 265.04 466.603 269.412 463.09 275.975C458.337 284.885 458.305 298.931 457.887 305.965H457.871Z" fill="white"/>
<path d="M423.83 372.755L404.13 377.033C403.897 377.083 403.695 377.22 403.567 377.413C403.44 377.606 403.398 377.84 403.451 378.062L422.96 459.995C423.34 461.591 424.368 462.978 425.819 463.85C427.27 464.722 429.024 465.008 430.696 464.645L439.547 462.724C441.218 462.361 442.671 461.378 443.584 459.993C444.497 458.607 444.797 456.932 444.417 455.335L424.905 373.388C424.852 373.166 424.708 372.972 424.506 372.851C424.304 372.729 424.06 372.689 423.827 372.74L423.83 372.755Z" fill="#F54B56"/>
<path d="M415.964 411.751C417.662 409.924 419.655 408.368 421.867 407.141C424.802 405.623 428.172 405.046 431.505 404.783C432.935 404.644 434.375 404.634 435.807 404.753C440.904 405.259 445.466 408.436 448.237 412.56C451.008 416.684 452.132 421.668 452.211 426.551C452.312 432.587 450.812 438.801 447.008 443.618C445.799 445.076 444.493 446.459 443.098 447.757C442.944 447.908 442.859 447.979 442.7 448.131C442.51 447.822 441.005 445.601 440.581 445.009C439.781 443.906 437.932 441.761 437.9 441.735C437.596 441.161 437.227 440.622 436.798 440.126C434.365 437.851 431.094 436.579 427.69 436.584C426.635 436.548 425.583 436.695 424.585 437.02C423.794 437.392 422.97 437.694 422.121 437.92C421.386 438.007 420.64 437.896 419.967 437.6C419.294 437.304 418.72 436.835 418.311 436.245C417.509 435.044 417.189 433.606 417.411 432.197C417.472 431.885 417.481 431.566 417.437 431.251C417.255 430.762 416.936 430.33 416.515 430.002C415.964 429.502 415.528 428.897 415.235 428.227C414.942 427.557 414.799 426.836 414.814 426.11C414.891 425.695 414.923 425.273 414.91 424.851C414.82 424.112 414.242 423.52 413.908 422.827C413.378 421.754 413.49 420.504 413.638 419.325C413.998 416.32 413.649 414.098 415.964 411.751Z" fill="#FFCAE1"/>
<g style="mix-blend-mode:multiply">
<g style="mix-blend-mode:multiply">
<path d="M417.571 430.458C418.524 429.952 419.494 429.446 420.485 428.97C422.49 428.054 424.584 427.327 426.737 426.8C431.014 425.688 435.475 425.372 439.877 425.869C439.934 425.875 439.989 425.892 440.039 425.919C440.089 425.945 440.133 425.981 440.168 426.024C440.24 426.11 440.272 426.22 440.259 426.329C440.245 426.439 440.187 426.538 440.097 426.607C440.006 426.675 439.891 426.706 439.777 426.694C435.501 426.243 431.174 426.688 427.097 427.999C425.134 428.655 423.246 429.502 421.465 430.529C420.619 431.009 419.806 431.541 419.033 432.123C418.471 432.548 417.941 432.983 417.364 433.342C417.346 432.957 417.36 432.571 417.406 432.189C417.468 431.877 417.477 431.557 417.433 431.242C417.369 431.058 417.27 430.886 417.141 430.736L417.571 430.458Z" fill="#FFCAE1"/>
</g>
<g style="mix-blend-mode:multiply">
<path d="M414.588 424.041H414.615C415.624 423.251 416.686 422.524 417.794 421.865C419.949 420.555 422.262 419.497 424.682 418.713C429.508 417.161 434.633 416.642 439.693 417.195C439.863 417.221 440.016 417.309 440.12 417.441C440.223 417.572 440.27 417.737 440.249 417.9C440.229 418.064 440.143 418.213 440.009 418.318C439.876 418.422 439.706 418.473 439.534 418.46C434.608 417.961 429.629 418.635 425.042 420.423C422.834 421.277 420.729 422.356 418.764 423.641C417.747 424.309 416.773 425.036 415.849 425.817C415.536 426.103 415.201 426.367 414.848 426.606C414.848 426.439 414.806 426.277 414.816 426.1C414.893 425.685 414.925 425.262 414.912 424.84C414.857 424.557 414.747 424.286 414.588 424.041Z" fill="#FFCAE1"/>
</g>
<g style="mix-blend-mode:multiply">
<path d="M413.962 417.049C416.932 414.658 420.348 412.823 424.03 411.64C428.368 410.157 433.051 409.849 437.562 410.749C438.245 410.891 438.145 411.903 437.435 411.797C433.139 411.146 428.739 411.577 424.671 413.046C421.025 414.352 417.618 416.684 414.784 419.204C414.529 419.432 414.068 419.933 413.549 420.368C413.549 420.014 413.607 419.665 413.65 419.316C413.745 418.547 413.793 417.828 413.846 417.15C413.878 417.125 413.962 417.084 413.962 417.049Z" fill="#FFCAE1"/>
</g>
</g>
<path d="M143.865 410.203C144.082 414.125 144.614 418.026 145.454 421.871C148.242 434.296 154.073 445.913 162.468 455.772C162.701 456.05 162.934 456.324 163.178 456.592C166.517 460.446 170.259 463.964 174.347 467.091C180.512 471.889 187.608 475.478 195.229 477.651C207.537 481.026 220.238 479.943 232.737 478.39C245.602 476.791 258.535 474.681 270.791 469.105C283.046 463.529 296.372 456.754 304.388 442.869C311.006 431.404 314.869 416.558 314.127 402.112C313.981 399.066 313.614 396.033 313.03 393.035C310.323 379.217 301.575 365.049 299.048 351.185C297.35 341.756 297.824 332.086 300.436 322.85C302.025 317.405 304.346 312.411 305.914 306.967C312.803 283.236 303.265 254.425 287.227 241.437C271.506 228.696 271.638 231.008 254.514 240.035C252.511 241.083 245.835 240.86 238.745 240.172C230.188 239.337 221.006 237.834 218.706 237.136C213.005 235.373 206.83 235.637 201.317 237.88C180.652 246.259 179.02 274.569 177.648 294.206C176.504 310.554 177.728 329.256 171.687 344.708C165.976 359.306 155.082 367.68 148.649 381.711C145.825 387.859 144.283 394.922 143.881 402.158C147.659 400.918 150.726 400.013 152.512 399.496C153.158 398.434 154.218 397.103 155.045 396.825C165.642 393.313 176.08 389.943 186.613 387.064C184.197 392.069 180.859 396.122 176.233 398.813C172.705 400.87 169.021 402.673 165.213 404.207C161.76 405.613 158.221 406.816 154.616 407.81C151.079 408.791 147.491 409.59 143.865 410.203Z" fill="#342DEC"/>
<path d="M308.681 398.485L341.902 414.196C346.141 416.22 350.412 418.244 353.867 421.28C358.232 425.155 360.967 430.387 363.642 435.447C372.745 452.755 382.265 469.857 392.201 486.754C393.863 489.582 394.762 492.76 394.818 496.002C394.875 499.245 394.087 502.45 392.524 505.329C381.625 525.411 355.069 567.823 336.424 543.601C332.445 536.108 330.161 527.916 327.909 519.795C323.633 504.393 319.336 488.839 318.637 472.92C318.107 460.412 319.781 447.904 319.802 435.386C319.824 422.868 318.88 412.779 312.024 402.108" fill="#FFB200"/>
<path d="M106.336 661.232L128.913 661.141L326.149 660.337C330.317 660.327 334.462 659.748 338.458 658.616C325.095 639.187 325.238 609.966 324.152 599.477C321.932 578.225 327.617 559.651 332.677 540.459C335.904 528.229 338.882 515.746 339.385 502.156C339.793 491.414 336.958 480.398 335.327 469.813C332.399 450.866 327.864 432.178 321.768 413.932C320.634 410.537 319.415 407.101 317.296 404.166L314.154 402.097L295.768 390.004C286.503 385.797 276.708 382.749 266.626 380.937C255.808 378.947 244.778 378.208 233.775 378.736C231.126 379.469 229.139 380.83 229.462 383.29C230.363 390.181 226.76 397.933 224.053 398.793C223.106 398.955 222.147 399.044 221.186 399.061C213.455 399.491 192.044 399.856 174.506 399.775C171.513 401.428 168.414 402.902 165.229 404.187C161.776 405.593 158.237 406.796 154.632 407.789C161.954 423.799 163.432 439.666 163.189 456.581C163.189 457.786 163.146 459 163.109 460.214C162.955 465.937 162.632 471.766 162.314 477.767C161.143 499.423 149.799 525.643 141.47 550.027C139.541 555.658 137.761 561.199 136.346 566.552L106.336 661.232Z" fill="#FFB200"/>
<path fill-rule="evenodd" clip-rule="evenodd" d="M204.497 307.493C202.029 307.48 199.613 308.166 197.553 309.464C195.494 310.763 193.884 312.615 192.927 314.788C191.97 316.96 191.709 319.355 192.177 321.669C192.645 323.982 193.821 326.112 195.556 327.788C197.292 329.463 199.508 330.61 201.926 331.082C204.344 331.555 206.854 331.332 209.139 330.442C211.425 329.552 213.382 328.035 214.765 326.083C216.147 324.131 216.892 321.831 216.906 319.474C216.916 317.909 216.602 316.358 215.984 314.908C215.366 313.459 214.454 312.14 213.302 311.028C212.149 309.915 210.778 309.03 209.268 308.423C207.757 307.817 206.136 307.501 204.497 307.493Z" fill="#FDB2D0"/>
<path fill-rule="evenodd" clip-rule="evenodd" d="M221.165 399.057C222.161 402.416 223.342 405.518 224.042 407.658C226.887 416.402 229.812 427.063 237.405 433.418C246.412 440.942 263.32 437.699 270.912 429.684C276.539 423.739 278.023 415.349 278.002 407.608C278.002 405.022 277.663 387.368 274.791 386.726C272.995 386.331 268.215 382.283 266.928 381.226C266.817 381.13 266.711 381.044 266.605 380.942C258.583 373.798 260.702 356.149 267.087 349.278C271.914 344.066 221.785 337.023 221.785 337.023C221.912 347.537 224.471 358.274 225.303 368.9L245.676 378.144C245.676 378.144 238.57 377.431 233.754 378.762C231.105 379.495 229.118 380.856 229.441 383.316C230.342 390.207 226.739 397.959 224.031 398.819C223.084 398.97 222.125 399.05 221.165 399.057Z" fill="#FFCAE1"/>
<path fill-rule="evenodd" clip-rule="evenodd" d="M286.951 308.804C284.485 308.863 282.093 309.62 280.077 310.977C278.061 312.334 276.512 314.232 275.624 316.43C274.737 318.627 274.552 321.027 275.092 323.326C275.632 325.624 276.874 327.718 278.66 329.343C280.446 330.968 282.696 332.051 285.126 332.455C287.556 332.859 290.057 332.567 292.313 331.614C294.569 330.661 296.479 329.092 297.801 327.103C299.123 325.114 299.799 322.796 299.742 320.441C299.703 318.875 299.341 317.331 298.677 315.899C298.012 314.466 297.059 313.172 295.872 312.092C294.684 311.011 293.285 310.164 291.754 309.6C290.223 309.036 288.591 308.765 286.951 308.804Z" fill="#FDB2D0"/>
<path fill-rule="evenodd" clip-rule="evenodd" d="M247.663 248.667C224.159 249.218 205.465 269.701 206.122 294.175L207.209 334.624C207.866 359.098 227.634 378.644 251.133 378.138C274.632 377.587 293.331 357.11 292.674 332.63L291.587 292.187C290.93 267.687 271.167 248.115 247.663 248.667Z" fill="#FFCAE1"/>
<path fill-rule="evenodd" clip-rule="evenodd" d="M207.395 282.108C206.435 286.062 206.006 290.117 206.118 294.175L207.204 334.624C207.808 357.13 224.567 375.487 245.538 377.87C233.05 374.672 248.914 378.098 249.2 378.118C225.791 376.6 219.91 347.471 219.624 338.651L218.887 315.73C218.193 294.069 230.671 291.443 239.26 291.19L281.87 289.935C287.376 289.778 289.516 294.555 289.516 294.555L291.588 292.951V292.177C291.243 279.213 285.532 267.631 276.752 259.677C255.484 264.297 220.127 272.13 217.721 273.663C216.413 274.487 212.168 278.029 207.395 282.108Z" fill="#FDB2D0"/>
<path opacity="0.1" d="M106.336 661.233L128.913 661.142C133.074 650.907 138.02 638.966 143.749 625.318C166.294 571.916 176.324 437.663 176.324 437.663L163.078 460.21C162.924 465.932 162.601 471.761 162.283 477.762C161.112 499.419 149.768 525.639 141.439 550.022C139.51 555.654 137.73 561.194 136.315 566.548L106.336 661.233Z" fill="#EDEDED"/>
<path fill-rule="evenodd" clip-rule="evenodd" d="M216.651 282.857C216.651 282.857 247.207 285.154 262.409 275.303C268.152 271.579 273.954 267.713 280.424 265.239C284.281 263.761 290.623 261.459 293.983 265.097C296.171 267.47 295.471 270.369 294.216 272.925C292.273 276.768 291.019 280.895 290.507 285.134C288.917 299.57 290.978 314.107 293.039 328.477C293.151 308.986 301.798 292.101 306.053 273.542C307.642 266.559 308.373 259.121 305.915 252.371C299.917 235.907 276.376 227.366 260.47 235.719C253.248 239.514 245.353 242.049 237.087 242.525C232.43 242.798 227.746 242.434 223.089 242.758C214.881 243.34 207.866 247.256 204.178 254.395C202.631 257.386 202.906 260.821 201.725 263.908C198.996 271.037 192.59 276.396 192.299 284.345C192.066 290.502 194.127 296.64 196.76 302.444C198.461 306.193 200.999 309.639 204.48 312.002C206.038 313.054 206.642 314.891 206.684 316.556L207.214 337.24C222.082 336.795 221.181 299.514 216.651 282.857Z" fill="#342DEC"/>
<path d="M89.2957 541.804L141.465 550.021C142.105 550.123 142.763 550.005 143.322 549.69C143.882 549.374 144.306 548.88 144.522 548.295C148.316 537.983 165.128 492.384 171.412 477.645C172.75 474.221 173.735 470.681 174.353 467.075C177.897 448.287 177.696 416.866 165.345 404.332C165.308 404.282 165.255 404.236 165.213 404.186C162.358 401.206 158.441 399.353 154.229 398.989C154.229 398.989 153.609 399.151 152.507 399.495C150.721 400.001 147.653 400.917 143.876 402.157C139.239 403.675 133.522 405.663 127.747 408.021C119.142 411.563 110.431 415.844 105.022 420.519C91.1766 432.465 86.2225 460.795 83.4991 469.539C82.1268 473.971 75.1539 491.129 68.6049 506.982C67.135 510.554 66.5197 514.394 66.8042 518.222C67.0886 522.051 68.2656 525.77 70.249 529.108C72.2323 532.446 74.9719 535.318 78.2674 537.515C81.5628 539.711 85.3308 541.177 89.2957 541.804Z" fill="#FFB200"/>
<path d="M152.507 399.496C153.609 399.178 154.229 398.99 154.229 398.99C158.438 399.354 162.354 401.205 165.208 404.182C169.016 402.647 172.7 400.844 176.229 398.788C180.854 396.096 184.176 392.043 186.608 387.039C176.075 389.918 165.658 393.288 155.04 396.8C154.213 397.078 153.154 398.409 152.507 399.496Z" fill="#FFB200"/>
<path opacity="0.1" d="M152.507 399.496C153.609 399.178 154.229 398.99 154.229 398.99C158.438 399.354 162.354 401.205 165.208 404.182C169.016 402.647 172.7 400.844 176.229 398.788C180.854 396.096 184.176 392.043 186.608 387.039C176.075 389.918 165.658 393.288 155.04 396.8C154.213 397.078 153.154 398.409 152.507 399.496Z" fill="#EDEDED"/>
<path d="M143.876 402.132C147.654 400.893 150.722 399.987 152.507 399.471C153.154 398.408 154.213 397.078 155.04 396.799L155.358 396.693C166.192 393.116 175.603 386.429 182.303 377.547C189.003 368.665 192.665 358.022 192.786 347.076C193.104 317.795 190.211 285.564 205.99 273.901C220.079 263.477 231.201 250.625 238.751 240.161C230.194 239.327 221.012 237.824 218.712 237.126C213.011 235.363 206.835 235.627 201.322 237.869C180.658 246.248 179.026 274.558 177.654 294.196C176.509 310.544 177.733 329.245 171.693 344.698C165.981 359.296 155.088 367.67 148.655 381.701C145.831 387.859 144.268 394.897 143.876 402.132Z" fill="#0600A0"/>
<path fill-rule="evenodd" clip-rule="evenodd" d="M297.018 279.836L289.6 287.425C289.6 287.425 285.478 273.855 254.667 278.98C223.857 284.106 282.32 250.676 289.171 253.939C296.022 257.203 302.2 267.196 297.018 279.836Z" fill="#0600A0"/>
<path d="M458.93 273.136C458.93 273.136 449.536 292.961 423.096 302.696C396.657 312.431 396.074 313.24 379.982 313.62C363.891 313.999 351.227 317.946 344.35 334.593C337.202 351.903 340.725 371.434 353.686 381.65C366.646 391.866 384.385 389.487 389.074 388.698C393.764 387.909 403.746 385.09 423.557 388.192C443.368 391.294 463.826 400.179 471.456 405.396C476.422 408.775 481.569 411.906 486.874 414.777C486.874 414.777 496.348 400.746 495.882 370.897C495.416 341.049 486.048 301.856 484.156 298.577C482.265 295.298 469.357 263.507 458.93 273.136Z" fill="#F54B56"/>
<path d="M458.931 273.136C462.989 265.956 469.098 261.2 478.222 263.234C482.207 264.12 485.582 266.634 488.454 269.422C501.875 282.451 507.857 301.805 511.852 319.302C517.458 343.843 517.537 369.258 511.137 393.682C508.488 403.731 501.202 422.705 486.875 414.817C477.338 409.58 471.541 397.953 467.117 388.804C454.464 362.63 449.632 333.536 451.221 304.841C451.666 297.115 453.41 282.892 458.931 273.136Z" fill="#575757"/>
<path d="M376.872 313.746C377.9 313.686 378.933 313.645 379.988 313.62C385.816 313.483 389.599 313.286 393.314 312.608C391.51 316.062 390.07 319.679 389.017 323.406C386.945 330.965 387.088 339.349 387.808 347.086C388.513 354.39 390.13 361.587 392.625 368.524C394.718 374.531 397.565 380.273 401.102 385.627C401.389 386.052 401.685 386.472 401.987 386.892C395.693 387.256 391.613 388.263 389.091 388.683C388.397 388.799 387.385 388.951 386.171 389.093C385.472 388.318 384.799 387.529 384.158 386.704C381.548 383.348 379.274 379.765 377.365 376.003C372.114 365.615 369.274 353.476 368.935 341.975C368.623 332.017 370.657 321.756 376.872 313.746Z" fill="#F54B56"/>
<path d="M461.971 371.292C467.799 363.778 480.648 356.239 489.073 351.452C489.286 351.396 489.481 351.292 489.643 351.149C489.804 351.005 489.927 350.826 490.001 350.628C490.075 350.429 490.097 350.216 490.067 350.008C490.036 349.799 489.953 349.6 489.825 349.429C485.973 340.397 483.377 330.272 485.295 320.699C475.191 321.711 462.511 320.046 453.764 316.57C454.195 321.056 454.625 325.546 455.056 330.039C455.899 338.783 456.752 347.602 459.512 355.976C460.959 360.363 462.941 364.78 462.527 369.359" fill="#FCAA23"/>
<path d="M479.547 324.251C481.058 321.388 484.496 319.394 487.85 320.573C489.331 321.157 490.615 322.12 491.559 323.356C495.464 328.072 496.757 334.993 496.275 340.863C495.941 344.936 494.902 351.058 489.456 351.367C484.009 351.676 480.703 345.017 479.267 340.913C477.466 335.836 477.397 330.345 479.071 325.228C479.208 324.919 479.373 324.611 479.547 324.251Z" fill="white"/>
<path fill-rule="evenodd" clip-rule="evenodd" d="M221.165 399.056C222.126 399.039 223.085 398.949 224.031 398.788C226.739 397.928 230.342 390.186 229.441 383.284C229.118 380.83 231.083 379.469 233.754 378.73C230.813 378.872 227.926 379.095 225.011 379.414C224.344 380.704 222.982 381.635 220.651 383.188C218.224 386.887 219.448 393.348 221.165 399.056Z" fill="#FDB2D0"/>
<path fill-rule="evenodd" clip-rule="evenodd" d="M174.47 399.77C191.997 399.851 213.419 399.487 221.15 399.057C219.433 393.349 218.209 386.888 220.62 383.194C222.951 381.641 224.329 380.709 224.98 379.419C224.604 379.455 224.233 379.495 223.862 379.541C211.014 381.059 198.716 383.71 186.577 387.039C184.161 392.044 180.823 396.096 176.197 398.788C175.651 399.127 175.063 399.451 174.47 399.77Z" fill="#FFB200"/>
<path opacity="0.1" fill-rule="evenodd" clip-rule="evenodd" d="M174.47 399.77C191.997 399.851 213.419 399.487 221.15 399.057C219.433 393.349 218.209 386.888 220.62 383.194C222.951 381.641 224.329 380.709 224.98 379.419C224.604 379.455 224.233 379.495 223.862 379.541C211.014 381.059 198.716 383.71 186.577 387.039C184.161 392.044 180.823 396.096 176.197 398.788C175.651 399.127 175.063 399.451 174.47 399.77Z" fill="#EDEDED"/>
<path fill-rule="evenodd" clip-rule="evenodd" d="M225.013 379.419C227.9 379.1 230.841 378.877 233.755 378.736C238.571 377.405 245.677 378.118 245.677 378.118L225.304 368.874C225.532 371.66 225.605 374.455 225.521 377.248C225.522 377.999 225.349 378.74 225.013 379.419Z" fill="#FDB2D0"/>
<path d="M127.748 407.996C141.413 414.644 163.603 405.678 163.603 405.678C164.233 405.291 164.816 404.838 165.341 404.327C165.304 404.277 165.251 404.231 165.208 404.181C162.354 401.204 158.439 399.353 154.23 398.989C154.23 398.989 153.61 399.151 152.508 399.495C150.722 400.001 147.654 400.917 143.877 402.157C139.24 403.639 133.523 405.638 127.748 407.996Z" fill="#FFB200"/>
<path opacity="0.1" d="M127.748 407.996C141.413 414.644 163.603 405.678 163.603 405.678C164.233 405.291 164.816 404.838 165.341 404.327C165.304 404.277 165.251 404.231 165.208 404.181C162.354 401.204 158.439 399.353 154.23 398.989C154.23 398.989 153.61 399.151 152.508 399.495C150.722 400.001 147.654 400.917 143.877 402.157C139.24 403.639 133.523 405.638 127.748 407.996Z" fill="#EDEDED"/>
<defs>
<linearGradient id="paint0_linear" x1="222.273" y1="338.641" x2="197.292" y2="10.4743" gradientUnits="userSpaceOnUse">
<stop stop-color="white" stop-opacity="0"/>
<stop offset="1" stop-color="white"/>
</linearGradient>
<linearGradient id="paint1_linear" x1="-803345" y1="471885" x2="-1.03067e+06" y2="471885" gradientUnits="userSpaceOnUse">
<stop stop-color="white" stop-opacity="0"/>
<stop offset="1" stop-color="white"/>
</linearGradient>
</defs>
</svg>
