<svg width="71" height="64" viewBox="0 0 71 64" fill="none" xmlns="http://www.w3.org/2000/svg">
<path d="M31.6722 19.3352C35.4947 18.2881 37.7284 14.3896 36.6653 10.6244C36.0043 8.28299 34.2245 6.54946 32.0545 5.81997L51.2423 0.564453L56.323 18.5587C56.9999 16.2957 58.8155 14.4209 61.2882 13.7424C65.1146 12.6953 69.0724 14.8994 70.1355 18.6607C71.1986 22.4297 68.961 26.3282 65.1385 27.3754C62.6659 28.0539 60.1295 27.3675 58.3616 25.7752L63.4423 43.7694L43.2192 49.3073C45.9188 49.7191 48.2521 51.6409 49.0285 54.3981C50.0916 58.1671 47.8539 62.0656 44.0354 63.1128C40.217 64.16 36.2552 61.9558 35.1921 58.1907C34.4117 55.4335 35.4031 52.6018 37.4975 50.8761L19.5758 55.7865L14.2761 37.0157C13.8501 39.667 11.9031 41.9614 9.10789 42.7261C5.28943 43.7733 1.3276 41.5692 0.264479 37.804C-0.798638 34.0389 1.4391 30.1404 5.25756 29.0932C8.05272 28.3284 10.9235 29.3011 12.6755 31.3523L7.37581 12.5854L24.2583 7.96139C22.7811 9.68707 22.1639 12.0795 22.8249 14.4209C23.892 18.1782 27.8538 20.3824 31.6722 19.3352Z" fill="#FFB037"/>
</svg>
