<svg width="566" height="646" viewBox="0 0 566 646" fill="none" xmlns="http://www.w3.org/2000/svg">
<path opacity="0.14" d="M557.917 616.26H89.3922C84.9283 616.26 81.3096 620.203 81.3096 625.067V637.111C81.3096 641.975 84.9283 645.918 89.3922 645.918H557.917C562.381 645.918 566 641.975 566 637.111V625.067C566 620.203 562.381 616.26 557.917 616.26Z" fill="#0600A0"/>
<path d="M145.167 493.101H44.1729V521.973H145.167V493.101Z" fill="#E2EAF5"/>
<path d="M308.303 493.11H207.313V521.982H308.303V493.11Z" fill="#E2EAF5"/>
<path d="M471.446 493.138H370.452V522.01H471.446V493.138Z" fill="#E2EAF5"/>
<path d="M402.76 232.397C402.76 232.315 402.76 232.246 402.739 232.182C402.735 232.144 402.735 232.106 402.739 232.068C402.718 231.429 402.953 231.789 402.618 231.497C397.17 226.69 387.927 225.306 380.448 223.699C379.082 223.416 377.787 223.115 376.58 222.786C376.275 222.677 375.961 222.599 375.642 222.553C373.27 222.439 371.569 222.887 370.588 225.749C369.474 228.995 368.372 233.278 367.262 236.748C367.262 236.784 367.236 236.862 367.22 236.916C367.203 236.971 367.178 237.063 367.165 237.131C370.073 237.647 373.375 238.122 377.15 238.578C384.173 239.423 392.829 240.185 403.648 240.998C403.372 238.035 403.083 235.145 402.76 232.397Z" fill="#FFB200"/>
<path d="M351.165 222.056C350.001 223.809 348.274 226.38 346.791 228.585C345.13 226.882 343.622 225.011 342.287 222.997C333.818 210.693 338.759 212.231 338.197 188.938C338.017 181.711 342.421 178.844 348.161 177.479C347.822 180.674 347.512 183.838 347.361 187.217C347.128 191.124 347.216 195.046 347.625 198.936C348.098 203.223 349.301 208.501 351.161 212.596C351.082 212.651 350.939 212.596 350.876 212.697C351.379 213.404 351.874 214.121 352.368 214.829H352.393H352.372C352.372 214.829 352.41 214.865 352.414 214.888C353.311 217.513 352.67 219.796 351.165 222.056Z" fill="#FDB2D0"/>
<path d="M402.733 232.055C402.678 232.032 402.661 232.032 402.678 232.055H402.741H402.733ZM403.349 237.903C403.173 236.022 402.972 234.182 402.762 232.397C402.762 232.315 402.762 232.246 402.741 232.182C402.62 232.128 402.494 232.077 402.36 232.032H402.289L402.372 232.068L402.075 231.959C402.625 233.906 403.05 235.892 403.349 237.903ZM551.502 485.463C550.107 454.924 545.28 424.468 539.728 394.669L539.573 393.824L539.183 394.473C539.183 394.473 533.971 356.99 514.462 312.193C495.359 268.273 463.653 245.295 410.015 241.428L403.621 240.971C403.629 241.064 403.629 241.157 403.621 241.25C403.667 241.647 403.709 242.058 403.742 242.455C403.868 243.884 403.998 245.322 404.124 246.756C404.124 246.838 404.124 246.924 404.124 247.025C404.124 247.125 404.124 247.208 404.145 247.294V247.354C404.308 249.929 404.472 252.504 404.828 255.142L404.895 255.791C404.857 255.928 404.828 256.065 404.794 256.211C404.761 256.357 404.731 256.521 404.694 256.667C404.677 256.781 404.655 256.894 404.627 257.005C404.627 257.069 404.597 257.128 404.585 257.197C404.572 257.265 404.526 257.43 404.505 257.544C404.484 257.658 404.472 257.667 404.455 257.726C403.977 259.334 403.533 260.95 403.009 262.497C402.976 262.602 402.93 262.694 402.896 262.794C402.298 264.65 401.451 266.4 400.382 267.985C400.378 268.001 400.371 268.015 400.361 268.026C400.164 268.318 399.942 268.602 399.712 268.885C399.7 268.901 399.687 268.916 399.674 268.93C395.639 273.838 391.051 273.459 385.738 271.049C385.681 271.022 385.626 270.99 385.574 270.953C380.461 267.986 375.496 264.726 370.699 261.187C370.544 261.082 370.402 260.959 370.259 260.849C369.585 260.311 368.906 259.781 368.248 259.238L366.66 257.923C365.864 260.053 365.026 262.167 364.146 264.264C364.148 264.276 364.148 264.289 364.146 264.301C361.825 269.848 359.311 275.212 356.822 280.568C354.525 285.535 352.275 290.493 350.273 295.597C350.139 295.931 350.004 296.269 349.883 296.597C347.243 303.445 345.085 310.554 343.891 318.293C343.661 318.251 343.447 318.192 343.216 318.137L343.066 318.101H343.045C342.341 323.972 341.642 329.857 340.95 335.756C340.262 341.49 339.579 347.251 338.909 352.999C333.692 397.938 329.016 442.99 325.421 488.107C324.214 503.314 323.171 520.449 322.488 536.286C322.22 542.363 322.002 548.239 321.847 553.745L321.805 554.991C321.126 578.787 320.313 602.473 320.2 625.108H492.414C491.538 617.982 490.654 610.576 489.807 603.541C489.802 603.42 489.788 603.299 489.765 603.18C489.258 598.925 488.764 594.812 488.29 590.963C493.319 589.176 498.301 587.173 503.236 584.955C507.192 583.165 511.282 581.416 515.333 579.476L516.641 578.855C517.692 578.348 518.736 577.819 519.775 577.28C524.437 574.95 528.849 572.067 532.932 568.683C533.397 568.281 533.862 567.875 534.315 567.446C535.713 566.169 537.036 564.797 538.274 563.337C539.512 561.889 540.659 560.353 541.71 558.739C547.329 550.143 550.044 539.286 550.928 528.511C552.018 514.193 552.21 499.81 551.502 485.463ZM463.091 395.523C463.091 395.564 463.091 395.591 463.12 395.614C463.066 395.157 463.016 394.788 462.965 394.441C462.882 393.747 462.819 393.231 462.773 392.888C462.773 392.948 462.802 393.016 462.819 393.085C462.817 393.114 462.817 393.142 462.819 393.171C462.823 393.212 462.823 393.254 462.819 393.295C462.819 393.363 462.84 393.427 462.848 393.505C462.848 393.655 462.89 393.842 462.919 394.025C462.949 394.208 462.961 394.336 462.982 394.509C463.016 394.778 463.062 395.071 463.095 395.422C463.107 395.487 463.114 395.553 463.116 395.619V395.66V395.692C463.116 395.66 463.116 395.646 463.083 395.605C463.146 396.061 463.208 396.591 463.28 397.166C463.255 396.655 463.167 396.107 463.1 395.5L463.091 395.523ZM500.199 514.956C500.064 515.489 499.863 515.999 499.6 516.472C498.422 518.508 496.537 519.777 494.722 520.978C490.32 523.885 485.926 526.776 481.54 529.653L480.509 530.328C480.48 530.1 480.447 529.872 480.417 529.621C479.94 525.968 479.449 522.234 478.955 518.412C478.364 513.847 477.765 509.208 477.157 504.488C476.097 496.27 475.02 487.837 473.939 479.464C473.876 478.966 473.805 478.464 473.747 477.957C473.705 477.633 473.663 477.305 473.629 476.989C473.566 476.506 473.508 476.017 473.437 475.542C473.281 474.337 473.135 473.145 472.971 471.945C472.858 471.032 472.745 470.118 472.619 469.205C472.527 468.47 472.431 467.722 472.343 466.986C472.297 466.617 472.247 466.256 472.205 465.886C472.138 465.43 472.083 464.973 472.029 464.517C471.991 464.302 471.97 464.101 471.949 463.896C471.865 463.275 471.786 462.658 471.702 462.042C471.492 460.412 471.283 458.773 471.073 457.143C470.969 456.331 470.868 455.523 470.763 454.714C470.556 453.098 470.353 451.499 470.151 449.916C469.368 443.721 468.589 437.722 467.847 432.038C467.847 432.015 467.847 431.983 467.847 431.96C467.847 431.859 467.847 431.754 467.805 431.654C467.805 431.654 467.805 431.599 467.805 431.576C467.751 431.12 467.692 430.663 467.629 430.207C467.6 429.951 467.575 429.695 467.537 429.444C467.461 428.805 467.369 428.184 467.29 427.55C467.114 426.098 466.925 424.669 466.741 423.263C466.636 422.413 466.523 421.583 466.422 420.747C466.347 420.131 466.267 419.51 466.192 418.921C466.125 418.464 466.07 418.008 466.012 417.551C465.836 416.204 465.66 414.88 465.484 413.597C465.165 411.146 464.872 408.822 464.583 406.631C464.512 406.092 464.44 405.553 464.369 405.023C464.122 403.138 463.912 401.508 463.728 400.102C463.699 399.878 463.665 399.645 463.644 399.454C463.678 399.677 463.707 399.91 463.732 400.093C463.732 400.193 463.757 400.303 463.778 400.394C463.78 400.427 463.78 400.461 463.778 400.494C463.782 400.525 463.782 400.556 463.778 400.586C463.778 400.663 463.778 400.718 463.799 400.778C463.813 400.831 463.823 400.886 463.829 400.942C463.829 400.942 463.829 400.969 463.829 400.978C463.829 400.988 463.829 401.065 463.829 401.111V401.156C463.831 401.173 463.831 401.19 463.829 401.207C463.831 401.22 463.831 401.234 463.829 401.248C463.833 401.331 463.843 401.413 463.858 401.494C463.86 401.528 463.86 401.561 463.858 401.595V401.65C463.858 401.65 463.858 401.677 463.858 401.695C463.857 401.71 463.857 401.726 463.858 401.741V401.8C463.861 401.814 463.861 401.828 463.858 401.841C463.854 401.861 463.854 401.881 463.858 401.901C463.829 401.631 463.745 400.956 463.619 400.074C463.619 399.969 463.59 399.851 463.569 399.727C463.571 399.708 463.571 399.688 463.569 399.668C463.571 399.65 463.571 399.631 463.569 399.613C463.565 399.602 463.565 399.589 463.569 399.577C463.567 399.559 463.567 399.54 463.569 399.522C463.565 399.484 463.565 399.446 463.569 399.408C463.577 399.36 463.577 399.31 463.569 399.262C463.569 399.166 463.548 399.075 463.539 398.983C463.531 398.892 463.498 398.705 463.485 398.559C463.456 398.276 463.414 397.993 463.38 397.7C463.38 397.591 463.342 397.486 463.33 397.39C463.33 397.39 463.33 397.39 463.33 397.344C463.33 397.299 463.33 397.344 463.33 397.344C463.328 397.309 463.328 397.274 463.33 397.239C463.33 397.075 463.288 396.924 463.267 396.783C463.264 396.768 463.264 396.752 463.267 396.737C463.263 396.707 463.263 396.676 463.267 396.646C463.265 396.635 463.265 396.624 463.267 396.614C463.267 396.614 463.267 396.582 463.267 396.568C463.255 396.5 463.248 396.432 463.246 396.363C463.246 396.23 463.204 396.093 463.188 395.938C463.185 395.923 463.185 395.908 463.188 395.892C463.203 395.926 463.217 395.962 463.229 395.997C463.229 395.997 463.229 396.039 463.229 396.052C463.715 397.577 463.858 398.093 463.9 398.253C463.909 398.272 463.918 398.29 463.929 398.308C463.95 398.308 463.929 398.029 464.486 398.897C464.529 398.956 464.569 399.018 464.604 399.084C464.633 399.117 464.657 399.156 464.675 399.198C464.725 399.275 464.776 399.358 464.826 399.454C464.931 399.636 465.014 399.782 465.086 399.91C465.115 399.946 465.14 399.986 465.161 400.029L465.228 400.134C465.341 400.335 465.404 400.449 465.429 400.504C465.438 400.522 465.451 400.538 465.467 400.549C465.467 400.549 465.488 400.549 465.517 400.59L465.614 400.718C469.347 405.996 470.39 412.401 472.171 418.588C472.666 420.313 473.185 422.021 473.751 423.71C474.203 425.08 475.544 427.317 475.544 428.732C475.573 428.81 475.607 428.892 475.636 428.979C476.122 430.262 476.948 432.585 477.824 435.023C478.98 438.292 480.208 441.758 480.757 443.159C481 443.748 481.146 444.113 481.23 444.31C481.23 444.31 481.23 444.351 481.251 444.364L481.28 444.428C481.288 444.457 481.299 444.485 481.314 444.511C481.315 444.514 481.316 444.518 481.316 444.522C481.316 444.526 481.315 444.53 481.314 444.533C482.223 446.816 483.581 451.085 484.293 453.253C487.695 463.754 490.729 474.415 493.482 485.212C495.078 491.165 502.134 507.583 500.207 514.933L500.199 514.956Z" fill="#FFC236"/>
<path d="M352.605 232.799C351.918 235.789 351.193 238.474 350.473 241.272C349.015 246.961 346.366 253.092 344.996 258.083C343.806 262.465 336.218 280.545 333.93 283.503C333.608 283.928 333.39 284.051 333.31 283.782C333.237 283.506 333.199 283.22 333.197 282.933C332.941 276.746 338.858 248.691 331.018 266.908C330.876 267.232 325.454 270.409 319.801 272.131C315.351 273.5 310.746 273.929 308.488 271.354C304.537 266.862 302.484 269.684 295.473 264.351C289.524 259.813 279.702 235.168 278.353 225.024C278.093 223.07 277.402 222.654 278.013 221.449C278.093 221.312 278.093 221.449 278.126 221.417C282.953 218.952 287.132 215.203 290.278 210.515C292.85 206.766 295.064 202.741 296.885 198.503C297.158 197.864 297.405 197.211 297.64 196.549C298.408 194.365 299.026 192.121 299.488 189.837C299.961 187.555 299.995 185.811 300.137 183.395C300.715 173.265 296.919 165.133 292.909 156.573C289.444 149.168 336.247 140.754 343.404 139.512C345.499 139.142 349.467 138.357 351.755 138.01C351.52 150.752 349.702 163.202 348.332 175.903C348.273 176.442 348.219 176.972 348.156 177.501C342.415 178.871 338.011 181.734 338.192 188.961C338.753 212.245 333.813 210.715 342.281 223.019C343.617 225.034 345.125 226.905 346.785 228.608C348.514 230.325 350.478 231.739 352.605 232.799Z" fill="#FFCAE1"/>
<path fill-rule="evenodd" clip-rule="evenodd" d="M266.469 110.507C269.46 110.489 272.389 111.438 274.886 113.234C277.383 115.03 279.335 117.592 280.495 120.597C281.655 123.602 281.971 126.914 281.404 130.114C280.837 133.315 279.411 136.26 277.307 138.578C275.203 140.895 272.516 142.481 269.585 143.135C266.654 143.789 263.611 143.481 260.841 142.25C258.071 141.019 255.698 138.921 254.022 136.221C252.346 133.521 251.443 130.34 251.426 127.08C251.414 124.915 251.794 122.77 252.544 120.765C253.294 118.761 254.399 116.937 255.796 115.398C257.193 113.859 258.854 112.634 260.686 111.795C262.517 110.956 264.482 110.518 266.469 110.507Z" fill="#FDB2D0"/>
<path fill-rule="evenodd" clip-rule="evenodd" d="M362.72 105.914C365.602 105.897 368.425 106.812 370.831 108.542C373.237 110.273 375.117 112.742 376.235 115.637C377.353 118.532 377.659 121.724 377.112 124.808C376.566 127.892 375.193 130.73 373.166 132.964C371.139 135.198 368.55 136.727 365.726 137.357C362.902 137.988 359.97 137.692 357.3 136.507C354.63 135.323 352.343 133.302 350.727 130.701C349.111 128.099 348.239 125.035 348.222 121.894C348.21 119.807 348.576 117.738 349.299 115.806C350.021 113.873 351.086 112.115 352.432 110.631C353.779 109.147 355.38 107.967 357.145 107.157C358.91 106.348 360.805 105.926 362.72 105.914Z" fill="#FDB2D0"/>
<path fill-rule="evenodd" clip-rule="evenodd" d="M311.714 25.8081C340.207 25.6164 363.646 53.1601 363.806 87.0179L364.069 142.959C364.224 176.812 341.045 204.662 312.556 204.854C284.064 205.041 260.624 177.497 260.465 143.644L260.201 87.7027C260.042 53.8494 283.221 25.9953 311.714 25.8081Z" fill="#FFCAE1"/>
<path fill-rule="evenodd" clip-rule="evenodd" d="M361.791 70.3853C363.108 75.8137 363.785 81.4026 363.806 87.0174L364.07 142.959C364.213 174.086 344.628 200.142 319.32 204.278C316.835 204.561 315.243 204.734 314.895 204.771H314.87C343.166 201.721 349.153 161.225 349.153 149.017V117.31C349.153 87.3461 333.935 84.2142 323.522 84.2142H271.858C265.184 84.2142 262.783 90.9072 262.783 90.9072L260.206 88.7751V87.7022C260.122 69.7735 266.583 53.534 276.912 42.1887C302.849 47.7084 345.986 57.0997 348.956 59.1267C350.57 60.2225 355.849 64.9432 361.791 70.3853Z" fill="#FDB2D0"/>
<path fill-rule="evenodd" clip-rule="evenodd" d="M253.142 70.8872L262.461 81.0866C262.461 81.0866 266.919 62.1625 304.441 67.9972C341.964 73.832 269.844 30.0031 261.673 34.7877C253.502 39.5724 246.379 53.6251 253.142 70.8872Z" fill="#0600A0"/>
<path fill-rule="evenodd" clip-rule="evenodd" d="M370.586 110.228C368.072 110.228 366.425 111.283 365.407 112.748C364.428 114.272 363.928 116.099 363.982 117.958L364.188 146.561C346.133 146.561 345.751 95.0023 350.608 71.805C350.608 71.805 313.684 76.2107 294.879 63.2127C276.074 50.2147 260.177 44.1837 255.358 51.2419C250.791 57.9487 269.186 76.0417 261.773 106.813C261.354 108.484 260.403 136.946 259.846 138.685C259.661 127.554 256.389 99.093 253.003 91.9754C242.897 70.7184 227.088 54.7345 247.615 22.8536C260.227 3.2904 281.634 -5.87714 291.577 4.02088C307.919 20.2923 327.365 17.7174 342.671 17.9777C357.701 18.2607 368.734 21.3242 368.872 47.8224C368.889 47.8224 392.923 56.6383 370.586 110.228Z" fill="#342DEC"/>
<path d="M364.56 625.154H262.405C264.559 552.151 266.724 479.146 268.9 406.137C269.892 372.501 270.889 338.869 271.892 305.239L281.785 295.351C282.723 294.437 283.662 293.474 284.596 292.547C285.853 291.278 287.11 290.009 288.392 288.749L289.649 287.48L292.105 285.023L298.981 278.175C301.051 276.107 303.108 274.039 305.186 271.975C306.443 271.929 307.675 271.893 308.924 271.852C311.857 271.751 314.819 271.669 317.769 271.578C318.15 271.555 318.527 271.546 318.909 271.532C319.449 271.532 320.002 271.5 320.543 271.477L321.947 271.432C326.078 271.31 330.21 271.181 334.341 271.044L340.052 270.861L356.607 270.332C356.607 270.994 356.636 271.651 356.649 272.313C356.711 275.089 356.772 277.863 356.833 280.636C356.867 282.293 356.909 283.955 356.947 285.617C356.967 286.53 356.988 287.443 357.001 288.333C358.04 334.573 359.071 380.8 360.093 427.015C360.236 433.087 360.375 439.161 360.512 445.236C361.867 505.196 363.216 565.169 364.56 625.154Z" fill="#85A9FF"/>
<path d="M180.032 359.012C180.034 359.061 180.034 359.11 180.032 359.159C180.032 359.209 180.032 359.259 180.032 359.319C180.011 359.209 180.024 359.127 180.032 359.012Z" fill="#4052F2"/>
<path d="M179.915 360.068C179.919 360.035 179.919 360.003 179.915 359.97C179.917 359.987 179.917 360.004 179.915 360.021V360.068Z" fill="#4052F2"/>
<path d="M179.915 360.126C179.915 360.126 179.915 360.126 179.915 360.159C179.91 360.137 179.91 360.115 179.915 360.094C179.914 360.105 179.914 360.116 179.915 360.126Z" fill="#4052F2"/>
<path d="M179.915 360.117C179.912 360.1 179.912 360.083 179.915 360.067V360.117Z" fill="#4052F2"/>
<path d="M179.915 360.241C179.91 360.221 179.91 360.2 179.915 360.181C179.913 360.185 179.912 360.19 179.912 360.194C179.912 360.199 179.913 360.204 179.915 360.208C179.915 360.208 179.915 360.25 179.915 360.241Z" fill="#4052F2"/>
<path d="M179.863 360.496C179.868 360.473 179.868 360.45 179.863 360.428C179.868 360.403 179.868 360.378 179.863 360.354C179.863 360.354 179.863 360.322 179.863 360.304C179.863 360.345 179.863 360.377 179.863 360.327C179.863 360.327 179.863 360.368 179.863 360.391V360.418C179.866 360.434 179.866 360.449 179.863 360.464V360.514C179.864 360.508 179.864 360.502 179.863 360.496Z" fill="#4052F2"/>
<path d="M179.848 360.648C179.853 360.623 179.853 360.598 179.848 360.574C179.85 360.578 179.851 360.583 179.851 360.588C179.851 360.592 179.85 360.597 179.848 360.601V360.648Z" fill="#4052F2"/>
<path d="M179.826 360.78V360.803C179.822 360.793 179.822 360.781 179.826 360.771V360.738C179.83 360.752 179.83 360.766 179.826 360.78Z" fill="#4052F2"/>
<path d="M179.814 360.893C179.814 360.893 179.814 360.861 179.814 360.843C179.818 360.855 179.818 360.867 179.814 360.879V360.893Z" fill="#4052F2"/>
<path d="M179.815 360.952C179.811 360.963 179.811 360.974 179.815 360.984C179.815 360.984 179.805 360.952 179.815 360.952Z" fill="#4052F2"/>
<path d="M179.794 361.14V361.099C179.794 361.099 179.794 361.131 179.794 361.149C179.798 361.176 179.798 361.204 179.794 361.231C179.795 361.222 179.795 361.213 179.794 361.204C179.79 361.183 179.79 361.161 179.794 361.14Z" fill="#4052F2"/>
<path d="M179.785 361.113C179.79 361.093 179.79 361.073 179.785 361.053C179.787 361.073 179.787 361.093 179.785 361.113Z" fill="#4052F2"/>
<path d="M179.772 361.263C179.775 361.244 179.775 361.223 179.772 361.203C179.772 361.203 179.772 361.231 179.772 361.236V361.263Z" fill="#4052F2"/>
<path d="M179.722 361.761C179.722 361.597 179.759 361.441 179.772 361.304C179.769 361.373 179.762 361.442 179.751 361.51C179.738 361.606 179.73 361.688 179.722 361.761Z" fill="#4052F2"/>
<path d="M179.68 362.144C179.677 362.178 179.677 362.211 179.68 362.245C179.68 362.286 179.68 362.318 179.68 362.35C179.659 362.291 179.667 362.227 179.68 362.144Z" fill="#4052F2"/>
<path d="M157.03 608.079C157.032 608.065 157.032 608.051 157.03 608.038V607.978C157.038 608.006 157.038 608.038 157.03 608.079ZM151.298 604.992C151.315 604.91 151.328 604.826 151.336 604.741C151.314 604.823 151.301 604.907 151.298 604.992ZM187.148 350.452C187.153 350.437 187.153 350.421 187.148 350.406C187.152 350.421 187.152 350.437 187.148 350.452ZM318.19 547.376C318.19 547.275 318.19 547.179 318.19 547.079C316.334 494.265 290.439 382.155 281.786 295.337C281.154 289.027 280.617 282.846 280.186 276.828C280.299 276.828 286.663 281.243 292.119 285.01C296.204 287.836 299.774 290.301 299.862 290.301C299.841 289.977 299.812 289.653 299.791 289.338C299.77 289.023 299.753 288.845 299.741 288.607C299.594 286.553 299.452 284.499 299.322 282.485C299.221 281.033 299.116 279.586 299.016 278.143C298.178 265.816 297.399 254.028 296.753 242.989C296.313 235.634 284.049 236.552 283.73 229.936C281.078 228.745 278.937 229.101 278.79 228.402C278.317 228.562 278.727 225.133 278.086 225.325C277.357 225.53 281.857 222.001 280.906 222.248C275.354 223.672 282.913 221.335 284.677 220.741C283.684 221.065 282.406 221.463 280.81 221.965C279.213 222.467 277.403 223.042 275.195 223.732L266.585 226.425C262.055 227.841 256.633 229.585 250.507 231.584C243.908 233.744 236.491 236.205 228.496 238.889C212.013 244.368 193.061 250.705 173.681 257.073C165.785 259.672 158.914 265.075 154.164 272.423L104.331 349.493L178.278 353.762C178.961 353.497 179.786 353.182 180.629 352.849C181.835 352.392 183.063 351.936 183.947 351.621C183.998 351.621 184.048 351.589 184.09 351.566C185.401 351.109 185.879 350.981 187.023 350.488C187.045 350.492 187.068 350.492 187.09 350.488C187.125 350.471 187.162 350.456 187.199 350.443C187.199 350.443 187.199 350.411 187.199 350.406C187.2 350.328 187.21 350.249 187.228 350.173C187.228 350.105 187.228 350.041 187.257 349.972C187.255 349.95 187.255 349.927 187.257 349.904C187.263 349.836 187.273 349.769 187.287 349.703C187.287 349.657 187.287 349.612 187.287 349.557C187.287 349.502 187.287 349.484 187.287 349.434C187.292 349.419 187.292 349.403 187.287 349.388C187.292 349.359 187.292 349.33 187.287 349.301C187.287 349.242 187.287 349.164 187.316 349.096C187.345 349.027 187.316 349.073 187.316 349.041C187.318 349.012 187.318 348.983 187.316 348.954C187.316 348.954 187.316 348.918 187.316 348.9C187.318 348.875 187.318 348.851 187.316 348.826C187.446 347.986 187.563 347.169 187.676 346.439C187.579 347.133 187.459 347.951 187.316 348.895C187.241 349.393 187.169 349.922 187.077 350.502C187.079 350.531 187.079 350.56 187.077 350.589C187.035 350.89 186.993 351.196 186.943 351.502C186.943 351.502 186.943 351.538 186.943 351.561C186.742 352.931 186.524 354.492 186.248 356.277C186.189 356.638 186.134 357.012 186.076 357.405C186.017 357.798 185.963 358.181 185.9 358.592C185.837 359.003 185.795 359.327 185.732 359.715C185.669 360.103 185.598 360.628 185.527 361.126C185.363 362.235 185.188 363.381 185.012 364.582C184.643 367.079 184.249 369.773 183.834 372.64C183.763 373.069 183.7 373.517 183.633 373.96C183.633 374.106 183.591 374.261 183.57 374.416C183.474 375.078 183.373 375.754 183.277 376.439C183.277 376.521 183.264 376.608 183.239 376.699C183.126 377.47 183.013 378.251 182.896 379.059C182.896 379.16 182.866 379.26 182.849 379.361C182.846 379.421 182.838 379.48 182.824 379.539C182.753 379.995 182.69 380.507 182.619 380.99C182.338 382.958 182.045 384.99 181.752 387.081C181.517 388.647 181.291 390.249 181.06 391.879C180.972 392.445 180.888 393.025 180.813 393.61C180.578 395.241 180.342 396.897 180.105 398.577C180.013 399.198 179.916 399.837 179.833 400.467C179.761 400.997 179.678 401.535 179.606 402.074C179.45 403.127 179.299 404.192 179.154 405.27C179.07 405.84 178.99 406.411 178.915 406.986C178.814 407.717 178.701 408.457 178.605 409.192C178.605 409.278 178.576 409.37 178.559 409.456C178.4 410.584 178.236 411.739 178.081 412.876C178.081 412.963 178.052 413.063 178.039 413.154C177.545 416.606 177.05 420.149 176.543 423.742C176.296 425.541 176.04 427.362 175.772 429.193C175.73 429.549 175.676 429.892 175.634 430.248C175.349 432.252 175.06 434.293 174.796 436.338C174.62 437.575 174.44 438.831 174.264 440.091C173.397 446.241 172.529 452.5 171.649 458.81C171.457 460.179 171.268 461.549 171.067 462.946C170.857 464.452 170.648 465.95 170.443 467.452C170.283 468.621 170.116 469.78 169.952 470.94C169.726 472.581 169.501 474.214 169.278 475.839C169.148 476.752 169.022 477.692 168.888 478.61C168.838 478.93 168.796 479.24 168.754 479.523C168.494 481.413 168.239 483.29 167.979 485.175C167.141 491.019 166.353 496.826 165.557 502.552C165.389 503.775 165.217 504.99 165.05 506.204C164.836 507.77 164.631 509.322 164.405 510.87C164.25 511.984 164.09 513.098 163.939 514.207C163.893 514.531 163.847 514.851 163.805 515.184C163.6 516.682 163.386 518.166 163.185 519.65C162.772 522.62 162.365 525.548 161.966 528.434C161.844 529.296 161.723 530.146 161.606 530.995C161.488 531.844 161.367 532.748 161.245 533.615C161.161 534.245 161.078 534.862 160.99 535.478C160.927 535.935 160.864 536.391 160.793 536.875C160.432 539.491 160.072 542.052 159.728 544.563C159.565 545.682 159.423 546.773 159.268 547.873C159.175 548.517 159.087 549.165 158.995 549.795C158.844 550.873 158.698 551.932 158.551 552.991C158.308 554.744 158.078 556.457 157.835 558.141C157.696 559.15 157.554 560.141 157.416 561.127C157.114 563.287 156.825 565.391 156.54 567.423C156.406 568.336 156.288 569.249 156.158 570.162C156.158 570.208 156.158 570.267 156.133 570.322C155.999 571.276 155.869 572.212 155.744 573.121C155.551 574.49 155.371 575.828 155.186 577.12C155.073 577.951 154.952 578.764 154.839 579.558C154.784 580.015 154.725 580.444 154.658 580.864C154.57 581.549 154.474 582.201 154.373 582.854C154.26 583.74 154.135 584.617 154.013 585.457C154.009 585.526 154 585.594 153.988 585.662C153.929 586.055 153.879 586.438 153.825 586.808C153.674 587.863 153.535 588.863 153.406 589.821C153.355 590.145 153.313 590.451 153.271 590.766C153.188 591.392 153.1 591.999 153.016 592.593C152.961 592.985 152.911 593.369 152.852 593.748C152.76 594.437 152.664 595.09 152.58 595.729C152.53 596.085 152.48 596.423 152.429 596.743C152.354 597.322 152.274 597.875 152.203 598.4C152.178 598.619 152.14 598.856 152.107 599.053C152.048 599.509 151.993 599.911 151.935 600.322C151.901 600.527 151.872 600.737 151.843 600.929C151.696 601.965 151.57 602.856 151.466 603.668C151.394 604.125 151.336 604.582 151.281 604.97C151.252 605.143 151.231 605.308 151.21 605.476C151.189 605.645 151.147 605.906 151.126 606.097C151.105 606.201 151.091 606.306 151.084 606.412C151.084 606.476 151.084 606.536 151.047 606.6C151.05 606.539 151.06 606.479 151.076 606.421C151.076 606.358 151.076 606.298 151.076 606.243C151.076 606.189 151.105 606.029 151.126 605.919C151.147 605.81 151.126 605.796 151.155 605.714C151.162 605.627 151.173 605.54 151.189 605.454C151.189 605.33 151.227 605.207 151.231 605.097C151.231 605.166 151.206 605.253 151.189 605.335C151.183 605.44 151.169 605.543 151.147 605.645C151.118 605.814 151.105 605.997 151.072 606.207C151.072 606.289 151.034 606.435 151.005 606.663C150.975 606.892 150.942 607.093 150.908 607.339C150.908 607.517 150.85 607.755 150.808 608.047C150.783 608.225 150.757 608.417 150.732 608.617C150.732 608.736 150.69 608.891 150.661 609.074C150.611 609.412 150.561 609.782 150.506 610.17C150.506 610.302 150.468 610.448 150.447 610.604C150.168 612.655 149.889 614.61 149.609 616.47C149.454 617.584 149.299 618.671 149.148 619.721L148.671 623.09C148.57 623.83 148.465 624.56 148.365 625.272H309.516C312.818 600.505 320.432 611.498 318.19 547.376ZM185.246 342.289C185.246 342.184 185.246 342.088 185.276 342.042C185.273 342.125 185.264 342.207 185.25 342.289H185.246ZM151.076 606.686C151.072 606.72 151.072 606.753 151.076 606.787C151.076 606.787 151.076 606.81 151.076 606.823V606.787C151.078 606.719 151.088 606.651 151.105 606.586C151.101 606.62 151.093 606.654 151.08 606.686H151.076ZM157.059 607.8C157.059 607.846 157.059 607.892 157.059 607.933C157.064 607.967 157.064 608.003 157.059 608.038C157.054 608.079 157.054 608.12 157.059 608.161V608.079C157.061 608.065 157.061 608.051 157.059 608.038V607.978C157.055 607.964 157.055 607.947 157.059 607.933C157.055 607.889 157.055 607.844 157.059 607.8C157.057 607.782 157.057 607.764 157.059 607.746V607.8ZM157.126 607.207V607.093C157.125 607.077 157.125 607.062 157.126 607.047C157.135 607.102 157.135 607.152 157.131 607.207H157.126ZM187.148 350.452C187.153 350.437 187.153 350.421 187.148 350.406C187.152 350.421 187.152 350.437 187.148 350.452ZM187.148 350.452C187.153 350.437 187.153 350.421 187.148 350.406C187.152 350.421 187.152 350.437 187.148 350.452Z" fill="#FFC236"/>
<path opacity="0.26" d="M324.74 403.375C329.903 367.869 343.814 331.916 350.526 296.355C348.402 288.511 344.933 280.718 342.104 272.938C335.124 272.13 324.745 272.167 318.598 271.158C312.451 270.149 310.57 268.113 305.236 266.907C299.625 277.125 293.721 287.416 287.993 297.661C296.906 290.616 306.752 282.668 317.94 281.357C328.147 285.106 336.414 292.388 337.725 303.505C331.44 334.18 320.039 360.153 320.345 393.929C320.651 427.705 320.831 473.446 319.57 509.77C323.052 474.953 319.57 438.881 324.74 403.393V403.375Z" fill="#342DEC"/>
<path d="M262.9 226.681C265.938 243.258 279.401 281.23 284.647 292.63C289.893 304.03 282.971 295.209 289.256 294.556C295.541 293.903 310.445 275.199 318.31 271.272C308.208 255.293 297.184 240.227 287.027 224.818C285.095 221.883 285.477 220.212 286.189 217.116C286.47 215.943 287.371 214.605 287.714 213.336C279.242 215.683 270.422 220.919 262.9 226.681Z" fill="#434343"/>
<path opacity="0.11" d="M380.441 223.686C379.075 223.403 377.78 223.101 376.573 222.773C376.268 222.663 375.954 222.585 375.635 222.54C373.263 222.426 371.562 222.873 370.581 225.736C369.467 228.982 368.365 233.264 367.255 236.734C367.255 236.771 367.229 236.848 367.213 236.903C367.196 236.958 367.171 237.049 367.158 237.118C360.622 235.958 356.075 234.593 352.606 232.803C350.478 231.736 348.516 230.315 346.79 228.589C348.273 226.384 350 223.814 351.164 222.061C352.669 219.778 353.31 217.495 352.422 214.902C352.422 214.902 352.38 214.847 352.38 214.842C352.38 214.838 352.38 214.842 352.401 214.842C352.421 214.842 352.43 214.842 352.43 214.842C351.968 214.141 351.548 213.407 351.173 212.646C361.428 214.51 371.323 218.242 380.441 223.686Z" fill="#342DEC"/>
<path d="M377.142 238.56C376.141 241.035 374.997 243.847 374.297 245.409C372.591 249.23 370.526 254.083 368.305 259.265C362.711 272.441 356.254 287.868 352.709 294.575C348.687 302.194 351.503 298.095 349.936 296.625C349.813 296.504 349.671 296.408 349.517 296.341C349.052 296.17 348.557 296.12 348.071 296.195C345.792 296.451 338.161 287.023 333.934 283.508C333.674 283.293 333.427 283.101 333.2 282.937L333.137 282.891C329.278 280.152 324.146 275.372 319.805 272.135C319.31 271.756 318.824 271.405 318.351 271.081C324.183 262.201 338.275 241.341 342.264 235.365L343.521 233.474L343.583 233.379C343.62 233.332 343.653 233.283 343.684 233.232C343.705 233.196 343.739 233.15 343.776 233.095L343.94 232.858C343.954 232.825 343.972 232.794 343.994 232.767C343.994 232.767 344.015 232.726 344.028 232.712C344.191 232.465 344.275 232.328 344.317 232.255L344.346 232.219L344.551 231.908C345.088 231.096 345.875 229.909 346.76 228.603C348.485 230.328 350.448 231.75 352.575 232.817C356.045 234.607 360.591 235.972 367.128 237.131C370.065 237.629 373.367 238.104 377.142 238.56Z" fill="#434343"/>
<path d="M264.621 223.928C265.899 222.965 267.554 222.581 268.694 226.43C282.94 274.733 305.403 335.431 315.137 383.132C325.784 435.302 322.742 508.227 319.549 558.474C308.714 519.266 293.692 455.696 278.285 424.765C262.878 393.833 259.031 387.606 245.476 360.578C247.71 359.208 243.742 360.706 247.4 356.716C251.058 352.725 261.722 340.956 266.385 335.911C258.118 330.633 239.451 333.171 233.011 325.501C226.571 317.831 236.459 249.28 239.506 236.853C241.953 226.868 258.747 228.366 264.621 223.928Z" fill="#FFB200"/>
<path d="M179.819 360.953V361.026C179.819 361.026 180.017 360.98 180 360.912C179.983 360.843 179.836 360.907 179.819 360.953Z" fill="#342DEC"/>
<path d="M368.008 253.394C367.928 253.76 367.832 254.148 367.735 254.513C368.854 254.842 370.195 255.476 371.386 255.257C371.406 255.257 371.319 255.367 371.423 255.23C371.528 255.093 371.549 254.938 371.189 254.476C370.376 253.44 369.353 251.705 368.548 250.463C368.397 251.435 368.226 252.422 368.008 253.394Z" fill="#4052F2"/>
<path d="M408.095 321.712C398.319 329.985 384.693 327.19 374.134 332.546C379.162 337.568 389.637 349.31 393.354 353.301C397.07 357.291 393.048 355.793 395.294 357.186C381.936 384.026 377.905 390.697 362.733 421.409C347.56 452.121 332.338 516.764 322.231 554.603C321.996 555.018 321.883 555.11 321.812 555.059C321.757 554.759 321.737 554.452 321.753 554.146C318.452 505.98 316.109 428.353 325.319 381.794C329.128 362.509 341.07 333.82 342.566 321.785C343.743 312.275 343.328 316.105 343.102 318.132C343.047 318.667 342.997 319.078 342.997 319.078C343.081 318.776 343.165 318.47 343.253 318.164C345.348 310.531 347.443 303.331 349.496 296.341C353.686 282.056 357.826 268.615 362.1 253.973C362.1 253.919 362.1 253.973 362.138 253.896C362.175 253.818 362.159 253.626 362.234 253.626C362.309 253.626 362.523 253.919 362.653 253.955C362.921 252.955 363.248 251.764 363.516 250.759C364.291 247.851 365.083 244.824 365.837 242.016C366.311 240.231 366.705 238.784 367.157 237.095C370.065 237.611 373.367 238.085 377.142 238.542C384.165 239.387 392.822 240.149 403.641 240.962C403.649 241.054 403.649 241.148 403.641 241.24C403.825 243.144 403.997 245.075 404.156 246.997C404.156 247.098 404.156 247.189 404.185 247.285V247.344C404.412 249.965 404.638 252.581 404.868 255.133L404.935 255.781C404.977 256.238 405.053 257.151 405.103 257.804C405.421 261.986 406.008 267.798 406.247 271.697C406.402 274.226 407.043 279.887 407.009 281.07C406.792 289 412.712 317.808 408.095 321.712Z" fill="#FFB200"/>
<path d="M362.235 253.59L362.654 253.964C364.177 248.276 365.696 242.586 367.213 236.894C365.537 242.455 363.878 248.02 362.235 253.59Z" fill="#342DEC"/>
<path opacity="0.5" d="M152.555 615.489V615.553C152.558 615.53 152.558 615.507 152.555 615.484V615.452C152.558 615.464 152.558 615.477 152.555 615.489ZM182.966 378.995C182.519 376.165 182.072 373.337 181.626 370.513C181.626 370.344 181.575 370.198 181.546 370.033C181.018 366.65 180.482 363.29 179.945 359.93C179.945 359.957 179.945 359.98 179.945 360.021C179.945 360.062 179.945 360.058 179.945 360.081C179.945 360.103 179.945 360.081 179.945 360.081C179.949 360.091 179.949 360.102 179.945 360.113C179.945 360.113 179.945 360.113 179.945 360.144V360.172C179.945 360.172 179.945 360.199 179.945 360.204C179.945 360.208 179.945 360.204 179.945 360.204C179.945 360.204 179.945 360.236 179.945 360.245C179.952 360.29 179.952 360.336 179.945 360.382C179.952 360.39 179.955 360.401 179.955 360.412C179.955 360.422 179.952 360.433 179.945 360.441V360.473C179.948 360.49 179.948 360.507 179.945 360.523C179.945 360.523 179.945 360.569 179.945 360.601C179.95 360.634 179.95 360.668 179.945 360.701C179.945 360.765 179.945 360.82 179.945 360.875V360.907C179.945 360.907 179.945 360.943 179.945 360.953C179.949 360.971 179.949 360.989 179.945 361.007V361.044C179.952 361.066 179.952 361.09 179.945 361.112C179.945 361.112 179.945 361.14 179.945 361.144C179.945 361.149 179.945 361.144 179.945 361.167C179.945 361.19 179.945 361.167 179.945 361.213C179.942 361.286 179.935 361.359 179.924 361.432C179.924 361.478 179.924 361.514 179.924 361.551C179.924 361.583 179.924 361.592 179.924 361.605V361.66C179.924 361.784 179.895 361.898 179.887 362.012C179.89 362.044 179.89 362.076 179.887 362.108C179.707 363.637 179.572 364.751 179.468 365.527C179.468 365.637 179.447 365.737 179.434 365.838C179.342 366.591 179.292 366.952 179.279 366.988C179.279 366.92 179.325 366.472 179.396 365.774C179.396 365.673 179.396 365.573 179.434 365.463C179.551 364.313 179.736 362.628 179.933 360.852C179.933 360.816 179.933 360.784 179.933 360.752C179.966 360.446 179.996 360.135 180.038 359.839C180.385 356.679 180.737 353.515 180.813 352.716C180.817 352.694 180.817 352.671 180.813 352.648C180.808 352.671 180.808 352.694 180.813 352.716C180.741 353.255 180.544 354.903 180.163 358.168C180.105 358.702 180.033 359.263 179.97 359.871C179.937 360.167 179.899 360.478 179.857 360.784C179.859 360.803 179.859 360.823 179.857 360.843C179.706 362.149 179.547 363.605 179.346 365.281C179.346 365.381 179.346 365.477 179.313 365.582C179.271 365.952 179.22 366.331 179.179 366.714C179.137 367.098 179.095 367.5 179.044 367.906C178.994 368.312 178.961 368.65 178.91 369.034C178.868 369.49 178.806 369.947 178.755 370.458C178.63 371.567 178.496 372.741 178.361 373.932C178.077 376.448 177.766 379.155 177.448 382.032C177.394 382.488 177.343 382.913 177.301 383.369C177.301 383.515 177.268 383.671 177.243 383.826C177.176 384.488 177.096 385.195 177.025 385.867C177.012 385.953 177.004 386.04 177 386.127C176.899 387.003 176.8 387.895 176.702 388.802C176.702 388.857 176.702 388.916 176.702 388.98C176.643 389.464 176.593 389.957 176.539 390.446C176.324 392.421 176.103 394.459 175.877 396.559C175.701 398.143 175.521 399.755 175.353 401.389C175.282 401.964 175.219 402.544 175.164 403.133C174.98 404.771 174.801 406.434 174.628 408.123L174.414 410.023C174.364 410.57 174.301 411.109 174.247 411.648C174.134 412.707 174.004 413.771 173.899 414.844C173.836 415.415 173.773 415.99 173.715 416.56C173.639 417.296 173.555 418.044 173.476 418.788C173.476 418.866 173.476 418.957 173.446 419.049C173.321 420.181 173.199 421.325 173.082 422.482C173.082 422.573 173.082 422.674 173.053 422.756C172.68 426.239 172.303 429.8 171.909 433.416C171.72 435.242 171.527 437.069 171.33 438.895C171.297 439.242 171.259 439.598 171.226 439.95C171.008 441.972 170.807 444.017 170.576 446.072C170.445 447.317 170.305 448.577 170.157 449.852C169.495 456.034 168.842 462.334 168.175 468.662C168.029 470.032 167.886 471.438 167.731 472.817C167.576 474.328 167.421 475.844 167.258 477.359C167.14 478.528 167.01 479.697 166.893 480.866C166.721 482.509 166.545 484.139 166.382 485.778C166.286 486.691 166.193 487.655 166.089 488.577C166.051 488.892 166.022 489.207 165.98 489.517C165.783 491.417 165.594 493.307 165.397 495.192C164.781 501.073 164.174 506.916 163.566 512.669C163.432 513.906 163.315 515.121 163.185 516.321C163.026 517.892 162.864 519.453 162.699 521.006C162.582 522.129 162.46 523.252 162.355 524.357C162.313 524.69 162.276 525.01 162.246 525.343C162.091 526.859 161.924 528.347 161.777 529.84C161.534 532.122 161.295 534.378 161.069 536.606C160.998 537.3 160.926 537.976 160.859 538.669C160.767 539.537 160.675 540.4 160.583 541.249C160.491 542.098 160.398 543.002 160.315 543.883C160.252 544.513 160.189 545.134 160.118 545.755C159.787 548.864 159.472 551.923 159.162 554.886C159.045 556.009 158.932 557.11 158.819 558.219C158.748 558.863 158.676 559.511 158.614 560.146C158.5 561.223 158.396 562.291 158.274 563.341C158.09 565.099 157.914 566.829 157.729 568.523C157.632 569.537 157.527 570.537 157.415 571.523C157.189 573.691 156.996 575.814 156.757 577.864C156.657 578.777 156.569 579.713 156.468 580.604C156.472 580.657 156.472 580.71 156.468 580.763C156.376 581.722 156.275 582.654 156.179 583.576C156.037 584.945 155.89 586.292 155.76 587.593C155.676 588.427 155.592 589.245 155.509 590.045C155.458 590.502 155.416 590.935 155.366 591.369C155.295 592.049 155.224 592.711 155.152 593.364C155.06 594.277 154.972 595.136 154.88 595.971C154.88 596.049 154.88 596.113 154.859 596.19C154.813 596.578 154.771 596.966 154.729 597.341C154.626 598.397 154.52 599.404 154.411 600.363C154.377 600.696 154.344 601.002 154.314 601.317C154.252 601.947 154.189 602.564 154.122 603.144C154.076 603.55 154.046 603.938 154.004 604.312C153.921 605.011 153.849 605.682 153.778 606.312C153.74 606.659 153.707 607.006 153.673 607.335C153.606 607.91 153.552 608.467 153.502 608.987C153.472 609.211 153.451 609.444 153.426 609.649C153.384 610.106 153.338 610.512 153.296 610.919C153.296 611.133 153.254 611.343 153.233 611.535C153.116 612.571 153.024 613.471 152.944 614.274C152.89 614.731 152.848 615.187 152.802 615.589C152.802 615.763 152.76 615.927 152.747 616.096C152.735 616.265 152.697 616.552 152.684 616.735C152.666 616.839 152.653 616.944 152.647 617.05C152.647 616.991 152.647 616.927 152.647 616.877C152.647 616.758 152.668 616.653 152.68 616.543C152.693 616.434 152.68 616.42 152.705 616.338C152.731 616.256 152.705 616.151 152.731 616.069C152.76 615.79 152.789 615.53 152.802 615.338C152.8 615.361 152.8 615.384 152.802 615.407C152.802 615.461 152.802 615.553 152.772 615.712C152.772 615.781 152.772 615.868 152.743 615.95C152.714 616.032 152.743 616.105 152.71 616.265C152.676 616.425 152.672 616.63 152.647 616.826C152.647 616.922 152.647 617.068 152.605 617.283C152.563 617.497 152.559 617.712 152.525 617.959C152.525 618.137 152.483 618.374 152.454 618.666C152.454 618.853 152.412 619.045 152.391 619.246C152.391 619.369 152.358 619.52 152.337 619.703C152.307 620.04 152.265 620.41 152.224 620.803C152.224 620.935 152.194 621.081 152.182 621.237C152.039 622.501 151.905 623.743 151.763 624.939H207.533C208.153 543.646 195.725 459.832 182.966 378.991V378.995ZM152.261 618.634C152.261 618.602 152.261 618.589 152.261 618.575V618.634ZM152.295 618.333C152.298 618.366 152.298 618.4 152.295 618.433C152.295 618.388 152.295 618.328 152.295 618.274V618.333ZM152.324 618.036C152.321 618.062 152.321 618.088 152.324 618.114C152.323 618.058 152.33 618.003 152.345 617.949L152.324 618.036ZM152.366 617.634C152.364 617.668 152.364 617.701 152.366 617.735C152.362 617.747 152.362 617.76 152.366 617.771V617.735C152.361 617.668 152.361 617.601 152.366 617.534V617.634ZM152.232 618.904C152.229 618.893 152.229 618.882 152.232 618.872V618.803C152.222 618.836 152.217 618.87 152.215 618.904H152.232Z" fill="#0600A0"/>
<path d="M499.662 516.732C499.662 516.732 515.191 512.888 514.483 521.348C513.775 529.808 426.977 565.944 426.977 565.944L499.662 516.732Z" fill="#FFB200"/>
<path d="M465.626 400.59L465.53 400.463C465.5 400.421 465.488 400.412 465.479 400.421L465.442 400.358C465.416 400.303 465.354 400.189 465.24 399.988L465.173 399.883C465.153 399.84 465.127 399.8 465.098 399.764C465.027 399.627 464.943 399.481 464.838 399.307C464.788 399.212 464.738 399.129 464.687 399.052C464.67 399.01 464.645 398.971 464.616 398.938C464.581 398.872 464.542 398.81 464.499 398.75C463.954 397.883 463.963 398.161 463.942 398.161C463.931 398.144 463.921 398.126 463.912 398.107C463.87 397.947 463.728 397.431 463.242 395.906C463.242 395.906 463.242 395.87 463.242 395.851C463.23 395.815 463.216 395.78 463.2 395.746C463.198 395.761 463.198 395.777 463.2 395.792C463.2 395.947 463.238 396.084 463.259 396.217C463.259 396.285 463.28 396.349 463.288 396.408C463.296 396.468 463.288 396.44 463.288 396.454C463.286 396.465 463.286 396.475 463.288 396.486C463.284 396.516 463.284 396.547 463.288 396.577C463.285 396.592 463.285 396.608 463.288 396.623C463.288 396.764 463.33 396.915 463.351 397.079C463.349 397.114 463.349 397.15 463.351 397.184C463.351 397.184 463.351 397.184 463.351 397.212C463.351 397.308 463.38 397.413 463.401 397.522C463.435 397.815 463.476 398.098 463.506 398.381C463.506 398.527 463.539 398.668 463.56 398.805C463.581 398.942 463.585 398.988 463.59 399.084C463.598 399.132 463.598 399.182 463.59 399.23C463.586 399.268 463.586 399.306 463.59 399.344C463.588 399.362 463.588 399.381 463.59 399.399C463.585 399.41 463.585 399.424 463.59 399.435V399.458C463.592 399.478 463.592 399.498 463.59 399.517C463.611 399.641 463.623 399.759 463.64 399.864C463.766 400.75 463.849 401.426 463.879 401.691C463.875 401.671 463.875 401.651 463.879 401.631C463.882 401.618 463.882 401.604 463.879 401.59V401.531C463.879 401.531 463.879 401.499 463.879 401.485C463.879 401.472 463.879 401.444 463.879 401.44V401.376C463.88 401.345 463.88 401.315 463.879 401.284C463.862 401.211 463.852 401.136 463.849 401.061V401.015C463.852 400.977 463.852 400.939 463.849 400.901C463.849 400.901 463.849 400.901 463.849 400.864C463.843 400.809 463.833 400.754 463.82 400.7C463.82 400.641 463.82 400.586 463.799 400.508C463.803 400.478 463.803 400.447 463.799 400.417C463.801 400.383 463.801 400.35 463.799 400.316C463.799 400.225 463.77 400.116 463.753 400.015C463.728 399.814 463.698 399.6 463.665 399.376C463.665 399.586 463.719 399.8 463.749 400.024C463.933 401.43 464.143 403.06 464.39 404.946C464.461 405.475 464.532 406.014 464.604 406.553C464.893 408.744 465.186 411.068 465.504 413.52C465.68 414.803 465.856 416.127 466.032 417.474C466.091 417.93 466.146 418.387 466.213 418.843C466.288 419.45 466.368 420.071 466.443 420.669C466.544 421.505 466.657 422.336 466.762 423.185C466.946 424.591 467.134 426.02 467.31 427.472C467.39 428.107 467.482 428.728 467.558 429.367C467.595 429.618 467.62 429.874 467.65 430.129C467.713 430.586 467.771 431.042 467.826 431.499C467.826 431.522 467.826 431.554 467.826 431.576C467.847 431.677 467.851 431.782 467.868 431.882C467.868 431.882 467.868 431.937 467.868 431.96C468.609 437.644 469.389 443.643 470.172 449.838C470.373 451.421 470.577 453.021 470.784 454.637C470.889 455.445 470.989 456.253 471.094 457.066C471.299 458.696 471.513 460.335 471.723 461.964C471.806 462.581 471.886 463.197 471.97 463.818C471.991 464.024 472.012 464.224 472.049 464.439C472.104 464.895 472.158 465.352 472.225 465.809C472.267 466.178 472.318 466.539 472.364 466.909C472.452 467.644 472.548 468.393 472.64 469.128C472.766 470.041 472.879 470.954 472.992 471.867C473.156 473.068 473.302 474.259 473.457 475.465C473.529 475.921 473.587 476.428 473.65 476.912C473.684 477.227 473.725 477.556 473.767 477.88C473.826 478.387 473.897 478.889 473.96 479.386C475.041 487.76 476.118 496.178 477.178 504.41C449.641 451.843 438.658 387.898 438.767 328.282C438.767 326.611 438.864 322.958 438.935 319.991C438.932 319.9 438.961 319.812 439.016 319.743C439.07 319.675 439.147 319.632 439.23 319.623C439.313 319.614 439.396 319.641 439.462 319.696C439.528 319.752 439.572 319.833 439.584 319.922C444.566 345.119 451.618 371.367 462.986 394.34C462.998 394.369 463.012 394.396 463.028 394.422" fill="#FFB200"/>
<path d="M364.166 53.8264C360.374 41.4402 351.805 28.8211 342.684 17.978C357.713 18.2611 368.746 21.3245 368.884 47.8227C368.884 47.8227 392.923 56.6387 370.586 110.229C368.071 110.229 366.425 111.283 365.407 112.749C366.793 92.5008 369.53 71.3579 364.166 53.8264Z" fill="#0600A0"/>
<path opacity="0.43" d="M402.76 232.397C402.76 232.315 402.76 232.246 402.739 232.182C402.735 232.144 402.735 232.106 402.739 232.068C402.718 231.429 402.953 231.789 402.618 231.497C397.17 226.69 387.927 225.306 380.448 223.699C379.082 223.416 377.787 223.115 376.58 222.786C376.275 222.677 375.961 222.599 375.642 222.553C373.27 222.439 371.569 222.887 370.588 225.749C369.474 228.995 368.372 233.278 367.262 236.748C367.262 236.784 367.236 236.862 367.22 236.916C367.203 236.971 367.178 237.063 367.165 237.131C370.073 237.647 373.375 238.122 377.15 238.578C384.173 239.423 392.829 240.185 403.648 240.998C403.372 238.035 403.083 235.145 402.76 232.397Z" fill="#D14000"/>
<path d="M539.514 393.523L524.158 309.093C522.482 302.651 522.063 301.295 520.491 296.245C519.582 293.099 518.373 290.064 516.884 287.192C516.791 287.009 516.695 286.827 516.594 286.649C515.153 283.964 513.707 282.028 512.17 279.536C511.57 278.559 511.005 277.668 510.427 276.796C508.534 274.401 506.338 272.311 503.907 270.587C503.777 270.491 503.651 270.382 503.526 270.281C503.329 270.126 503.106 269.98 502.926 269.825H502.901L502.587 269.61C502.084 269.277 501.56 268.971 501.011 268.67L500.638 268.469C500.219 268.245 499.771 268.012 499.302 267.811C499.063 267.697 498.824 267.592 498.577 267.483C498.33 267.373 497.978 267.213 497.668 267.081C497.358 266.949 497.001 266.789 496.666 266.652C496.331 266.515 495.987 266.36 495.627 266.195C495.267 266.031 494.906 265.903 494.534 265.739C494.01 265.506 493.473 265.282 492.925 265.063C492.543 264.899 492.154 264.739 491.768 264.606C489.853 263.807 487.859 263.009 485.789 262.191L483.354 261.246L482.776 261.023C482.181 260.785 481.582 260.566 480.97 260.324H480.891C480.891 260.324 480.87 260.324 480.861 260.324H480.828C480.805 260.319 480.783 260.308 480.765 260.292H480.727L480.664 260.269L477.911 259.224C474.589 257.959 471.144 256.694 467.646 255.425C466.296 254.923 464.943 254.439 463.581 253.946L462.11 253.416L459.332 252.426C455.344 251.001 451.342 249.586 447.399 248.203L443.46 246.833C441.411 246.107 439.396 245.408 437.41 244.715C436.945 244.546 436.48 244.395 436.015 244.217C425.858 240.565 416.79 237.318 410.48 235.027L409.944 234.835C409.831 234.789 409.717 234.757 409.621 234.711L409.407 234.634L409.345 234.611L409.282 234.584L406.093 233.351C405.951 233.296 405.816 233.251 405.674 233.196C405.41 233.1 405.171 233.013 404.953 232.926L404.635 232.808L403.478 232.383L403.11 232.246C403.096 232.242 403.081 232.242 403.068 232.246C403.068 232.246 403.034 232.246 403.005 232.223C402.92 232.191 402.833 232.163 402.745 232.141C402.745 232.141 402.879 232.191 402.967 232.232C403.063 232.284 403.161 232.33 403.26 232.369C403.305 232.385 403.348 232.403 403.39 232.424L404.023 232.684C403.575 232.525 403.256 232.411 403.043 232.342C403.328 232.447 403.793 232.625 404.249 232.799C404.279 232.799 404.312 232.799 404.35 232.84H404.383C404.406 232.847 404.427 232.857 404.446 232.872L404.258 232.803L403.281 232.447C403.198 232.421 403.115 232.391 403.034 232.356L402.758 232.255C402.758 232.319 402.758 232.388 402.779 232.47C402.988 234.255 403.198 236.095 403.365 237.976C403.471 238.995 403.569 240.021 403.659 241.053L410.053 241.51C463.686 245.354 495.397 268.332 514.499 312.275C533.988 357.072 539.221 394.554 539.221 394.554L539.611 393.906L539.514 393.523ZM404.559 232.844C404.556 232.846 404.553 232.847 404.549 232.847C404.545 232.847 404.542 232.846 404.538 232.844H404.559ZM404.559 232.844H404.589H404.61C404.61 232.844 404.58 232.858 404.568 232.844H404.559Z" fill="#FFB200"/>
<path d="M404.391 232.776C404.413 232.783 404.435 232.794 404.454 232.808L404.265 232.74L403.289 232.383C403.205 232.358 403.122 232.327 403.042 232.292L402.765 232.192C402.761 232.154 402.761 232.115 402.765 232.077C402.765 232.077 402.899 232.128 402.987 232.169C403.082 232.22 403.18 232.266 403.28 232.306C403.325 232.321 403.368 232.339 403.41 232.36L404.043 232.621C403.595 232.461 403.276 232.347 403.063 232.278C403.348 232.383 403.813 232.561 404.269 232.735C404.299 232.735 404.332 232.735 404.37 232.776H404.404C404.404 232.776 404.383 232.776 404.391 232.776Z" fill="#FFC236"/>
<path d="M404.555 232.835C404.551 232.837 404.548 232.838 404.544 232.838C404.541 232.838 404.537 232.837 404.534 232.835H404.555Z" fill="#FFC236"/>
<path fill-rule="evenodd" clip-rule="evenodd" d="M57.7992 630.473H482.341C489.757 630.473 496.168 623.862 496.633 615.781C496.758 613.891 496.523 611.994 495.941 610.209C495.359 608.424 494.443 606.79 493.252 605.41C492.061 604.03 490.62 602.934 489.02 602.192C487.42 601.45 485.697 601.078 483.958 601.098H59.4166C52.0001 601.098 45.5683 607.704 45.1242 615.781C45.0015 617.67 45.2391 619.567 45.8219 621.351C46.4048 623.135 47.3203 624.769 48.5109 626.149C49.7015 627.529 51.1414 628.626 52.7399 629.37C54.3384 630.114 56.061 630.489 57.7992 630.473Z" fill="#4052F2"/>
<path fill-rule="evenodd" clip-rule="evenodd" d="M57.7984 630.473H482.34C484.675 630.442 486.969 629.796 489.026 628.59C491.083 627.384 492.841 625.654 494.152 623.547C493.044 621.424 491.435 619.663 489.492 618.445C487.55 617.227 485.343 616.598 483.102 616.621H58.5651C56.2292 616.653 53.9348 617.299 51.8775 618.505C49.8202 619.711 48.0607 621.441 46.749 623.547C47.8569 625.67 49.4655 627.432 51.4082 628.649C53.351 629.867 55.5572 630.497 57.7984 630.473Z" fill="#0600A0"/>
<path fill-rule="evenodd" clip-rule="evenodd" d="M48.9365 601.098H388.494C390.767 601.123 393.02 600.633 395.109 599.659C397.199 598.686 399.08 597.25 400.634 595.442C402.188 593.635 403.38 591.495 404.135 589.159C404.89 586.824 405.191 584.342 405.02 581.873L374.885 342.234C374.273 331.665 365.834 323.018 356.134 323.018H16.5722C14.3 322.992 12.0478 323.482 9.95835 324.455C7.86887 325.427 5.98771 326.863 4.43403 328.669C2.88035 330.476 1.68803 332.615 0.932744 334.95C0.177455 337.285 -0.124368 339.765 0.0463873 342.234L30.1816 581.882C30.7934 592.424 39.2281 601.098 48.9365 601.098Z" fill="#96929F"/>
<path fill-rule="evenodd" clip-rule="evenodd" d="M48.9323 601.098H378.48C380.752 601.122 383.004 600.632 385.094 599.658C387.183 598.684 389.064 597.248 390.617 595.44C392.17 593.633 393.362 591.494 394.117 589.158C394.871 586.823 395.173 584.342 395.001 581.873L364.87 342.234C364.259 331.665 355.82 323.018 346.115 323.018H16.568C14.2962 322.993 12.0445 323.483 9.95548 324.456C7.86649 325.429 5.98582 326.864 4.43259 328.671C2.87936 330.477 1.68747 332.616 0.932431 334.951C0.177394 337.285 -0.124341 339.765 0.0463817 342.234L30.1816 581.882C30.7934 592.424 39.2281 601.098 48.9323 601.098Z" fill="#9FC3FD"/>
<path fill-rule="evenodd" clip-rule="evenodd" d="M66.8904 601.098L360.847 330.961C363.21 334.182 364.613 338.111 364.87 342.225L365.708 356.277L100.801 601.098H66.8904ZM266.251 323.008L28.0146 544.609L30.181 581.872C30.3522 584.74 31.0897 587.534 32.3431 590.063L322.772 323.008H266.251Z" fill="url(#paint0_linear)"/>
<path fill-rule="evenodd" clip-rule="evenodd" d="M52.2715 608.435H405.539C407.356 608.405 409.098 607.635 410.42 606.276C411.742 604.918 412.55 603.069 412.683 601.094C412.747 600.149 412.629 599.199 412.338 598.306C412.047 597.413 411.589 596.595 410.994 595.905C410.398 595.214 409.677 594.666 408.876 594.295C408.076 593.923 407.213 593.737 406.344 593.748H53.076C51.2617 593.784 49.5252 594.557 48.2073 595.916C46.8894 597.275 46.0853 599.122 45.9529 601.094C45.8903 602.037 46.0077 602.984 46.2976 603.875C46.5875 604.766 47.0436 605.582 47.6371 606.272C48.2307 606.961 48.9489 607.51 49.7465 607.882C50.5441 608.254 51.4038 608.443 52.2715 608.435Z" fill="#342DEC"/>
<path fill-rule="evenodd" clip-rule="evenodd" d="M406.101 630.473H488.809C496.77 630.473 503.65 622.205 504.128 612.097C504.606 601.993 498.488 593.725 490.54 593.725H407.831C399.87 593.725 392.99 601.993 392.512 612.097C392.039 622.205 398.152 630.473 406.101 630.473Z" fill="#9FC3FD"/>
<defs>
<linearGradient id="paint0_linear" x1="28.0146" y1="462.046" x2="365.687" y2="462.046" gradientUnits="userSpaceOnUse">
<stop stop-color="white" stop-opacity="0"/>
<stop offset="1" stop-color="white"/>
</linearGradient>
</defs>
</svg>
