<svg width="700" height="432" viewBox="0 0 700 432" fill="none" xmlns="http://www.w3.org/2000/svg">
<path fill-rule="evenodd" clip-rule="evenodd" d="M66.8906 329.944C75.8329 311.517 59.6829 283.179 72.8832 262.667C80.0577 236.636 86.4065 189.568 66.4711 169.449C48.9162 189.161 65.6888 158.689 43.4995 193.246C30.9517 212.789 13.0905 301.313 3.52234 328.746L0 438.5H40.4966L66.8906 329.944Z" fill="#FFB037"/>
<path fill-rule="evenodd" clip-rule="evenodd" d="M272.05 268.567C271.891 278.937 270.998 298.07 269.93 319.703C268.105 356.701 265.751 401.006 265.635 421.244C265.605 426.468 265.668 431.678 265.845 435.983C265.845 436.063 265.089 432.024 265.096 432.101L71.4152 432.69C69.7506 401.063 58.0251 297.887 57.609 270.454C57.1762 242.272 50.4478 201.609 56.6535 185.06C62.8591 168.51 53.0313 179.643 67.2703 171.077C81.5094 162.511 111.642 158.543 129.194 151.435C141.132 153.266 150.248 154.065 161.154 155.963C172.537 153.502 182.395 152.633 194.969 150.539C197.632 151.495 200.566 152.387 203.685 153.239C220.907 157.94 243.672 161.379 257.712 167.372C257.719 167.37 257.727 167.37 257.735 167.372L268.212 174.057L271.045 175.865C271.045 175.865 271.045 175.865 271.068 175.865C271.285 177.316 271.881 179.64 273.369 183.395C279.901 199.895 272.49 240.471 272.05 268.567Z" fill="#CF8B23"/>
<path opacity="0.54" d="M163.868 174.886C164.834 175.964 159.51 177.086 159.054 177.216C157.357 177.703 155.706 178.343 154.124 179.127C150.998 180.678 148.425 183.151 146.749 186.212C141.09 196.695 148.667 206.101 152.176 215.765C154.626 222.521 156.727 229.398 158.472 236.37C161.806 249.79 163.946 263.479 164.867 277.276C166.445 300.204 165.763 324.001 157.34 345.675C152.462 358.222 145.105 350.129 137.208 345.275C133.999 343.304 129.671 341.417 127.04 338.66C125.519 337.065 119.217 179.247 119.217 179.247L124.311 152.567C124.311 152.567 136.179 165.597 150.222 170.718C152.532 171.56 154.809 172.492 157.15 173.254C158.136 173.529 159.136 173.751 160.146 173.92C161.042 174.11 163.142 174.197 163.835 174.842L163.868 174.886Z" fill="#CC6600"/>
<path fill-rule="evenodd" clip-rule="evenodd" d="M194.235 149.65H194.152C183.089 151.421 172.103 153.582 161.15 155.929C150.581 154.154 139.987 152.508 129.369 150.992C125.973 151.975 122.583 152.974 119.198 153.988C119.723 155.55 120.63 156.956 121.835 158.08C147.054 180.768 171.693 181.175 196.606 161.742L196.782 161.606C196.859 161.352 196.945 161.103 197.029 160.85C198.094 157.624 198.983 154.342 199.692 151.019L194.235 149.65Z" fill="white"/>
<path fill-rule="evenodd" clip-rule="evenodd" d="M276.844 180.722L276.88 181.884C279.374 205.748 279.69 234.818 276.547 260.67C275.738 267.328 274.746 278.048 274.117 286.588C273.431 295.909 273.677 311.687 274.323 329.012C275.385 357.37 277.533 389.937 278.448 405.444C278.568 407.475 278.631 408.374 278.781 410.634C279.167 416.507 279.61 422.683 280.02 428.992C280.183 431.429 279.807 429.99 280.02 433.077C275.089 432.347 193.497 432.69 193.497 432.69C189.705 407.521 176.095 295.793 175.519 278.002C174.264 238.897 184.018 215.772 188.037 190.693C188.876 185.476 190.98 180.775 192.611 175.745C194.089 171.174 195.238 166.36 196.729 161.762L201.121 153.912C202.02 153.935 202.907 153.704 203.681 153.246C204.896 152.623 206.178 151.764 208.158 151.581C222.428 150.19 242.206 158.479 257.707 167.388C257.715 167.387 257.723 167.387 257.73 167.388C261.579 169.602 265.168 171.85 268.334 174.004C269.276 174.636 270.179 175.272 271.041 175.881C271.041 175.881 271.041 175.881 271.064 175.881C272.765 177.103 274.31 178.265 275.672 179.364L276.844 180.722Z" fill="#FFB037"/>
<path fill-rule="evenodd" clip-rule="evenodd" d="M197.475 150.456C199.299 150.353 197.987 148.578 200.741 149.237C203.494 149.897 209.55 152.966 213.192 154.641C216.281 162.191 211.194 171.62 208.757 178.644C205.145 189.045 201.007 199.089 198.533 209.889C198.234 211.191 197.944 212.519 197.278 213.678C195.018 217.603 182.819 213.628 181.964 219.094C183.562 208.514 185.798 198.04 188.659 187.73C191.778 176.327 196.273 162.901 199.725 151.108C199.039 150.789 198.337 150.756 197.475 150.456Z" fill="#FDA118"/>
<path fill-rule="evenodd" clip-rule="evenodd" d="M124.139 149.651C129.133 170.246 130.761 165.811 134.736 191.076C138.711 216.342 151.938 237.216 152.95 275.872C153.4 293.057 143.252 415.622 139.86 439.749C111.159 441.766 82.4873 436.42 53.7828 436.267C54.0958 431.882 57.7779 366.193 58.011 361.775C59.7322 331.037 57.4616 290.037 54.0159 261.606C50.5702 233.174 51.0828 203.891 53.8694 182.84C54.2023 180.207 54.5352 177.433 55.4374 174.92C56.303 172.513 58.5769 171.554 60.6943 170.435C70.9782 164.999 82.444 162.445 93.5237 159.166C103.178 156.319 113.063 153.839 122.521 150.38C122.648 150.333 124.192 149.867 124.139 149.651Z" fill="#FFB037"/>
<path fill-rule="evenodd" clip-rule="evenodd" d="M126.379 151.878C124.715 151.801 125.79 150.03 123.27 150.709C120.75 151.388 115.363 154.548 112.09 156.219C109.427 165.184 121.805 198.833 122.83 207.652C123.856 216.471 135.635 213.794 142.899 220.233C140.455 209.247 138.275 200.361 135.415 188.965C132.555 177.569 128.194 164.139 124.312 152.567C124.941 152.227 125.59 152.184 126.379 151.878Z" fill="#FDA118"/>
<path fill-rule="evenodd" clip-rule="evenodd" d="M185.555 157.627C172.115 165.837 154.564 166.636 140.691 159.372C136.536 157.208 132.792 154.335 129.628 150.882C129.961 150.602 130.627 150.679 130.96 150.596C132.048 150.319 132.99 150.426 134.046 150.12C136.786 149.327 139.462 150.426 142.069 148.435C144.676 146.444 146.397 146.105 146.48 140.888C146.53 138.651 146.517 135.708 146.48 132.455C146.48 132.142 146.48 131.826 146.48 131.509C146.354 123.423 146.048 113.755 145.911 108.498C145.711 100.877 145.378 99.9118 145.169 93.6196C151.334 94.7915 157.464 95.7769 163.559 97.1586C169.595 95.161 175.688 93.5364 181.783 91.6887C181.907 97.8843 181.451 99.3692 181.68 106.793C181.827 111.254 181.897 119.484 182.013 126.892C180.302 128.202 178.479 129.361 176.567 130.354C175.315 135.608 175.128 140.009 177.059 142.756C180.858 148.136 181.75 153.865 185.555 157.627Z" fill="#FFCAE1"/>
<path fill-rule="evenodd" clip-rule="evenodd" d="M199.022 74.237C199.392 74.1737 199.572 74.3368 199.898 74.3335L199.918 74.3135C205.701 72.073 209.376 80.1563 209.596 85.3832C209.852 91.459 205.714 97.3683 198.963 97.6446C192.211 97.921 187.443 93.3167 186.584 86.7448C186.085 82.9229 187.89 79.8799 190.303 77.16C190.363 81.1051 191.112 84.3378 195.38 85.1501C195.32 83.1725 194.934 80.2595 194.937 78.4917C194.951 75.5853 196.639 74.6498 199.022 74.237Z" fill="#FDB2D0"/>
<path fill-rule="evenodd" clip-rule="evenodd" d="M189.381 86.4119C190.66 96.6359 179.88 116.445 176.564 130.358C171.42 133.025 165.712 134.419 159.918 134.423C156.421 134.45 152.934 134.068 149.527 133.284H149.51C148.478 133.048 147.463 132.771 146.471 132.462C131.899 127.914 121.415 115.816 118.732 99.8353C118.505 98.5036 118.336 97.142 118.222 95.7504C117.453 86.3486 116.854 69.1799 116.608 60.5239C115.905 35.7612 130.794 20.5101 154.288 20.0573C177.782 19.6045 193.762 29.8086 196.093 58.3632C196.093 58.4065 196.516 66.1403 196.945 74.5798L165.344 57.6541C166.01 58.1102 187.65 72.549 189.381 86.4119Z" fill="#FFCAE1"/>
<path d="M138.905 55.2537C138.625 55.2238 134.787 54.8875 138.905 55.2537V55.2537Z" fill="#FDB2D0"/>
<path fill-rule="evenodd" clip-rule="evenodd" d="M205.321 71.4969C204.564 72.7721 203.743 74.0077 202.861 75.199C200.297 75.4587 197.504 77.1367 197.258 79.5803C197.011 82.0239 197.567 83.2191 197.457 85.4231C196.711 85.3105 196.003 85.0232 195.389 84.5847C194.775 84.1461 194.273 83.5687 193.925 82.8995C192.667 80.6123 192.926 78.2586 192.757 75.7284C192.757 75.5952 192.903 75.289 192.757 75.1125C187.913 69.4529 188.652 66.603 188.625 59.0723C188.598 51.5416 171.956 47.8962 164.771 47.217C157.587 46.5378 149.277 46.0118 141.936 45.3493C138.467 46.3115 135.085 47.2736 131.645 48.2391C128.56 51.9656 125.462 55.6843 122.35 59.3953L121.568 78.4817C121.568 80.4226 121.814 81.6144 121.758 83.7052C121.701 85.7959 120.29 88.5825 117.866 89.032C117.533 86.9179 117.996 85.6861 117.496 83.3257C116.997 80.9652 114.074 79.5636 111.474 79.6169C105.504 73.5311 96.8785 65.8672 95.65 57.3544C95.1106 53.5891 95.5734 50.2499 96.479 47.0339C97.4544 43.5782 98.9326 40.2623 100.211 36.7133C101.479 33.0428 103.115 29.5103 105.095 26.1697C105.995 24.6799 106.989 23.2488 108.071 21.885C110.372 18.9786 113.628 17.3306 117.273 16.8113C118.818 16.5949 120.383 17.0709 121.888 16.8113C126.419 16.0056 127.391 11.6876 130.26 8.82115C132.518 6.47107 135.239 4.61526 138.251 3.37122C144.699 0.787752 151.268 -0.427422 158.283 0.135215C172.162 1.24384 185.555 4.97258 196.608 14.028C203.484 19.6853 208.359 27.404 210.511 36.0441C213.524 48.0838 211.658 60.826 205.321 71.4969Z" fill="#342DEC"/>
<path fill-rule="evenodd" clip-rule="evenodd" d="M182.01 126.892C180.299 128.202 178.476 129.361 176.563 130.354C179.893 116.445 190.659 96.6359 189.381 86.4085C187.65 72.5457 166.01 58.1102 165.334 57.6607L196.935 74.5865C197.298 81.6877 197.667 89.2883 197.814 93.2101C198.297 106.231 192.221 119.091 182.01 126.892Z" fill="#FDB2D0"/>
<path fill-rule="evenodd" clip-rule="evenodd" d="M112.164 72.2827C104.507 52.7735 108.019 35.3284 130.758 30.6408C137.416 20.3203 145.616 16.1321 157.994 18.8887C170.372 21.6453 184.102 25.8501 194.948 16.515C197.399 22.3178 196.466 27.4448 193.334 32.655C206.354 44.8733 206.404 57.9571 195.817 71.75C191.156 51.6682 146.918 73.0184 138.049 53.4893C134.803 71.0309 122.784 64.1727 112.164 72.2827Z" fill="#342DEC"/>
<path fill-rule="evenodd" clip-rule="evenodd" d="M210.708 60.9167C209.975 63.9287 209.075 66.8975 208.011 69.8091C205.391 77.0135 201.972 83.7652 198.566 90.7532C198.38 91.136 198.15 91.4989 197.967 91.8884C195.49 91.5555 194.971 89.052 194.435 87.0145C194.218 86.1988 194.058 85.5895 193.905 84.8571C193.417 82.465 193.092 80.0424 192.933 77.6061C192.913 77.3032 192.903 77.0035 192.89 76.7039C182.726 63.2572 145.445 71.4903 138.038 53.4859C136.476 61.9488 132.874 64.7353 128.383 66.2634C126.529 66.8833 124.907 68.0531 123.733 69.6172C122.56 71.1813 121.891 73.0655 121.814 75.0193L121.528 82.6765C121.452 84.5841 121.492 83.7918 121.475 84.1913C121.345 86.9812 121.169 87.7535 120.876 90.6366C120.689 92.461 120.876 98.4603 118.365 99.539C113.814 92.0849 109.52 84.5908 104.882 77.0801C100.597 70.1353 96.6822 63.387 95.5869 55.1072C95.497 54.4214 95.4271 53.659 95.7633 53.0598C97.7609 49.4742 101.689 54.1984 103.733 55.2038C106.027 56.3357 107.765 56.2824 109.959 56.2225C114.873 55.3603 119.344 53.3128 123.459 50.6527C124.569 49.8915 125.679 49.1146 126.788 48.3223C129.688 46.101 132.458 43.7156 135.085 41.1778C135.145 41.2311 135.205 41.2744 135.268 41.321C135.268 41.2777 135.308 41.2311 135.321 41.1845C135.431 41.344 135.55 41.4974 135.677 41.6439C137.369 42.9764 139.149 44.1932 141.004 45.286C141.181 45.3759 141.287 45.4226 141.447 45.4991H141.397C146.674 48.4288 151.504 48.9848 161.705 49.6606C168.204 50.0968 182.959 47.0905 192.823 41.2977C194.203 40.3741 195.523 39.3645 196.775 38.2747C197.594 37.5644 198.366 36.8015 199.086 35.9909C202.082 32.6117 203.816 28.7665 205.078 24.2787C205.148 24.0357 205.215 23.796 205.278 23.5496C209.696 31.1203 211.986 38.9272 212.223 47.0372C212.337 51.7105 211.827 56.3781 210.708 60.9167Z" fill="#342DEC"/>
<path d="M278.764 410.544C255.016 365.037 244.493 266.439 250.708 216.138C250.925 214.367 251.657 209.666 251.943 207.545C253.964 230.517 257.27 254.877 267.118 276.001C268.881 279.81 271.242 283.313 274.109 286.378C272.278 311.617 276.962 380.225 278.437 405.457C278.561 407.515 278.657 408.577 278.764 410.544Z" fill="#CF8B23"/>
<path d="M324.854 321.258L316.801 432.101L289.408 432.124L280.566 343.521C278.568 338.638 276.484 333.801 274.313 329.012C272.9 325.882 271.438 322.775 269.929 319.69C269.889 319.6 269.849 319.52 269.806 319.43C269.007 317.806 267.475 314.59 266.476 312.912C266.476 312.912 266.476 312.912 266.476 312.892C266.461 312.872 266.447 312.851 266.436 312.829L266.406 312.789C266.406 312.769 266.386 312.759 266.383 312.745C266.293 312.592 266.137 312.329 265.884 311.89C264.832 310.075 261.476 303.567 260.224 301.313L260.121 301.13C253.268 288.715 249.14 274.982 248.013 260.846C247.101 250.437 247.045 239.97 247.846 229.551C249.128 212.519 253.293 185.686 268.154 174.107C268.174 174.09 268.197 174.077 268.221 174.067C268.259 174.037 268.302 174.013 268.347 173.997C269.29 174.629 270.192 175.265 271.054 175.875C271.054 175.875 271.054 175.875 271.077 175.875C273.185 177.386 275.375 178.834 277.01 180.868C277.649 181.671 278.395 182.403 279.074 183.176C279.817 184.021 280.536 184.89 281.195 185.802C282.721 187.898 284.024 190.148 285.083 192.514C286.865 196.306 287.371 197.321 289.378 202.199C305.132 240.471 315.915 280.422 324.854 321.258Z" fill="#FFB037"/>
<path fill-rule="evenodd" clip-rule="evenodd" d="M317.914 352.283L304.474 433.276H278.589L280.35 328.219L317.914 352.283Z" fill="#FFCAE1"/>
<path d="M666.211 53.9842L605.462 75.975L639.252 169.318L700 147.327L666.211 53.9842Z" fill="#FFB037"/>
<path d="M660.534 51.8585L599.785 73.8493L633.575 167.192L694.324 145.201L660.534 51.8585Z" fill="#FFB037"/>
<path fill-rule="evenodd" clip-rule="evenodd" d="M638.056 100.837C638.057 102.812 637.669 104.768 636.914 106.594C636.153 108.418 635.044 110.077 633.648 111.478L622.159 122.977C621.377 123.756 620.803 124.72 620.491 125.78C620.179 126.839 620.139 127.96 620.374 129.039L623.154 141.847L600.782 157.627L540.26 200.318L519.549 214.933L508.896 178.035C508.896 178.035 620.334 117.364 636.191 100.105C636.337 99.9426 636.528 99.8286 636.741 99.7783C636.953 99.728 637.175 99.7437 637.378 99.8235C637.581 99.9032 637.755 100.043 637.876 100.224C637.997 100.405 638.06 100.619 638.056 100.837Z" fill="#FFCAE1"/>
<path fill-rule="evenodd" clip-rule="evenodd" d="M479.648 271.733C478.623 277.562 477.547 283.601 475.933 289.234C473.386 298.147 469.484 306.044 462.243 310.541C459.902 311.97 457.342 313.002 454.666 313.598C448.23 315.076 439.974 314.63 429.264 311.49C416.256 307.682 402.124 300.89 388.867 293.389C381.739 289.358 374.868 285.119 368.559 281.025C349.479 268.63 335.6 257.56 335.6 257.56C335.6 257.56 347.635 244.03 353.947 226.665C354.673 224.668 355.319 222.633 355.865 220.556C357.247 215.524 357.855 210.31 357.666 205.095C357.439 199.229 355.834 193.499 352.981 188.369C344.865 173.82 339.831 157.544 337.73 141.041C336.658 132.719 336.386 124.313 336.918 115.939C337.677 104.363 341.226 91.9683 349.236 83.036C353.627 78.1421 366.881 68.544 374.538 71.5136C376.592 72.3193 378.25 74.0138 379.229 76.9502C378.646 75.1458 383.331 72.1495 384.512 71.4271C386.76 70.0654 389.363 69.4894 392.036 69.2963C394.71 69.1032 397.476 69.2964 400.027 69.4429C404.812 69.7487 409.559 70.4977 414.206 71.6801C423.681 74.0372 433.182 77.9656 440.736 84.2745C444.621 87.5205 448.007 91.5089 449.922 96.2397C464.054 131.25 436.715 162.967 449.855 195.823C450.567 197.599 451.344 199.381 452.185 201.17C458.031 213.674 466.641 226.622 472.763 239.399C474.882 243.703 476.654 248.168 478.063 252.753C479.968 259.198 480.74 265.56 479.648 271.733Z" fill="#342DEC"/>
<path fill-rule="evenodd" clip-rule="evenodd" d="M600.784 157.627L540.262 200.318C540.525 190.886 543.102 180.462 553.269 175.622C565.594 169.752 600.784 157.627 600.784 157.627Z" fill="#FDB2D0"/>
<path opacity="0.53" fill-rule="evenodd" clip-rule="evenodd" d="M391.277 164.472L398.322 214.946L420.628 210.838C415.131 211.837 409.974 198.82 409.009 195.087C406.888 186.858 408.123 177.915 412.751 170.758C414.885 167.458 418.038 163.886 418.284 159.771C419.396 140.864 391.277 164.472 391.277 164.472Z" fill="#0600A0"/>
<path opacity="0.53" fill-rule="evenodd" clip-rule="evenodd" d="M479.648 271.733C478.623 277.562 477.548 283.601 475.933 289.234C473.386 298.147 469.484 306.044 462.243 310.541C459.903 311.97 457.343 313.002 454.666 313.598V308.271C454.666 308.271 451.73 207.322 447.621 193.233C444.019 180.892 439.631 168.86 436.761 156.302C433.386 141.554 441.729 123.429 432.84 109.19C425.182 96.9322 407.245 89.7577 393.918 86.1888C389.683 85.0568 385.285 84.2345 381.467 82.0805C377.648 79.9265 374.422 76.058 374.498 71.6734C375.579 72.0966 376.553 72.751 377.354 73.5906C378.154 74.4303 378.762 75.4349 379.133 76.534C382.628 69.7092 391.947 68.8769 399.591 69.5094C417.542 70.9976 436.838 76.6872 446.866 91.6554C452.579 100.181 454.523 110.782 454.227 121.039C453.474 146.071 439.911 170.977 449.849 195.813C450.561 197.589 451.338 199.371 452.179 201.16C458.025 213.664 466.635 226.612 472.757 239.389C474.875 243.693 476.648 248.158 478.057 252.743C479.968 259.198 480.74 265.56 479.648 271.733Z" fill="#0600A0"/>
<path fill-rule="evenodd" clip-rule="evenodd" d="M546.66 230.151C530.014 244.153 495.793 250.376 478.079 252.753C475.512 253.086 473.294 253.362 471.523 253.555C470.12 253.709 468.786 254.24 467.661 255.093C466.537 255.947 465.666 257.089 465.141 258.399C460.706 269.495 459.07 281.512 460.377 293.389L460.424 293.835L462.268 310.541L475.818 433.293L318.526 432.118L324.259 395.23V394.984L324.309 384.996L324.618 320.353L324.066 332.937L323.966 335.141L323.197 352.593C322.97 357.803 320.217 359.328 316.455 358.795C312.693 358.262 307.932 355.666 303.684 352.643L263.943 322.13C263.943 322.13 293.647 252.63 298.947 230.038C299.741 226.648 301.339 223.5 303.608 220.859C307.826 215.936 313.058 211.982 318.945 209.268C324.832 206.553 331.236 205.141 337.719 205.128L357.694 205.088L368.418 205.065L380.326 205.042L399.283 203.89L400.421 203.82L403.75 203.62L445.715 201.896C447.895 201.809 450.066 201.564 452.211 201.163C456.171 200.446 460.021 199.215 463.663 197.501L464.392 197.148L533.613 163.17L534.013 164.169L546.877 195.703L551.924 208.088C552.257 208.903 552.535 209.739 552.756 210.592C554.564 217.663 552.347 225.34 546.66 230.151Z" fill="white"/>
<path fill-rule="evenodd" clip-rule="evenodd" d="M414.316 209.446C413.379 211.059 412.323 212.599 411.157 214.054C397.91 230.48 373.843 229.874 360.22 209.996C360.29 210.096 362.68 208.964 362.883 208.887C366.276 207.579 370.207 205.118 369.854 199.625C369.745 197.801 369.392 192.101 369.005 185.752C368.383 175.505 367.647 163.573 367.647 163.573L366.262 148.282C366.262 148.282 373.919 150.413 381.846 153.356C389.447 150.759 396.854 148.958 396.854 148.958L397.34 164.229C397.34 164.229 397.896 173.291 398.462 182.406L398.479 182.739C398.479 182.916 398.479 183.072 398.509 183.262C398.962 190.56 399.395 197.708 399.541 200.071C399.541 200.141 399.541 200.214 399.541 200.284C399.734 203.41 401.442 206.48 403.696 207.755C405.867 208.98 408.25 208.677 410.521 208.917C411.39 209.01 412.265 209.103 413.138 209.223C413.401 209.257 414.086 209.2 414.316 209.446Z" fill="#FFCAE1"/>
<path fill-rule="evenodd" clip-rule="evenodd" d="M408.44 213.172C404.232 211.64 400.187 209.313 397.287 207.532C393.738 205.351 392.293 200.181 391.648 196.349C391.171 193.479 390.879 190.177 391.914 187.394C392.433 185.979 393.269 185 394.664 184.454C396.028 183.977 397.305 183.281 398.446 182.393L398.463 182.726C398.463 182.903 398.462 183.059 398.492 183.249C398.945 190.546 399.378 197.694 399.525 200.058C399.525 200.128 399.525 200.201 399.525 200.271C399.606 201.487 399.895 202.679 400.38 203.797L399.241 203.867C399.481 204.339 399.651 204.659 399.694 204.726C401.86 208.096 404.758 210.935 408.174 213.029C408.27 213.095 408.357 213.142 408.44 213.172Z" fill="#FDB2D0"/>
<path d="M415.781 161.446C422.402 161.446 427.77 156.078 427.77 149.457C427.77 142.836 422.402 137.469 415.781 137.469C409.16 137.469 403.793 142.836 403.793 149.457C403.793 156.078 409.16 161.446 415.781 161.446Z" fill="#FDB2D0"/>
<path fill-rule="evenodd" clip-rule="evenodd" d="M415.659 152.38C415.68 157.914 414.394 163.375 411.907 168.318C409.419 173.262 405.8 177.548 401.343 180.828C400.419 181.513 399.461 182.151 398.473 182.739C397.667 183.222 396.842 183.675 395.996 184.091C395.151 184.507 394.258 184.913 393.36 185.266C385.561 188.344 376.915 188.517 369 185.752C355.35 180.982 345.445 167.974 345.362 152.733L345.206 120.773C345.092 99.2327 360.653 87.9699 377.15 86.7747C378.148 86.7015 379.17 86.6682 380.179 86.6682C382.111 86.6674 384.041 86.8087 385.952 87.091C400.061 89.1285 412.939 98.6068 415.163 115.389C415.384 117.062 415.495 118.746 415.495 120.433C415.489 120.463 415.659 152.38 415.659 152.38Z" fill="#FFCAE1"/>
<path fill-rule="evenodd" clip-rule="evenodd" d="M391.277 130.431C378.959 126.908 371.405 105.555 371.405 105.555L377.145 86.7648L378.953 81.7143L385.944 87.081L415.154 115.379C415.376 117.051 415.487 118.736 415.487 120.423C415.487 120.48 415.644 152.384 415.644 152.384C415.665 157.918 414.38 163.378 411.892 168.322C409.404 173.265 405.785 177.551 401.328 180.832C407.028 174.506 411.529 160.97 408.636 159.085C404.87 156.628 403.602 133.936 391.277 130.431Z" fill="#FDB2D0"/>
<path fill-rule="evenodd" clip-rule="evenodd" d="M415.781 152.517L415.425 137.259L427.49 119.518L408.324 96.04C402.491 88.8921 387.017 81.1284 377.778 81.1284L358.655 84.7472C358.655 84.7472 333.819 128.743 345.199 129.452C356.578 130.161 379.589 93.6163 379.589 93.6163C379.589 93.6163 381.364 120.936 399.814 122.357C418.265 123.779 403.007 160.324 415.781 152.517Z" fill="#342DEC"/>
<g opacity="0.75">
<path opacity="0.75" d="M415.768 245.279L443.29 237.951L454.1 264.006L415.768 245.279Z" stroke="#FFB037" stroke-width="3" stroke-linecap="round" stroke-linejoin="round"/>
<path opacity="0.75" d="M349.909 219.221L345.978 229.894L364.332 222.417L349.909 219.221Z" stroke="#FFB037" stroke-width="3" stroke-linecap="round" stroke-linejoin="round"/>
<path opacity="0.75" d="M371.532 277.036L353.841 300.65L400.037 303.906L371.532 277.036Z" stroke="#FFB037" stroke-width="3" stroke-linecap="round" stroke-linejoin="round"/>
<path opacity="0.75" d="M327.301 339.735L335.164 324.264L345.978 335.664L327.301 339.735Z" stroke="#FFB037" stroke-width="3" stroke-linecap="round" stroke-linejoin="round"/>
<path opacity="0.75" d="M391.192 329.148L400.038 311.234L404.955 324.264L391.192 329.148Z" stroke="#FFB037" stroke-width="3" stroke-linecap="round" stroke-linejoin="round"/>
<path opacity="0.75" d="M431.494 371.493L420.684 352.763H431.494V371.493Z" stroke="#FFB037" stroke-width="3" stroke-linecap="round" stroke-linejoin="round"/>
<path opacity="0.75" d="M349.909 407.318L368.583 391.847L371.532 404.878L349.909 407.318Z" stroke="#FFB037" stroke-width="3" stroke-linecap="round" stroke-linejoin="round"/>
<path opacity="0.75" d="M373.501 360.093L371.533 367.421L384.311 363.349L373.501 360.093Z" stroke="#FFB037" stroke-width="3" stroke-linecap="round" stroke-linejoin="round"/>
</g>
<path opacity="0.44" d="M324.235 394.967L324.285 384.979L324.595 320.336L324.042 332.92L323.942 335.124L324.608 283.019C341.168 382.04 328.174 393.652 324.235 394.967Z" fill="#FCAA23"/>
<path opacity="0.44" fill-rule="evenodd" clip-rule="evenodd" d="M546.659 230.151C530.013 244.153 495.792 250.376 478.077 252.753C475.51 253.086 473.293 253.362 471.522 253.555C470.119 253.708 468.784 254.24 467.66 255.093C466.536 255.947 465.665 257.089 465.14 258.399C460.705 269.495 459.069 281.512 460.376 293.389L460.422 293.835C459.444 291.095 453.531 272.918 460.559 250.762C462.054 246.051 466.552 242.399 472.777 239.399C496.824 227.837 546.969 225.949 552.748 210.588C554.563 217.663 552.345 225.34 546.659 230.151Z" fill="#FCAA23"/>
<path fill-rule="evenodd" clip-rule="evenodd" d="M210.708 60.9167C209.975 63.9287 209.075 66.8975 208.011 69.8091C208.551 58.6928 204.742 46.1417 199.099 35.9942C197.741 33.5414 196.229 31.1763 194.575 28.913C187.373 19.1051 181.048 10.9885 168.254 8.35173C154.561 5.52855 144.853 15.4429 136.413 24.5683C132.418 28.8963 127.504 32.9846 121.635 33.3675C115.576 33.7603 110.042 30.0848 105.425 26.153C106.244 23.8867 107.646 21.8759 109.488 20.3226C111.331 18.7693 113.55 17.7283 115.922 17.304C118.349 16.8978 120.916 17.1508 123.176 16.1687C126.006 14.9436 127.691 12.0904 129.711 9.75332C136.576 1.80315 148.069 -0.487345 158.556 0.12856C176.35 1.17393 195.22 9.43039 205.075 24.282C208.264 29.0605 210.408 34.4583 211.367 40.1224C211.737 42.2997 212.033 44.6335 212.219 47.0405C212.334 51.7125 211.826 56.379 210.708 60.9167Z" fill="#0600A0"/>
<path fill-rule="evenodd" clip-rule="evenodd" d="M194.966 149.857C192.218 152.885 189.05 155.502 185.557 157.627C181.752 153.865 180.86 148.136 177.058 142.756C175.127 140.019 175.313 135.608 176.565 130.354C178.478 129.361 180.3 128.202 182.012 126.892C182.088 131.796 182.192 136.34 182.345 139.21C182.451 141.207 182.721 143.501 184.189 144.996C185.291 146.135 186.912 146.661 188.324 147.273C190.475 148.212 192.659 149.387 194.966 149.857Z" fill="#FDB2D0"/>
<path fill-rule="evenodd" clip-rule="evenodd" d="M196.606 161.765L196.783 161.629C196.762 161.676 196.746 161.725 196.736 161.775L196.606 161.765Z" fill="#342DEC"/>
<path fill-rule="evenodd" clip-rule="evenodd" d="M414.317 209.446C413.38 211.059 412.324 212.599 411.158 214.054C410.256 213.808 409.343 213.511 408.441 213.185C408.358 213.142 408.271 213.095 408.188 213.042C404.773 210.948 401.874 208.11 399.709 204.739C399.665 204.672 399.496 204.353 399.256 203.88L400.394 203.81C401.14 205.531 402.312 206.979 403.687 207.755C405.858 208.98 408.241 208.677 410.512 208.917C411.381 209.01 412.256 209.103 413.129 209.223C413.402 209.257 414.088 209.2 414.317 209.446Z" fill="#FDB2D0"/>
<path opacity="0.44" fill-rule="evenodd" clip-rule="evenodd" d="M463.629 197.491C463.522 197.731 463.399 197.977 463.276 198.23C463.276 200.561 457.846 203.177 456.231 204C452.343 205.971 448.151 207.362 443.977 208.587C437.569 210.414 431.069 211.901 424.504 213.042C420.812 213.708 416.817 214.896 413.031 214.557C411.42 214.436 409.854 213.968 408.44 213.185C409.343 213.518 410.255 213.808 411.157 214.054C412.324 212.599 413.38 211.059 414.317 209.446C414.087 209.2 413.401 209.257 413.135 209.223C412.262 209.103 411.387 209.01 410.518 208.917C408.247 208.677 405.857 208.98 403.693 207.755C402.318 206.979 401.146 205.531 400.4 203.81L403.73 203.61L445.694 201.886C447.874 201.799 450.045 201.554 452.19 201.153C456.146 200.435 459.991 199.204 463.629 197.491Z" fill="#FCAA23"/>
</svg>
