<svg width="70" height="70" viewBox="0 0 70 70" fill="none" xmlns="http://www.w3.org/2000/svg">
<path d="M58.3337 13.1252V10.2085H45.2087V17.5002H21.8753V33.5418H11.667V36.4585H21.8753V52.5002H45.2087V59.7918H58.3337V56.8752H48.1253V45.2085H58.3337V42.2918H45.2087V49.5835H24.792V20.4168H45.2087V27.7085H58.3337V24.7918H48.1253V13.1252H58.3337Z" fill="#0600A0"/>
<path d="M5.83301 29.1665H17.4997V40.8332H5.83301V29.1665Z" fill="#FFB200"/>
<path d="M52.5 20.417H64.1667V32.0837H52.5V20.417Z" fill="#9FC3FD"/>
<path d="M52.5 5.8335H64.1667V17.5002H52.5V5.8335Z" fill="#9FC3FD"/>
<path d="M29.166 13.125H40.8327V24.7917H29.166V13.125Z" fill="#9FC3FD"/>
<path d="M29.166 45.2085H40.8327V56.8752H29.166V45.2085Z" fill="#9FC3FD"/>
<path d="M52.5 52.5H64.1667V64.1667H52.5V52.5Z" fill="#9FC3FD"/>
<path d="M52.5 37.917H64.1667V49.5837H52.5V37.917Z" fill="#9FC3FD"/>
</svg>
