<svg width="70" height="70" viewBox="0 0 70 70" fill="none" xmlns="http://www.w3.org/2000/svg">
<path d="M45.207 11.6667L62.5612 14.0001L48.2695 28.2917L45.207 11.6667Z" fill="#FFB200"/>
<path d="M24.7917 58.3335L7.4375 56.0002L21.7292 41.7085L24.7917 58.3335Z" fill="#FFB200"/>
<path d="M11.666 24.7919L13.9993 7.43774L28.291 21.7294L11.666 24.7919Z" fill="#FFB200"/>
<path d="M13.5619 30.9167L7.43685 32.0834C7.29102 33.1042 7.29102 33.9792 7.29102 35.0001C7.29102 41.7084 9.62435 48.1251 13.9994 53.0834L18.3744 49.2917C15.0202 45.3542 13.1244 40.2501 13.1244 35.0001C13.1244 33.6876 13.2702 32.2292 13.5619 30.9167Z" fill="#FFB200"/>
<path d="M34.9997 7.29175C27.1247 7.29175 20.1247 10.6459 15.0205 15.8959L19.1038 19.9792C23.1872 15.7501 28.7288 13.1251 34.9997 13.1251C36.3122 13.1251 37.7705 13.2709 39.083 13.5626L40.1038 7.87508C38.4997 7.43758 36.7497 7.29175 34.9997 7.29175Z" fill="#FFB200"/>
<path d="M56.4369 39.0834L62.5619 37.9167C62.7077 36.8959 62.7077 36.0209 62.7077 35.0001C62.7077 28.5834 60.5202 22.3126 56.4369 17.3542L51.916 21.0001C55.1243 24.9376 56.8744 29.8959 56.8744 34.8542C56.8744 36.3126 56.7285 37.7709 56.4369 39.0834Z" fill="#FFB200"/>
<path d="M50.8955 50.021C46.8122 54.2502 41.2705 56.8752 34.9997 56.8752C33.6872 56.8752 32.2288 56.7293 30.9163 56.4377L29.8955 62.1252C31.6455 62.4168 33.3955 62.5627 34.9997 62.5627C42.8747 62.5627 49.8747 59.2085 54.9788 53.9585L50.8955 50.021Z" fill="#FFB200"/>
<path d="M58.333 45.2085L55.9997 62.5627L41.708 48.271L58.333 45.2085Z" fill="#FFB200"/>
</svg>
