<svg width="70" height="70" viewBox="0 0 70 70" fill="none" xmlns="http://www.w3.org/2000/svg">
<path d="M58.333 30.625H64.1663V64.1667H58.333V30.625Z" fill="#9FC3FD"/>
<path d="M49.583 40.8335H55.4163V64.1668H49.583V40.8335Z" fill="#9FC3FD"/>
<path d="M40.833 33.5415H46.6664V64.1665H40.833V33.5415Z" fill="#9FC3FD"/>
<path d="M32.083 42.2915H37.9163V64.1665H32.083V42.2915Z" fill="#9FC3FD"/>
<path d="M23.333 46.6665H29.1663V64.1665H23.333V46.6665Z" fill="#9FC3FD"/>
<path d="M14.583 43.75H20.4163V64.1667H14.583V43.75Z" fill="#9FC3FD"/>
<path d="M5.83301 49.5835H11.6663V64.1668H5.83301V49.5835Z" fill="#9FC3FD"/>
<path d="M58.4788 13.2708L49.583 22.1666L43.7497 16.3333L29.1663 30.9166L21.8747 23.6249L6.70801 38.7916L10.7913 42.8749L21.8747 31.7916L29.1663 39.0832L43.7497 24.4999L49.583 30.3333L62.5622 17.3541L58.4788 13.2708Z" fill="#0600A0"/>
<path d="M64.166 11.6665H51.041L64.166 24.7915V11.6665Z" fill="#0600A0"/>
</svg>
